<svg xmlns="http://www.w3.org/2000/svg" xmlns:xlink="http://www.w3.org/1999/xlink" width="190" height="176" viewBox="0 0 190 176">
  <defs>
    <clipPath id="clip-path">
      <rect id="Rectángulo_423348" data-name="Rectángulo 423348" width="190" height="176" transform="translate(180 701)" fill="#fff" stroke="#707070" stroke-width="1"/>
    </clipPath>
    <linearGradient id="linear-gradient" x1="-11.317" y1="-44.93" x2="-11.368" y2="-44.599" gradientUnits="objectBoundingBox">
      <stop offset="0" stop-color="#823126"/>
      <stop offset="1" stop-color="#703c3c"/>
    </linearGradient>
  </defs>
  <g id="Grupo_1231814" data-name="Grupo 1231814" transform="translate(-181 -5509)">
    <g id="Enmascarar_grupo_1211486" data-name="Enmascarar grupo 1211486" transform="translate(1 4808)" clip-path="url(#clip-path)">
      <g id="Grupo_1231435" data-name="Grupo 1231435" transform="translate(3459.638 -2714.445)">
        <path id="Trazado_1174973" data-name="Trazado 1174973" d="M3639.448,3231.18c.711.188,1.13.977,1.488,1.6a1.436,1.436,0,0,1,.3.938.906.906,0,0,1-.2-.25,2.64,2.64,0,0,0-.225-.355.724.724,0,0,0-.184-.143c-.811-.243-8.2-.039-9.544-.038a11.332,11.332,0,0,0,.221-1.686C3633.767,3231.248,3637.079,3231.445,3639.448,3231.18Z" transform="translate(-6758.87 326.101)" fill="#8599a9"/>
        <path id="Trazado_1174974" data-name="Trazado 1174974" d="M1666.87,1367.362c1.339-.981,5.324-1.7,7.049-1.981q-.11,2.536-.134,5.075-.273-.042-.545-.095C1671.578,1370.043,1667.857,1368.813,1666.87,1367.362Z" transform="translate(-4894.133 2097.403)" fill="#f0830d"/>
        <path id="Trazado_1174975" data-name="Trazado 1174975" d="M3193.21,3191.073l11.19,0c-.048.489-.1.978-.136,1.467-.845.319-3.164.091-4.123.081-1.941-.021-14.341-.313-15.042.164a8.135,8.135,0,0,1-3.124.163,16.712,16.712,0,0,1,2.329-.1c.015-.56.1-1.119.162-1.676Z" transform="translate(-6332.503 364.181)" fill="#c0bdc1"/>
        <path id="Trazado_1174976" data-name="Trazado 1174976" d="M3117.066,1337.61c2.133.391,7.679,1.118,9.348,2.067q-4.817,2.253-9.537,4.7A40.341,40.341,0,0,0,3117.066,1337.61Z" transform="translate(-6270.702 2123.768)" fill="#f0830d"/>
        <path id="Trazado_1174977" data-name="Trazado 1174977" d="M2954.94,1318.829c-.221-.68-.862-2.132-.693-2.783l.28-.054q4.068.485,8.119,1.095a40.363,40.363,0,0,1-.189,6.771c-.679,5.678-2.359,9.749-4.587,14.956a21.776,21.776,0,0,1-.1-2.455q-.065-1.827-.269-3.644-.391-3.513-1.033-6.989T2954.94,1318.829Z" transform="translate(-6116.283 2144.291)" fill="#492223"/>
        <path id="Trazado_1174978" data-name="Trazado 1174978" d="M1809.591,1333.072a28.214,28.214,0,0,1,4.273-.642,35.9,35.9,0,0,0-2,11.628,11.925,11.925,0,0,0,.029,2.467,4.607,4.607,0,0,0-3.294,1.753c-.233.3-.427.627-.63.944a14.067,14.067,0,0,0-.572,2.077l-.028.305c-.787-.481-1.675-.441-2.459-1.049a65.4,65.4,0,0,1-1.517-11.381q.024-2.539.135-5.075,2.56-.508,5.14-.9Z" transform="translate(-5023.739 2128.685)" fill="#5f1908"/>
        <path id="Trazado_1174979" data-name="Trazado 1174979" d="M1878.63,1345.237l.927-.126c.131.1.223.11.233.29.028.536-.616,2.757-.743,3.516-.479,2.863-.754,5.72-.962,8.613a27.289,27.289,0,0,0-.153,3.732,14.09,14.09,0,0,0-.572,2.077c-.634-.9.017-9.166.195-10.709C1877.837,1350.174,1878.254,1347.68,1878.63,1345.237Z" transform="translate(-5093.705 2116.646)" fill="#492223"/>
        <path id="Trazado_1174980" data-name="Trazado 1174980" d="M1894.914,1333.072a28.214,28.214,0,0,1,4.273-.642,35.894,35.894,0,0,0-2,11.628,11.891,11.891,0,0,0,.029,2.467,4.608,4.608,0,0,0-3.295,1.753c-.233.3-.427.627-.63.944a27.29,27.29,0,0,1,.153-3.732c.208-2.893.482-5.75.962-8.613.127-.758.772-2.98.743-3.516C1895.137,1333.182,1895.045,1333.173,1894.914,1333.072Z" transform="translate(-5109.062 2128.685)" fill="#5f1908"/>
        <path id="Trazado_1174981" data-name="Trazado 1174981" d="M3168.243,2691.39a2.062,2.062,0,0,1,.967.743,22.323,22.323,0,0,1,2.3,4.592l2.584,5.85q2.284,5.291,4.427,10.641a22.751,22.751,0,0,1,1.318,3.483l-8.744.094c-.065.557-.147,1.115-.163,1.676a16.819,16.819,0,0,0-2.328.1h-.713C3168.572,2712.689,3169.785,2696.726,3168.243,2691.39Z" transform="translate(-6319.136 838.552)" fill="#e7d9a3"/>
        <path id="Trazado_1174982" data-name="Trazado 1174982" d="M1806.248,4160.015q2.776-.175,5.542-.471c1-.116,2.037-.384,3.034-.409l.115.242c.214,2.13.275,4.335.615,6.445-.933,2.336-2.076,4.587-3.042,6.913a19.152,19.152,0,0,0-4.006-.111l-5.768.024q-8.475.1-16.951.041c-2.728,0-5.469.1-8.194-.01.016-2.523-.125-5.064-.241-7.585a2.2,2.2,0,0,1,.1-.784,53.966,53.966,0,0,1,5.688-.5c4.009-.347,8.048-.71,12.025-1.33l.343.063c.1.155.194.308.3.458a2.36,2.36,0,0,0,.336,0,27.678,27.678,0,0,0,3.42-.4c.066-.031.1-.106.149-.159a2.16,2.16,0,0,1,.1-.814l.241-.092a41.77,41.77,0,0,0,6.145-.493A2.12,2.12,0,0,0,1806.248,4160.015Z" transform="translate(-4999.021 -554.856)" fill="#f0830d"/>
        <path id="Trazado_1174983" data-name="Trazado 1174983" d="M2607.96,1885.493a12.745,12.745,0,0,0,3-.98,34.683,34.683,0,0,0,16.006-16.254,21.8,21.8,0,0,0,1.129-3.107c.2-.71.341-1.474.609-2.161l.079-.2c2.907,2.214,4.944,4.763,5.429,8.473a9.523,9.523,0,0,1-1.571,7.071,10.362,10.362,0,0,1-3.6,2.661,12.907,12.907,0,0,1,7.2,6.006,8.4,8.4,0,0,1,.519,6.269c-.8,2.3-2.456,3.494-4.422,4.763a9.684,9.684,0,0,1,2.866,5.841c-.946-.187-3.42-1.561-4.563-2a121.264,121.264,0,0,0-14.156-4.678c-.557-.5-1.053-1.193-1.582-1.74a26.3,26.3,0,0,0-5.553-4.493C2608.455,1889.7,2608.159,1887.037,2607.96,1885.493Z" transform="translate(-5787.561 1625.183)" fill="#492223"/>
        <path id="Trazado_1174984" data-name="Trazado 1174984" d="M2656.591,2542.07a121.279,121.279,0,0,1,14.156,4.678c1.144.442,3.617,1.817,4.563,2a7.694,7.694,0,0,1,1.468.881c1.542,5.336.329,21.3-.349,27.179-1.052-.041-7.066-.236-7.615.1-2.062,4.488-3.9,9.112-5.825,13.663-.8,1.9-1.523,3.944-2.489,5.762-2.218.1-4.415.366-6.638.383-1.335.032-.958-.909-2.053-.96-.358-.016-.528.176-.765.408l-.6.585-.231-.037c1.683-5.621,3.226-11.407,4.382-17.159l2.862-14.733c.537-2.7,1.036-5.421,1.728-8.091a15.426,15.426,0,0,1,.429-1.634,36.087,36.087,0,0,1,4.468,3.07,34.884,34.884,0,0,0-4.869-12.165C2658.37,2544.669,2657.438,2543.4,2656.591,2542.07Z" transform="translate(-5827.671 980.31)" fill="#f0830d"/>
        <path id="Trazado_1174985" data-name="Trazado 1174985" d="M1337.969,1690.31c.784.608,1.672.568,2.459,1.049a7.822,7.822,0,0,0,1.669,6.241,6.755,6.755,0,0,0,4.615,2.5,7.714,7.714,0,0,0,3.09-.5c.969,4.389,3.641,8.494,6.649,11.785.748.818,1.617,1.526,2.355,2.342l-.085,1.191a52.089,52.089,0,0,1-1.922,11.131,6.446,6.446,0,0,0-1.5.339c-1.536.676-3.98,3.328-4.98,4.718a7.442,7.442,0,0,1-.949,1.307c-4.472,1.517-8.838,3.3-13.206,5.092-2.367.971-4.77,1.885-7.107,2.926-2.294.779-3.935,1.114-5.1,3.477a57.8,57.8,0,0,0-2.848,7.614c-.319.976-.578,2.074-.99,3.01a16.05,16.05,0,0,1-7.538-8.189,13.456,13.456,0,0,1,.1-10.592c2.05-4.788,6.059-7.455,10.734-9.352a10.178,10.178,0,0,1-.9-1.407c-1.489-2.885-1.253-6.375-.27-9.382a11.848,11.848,0,0,1,5.872-7.152,9.216,9.216,0,0,1-3.429-6.154,9.741,9.741,0,0,1,2.441-7.015C1329.95,1691.906,1333.726,1690.718,1337.969,1690.31Z" transform="translate(-4556.802 1788.931)" fill="#492223"/>
        <path id="Trazado_1174986" data-name="Trazado 1174986" d="M1200.318,2694.133c.412-.937.671-2.034.99-3.01a57.84,57.84,0,0,1,2.848-7.615c1.162-2.363,2.8-2.7,5.1-3.477a55.185,55.185,0,0,1,4.531,10.912c.99,3.043,1.979,6.149,2.769,9.251.491,1.929.876,3.893,1.3,5.839.374,1.715,1.242,4.075.788,5.78s-5.346,15.24-5.289,15.609l.018.03a16.838,16.838,0,0,1,.316,3.679q.134,3.35.392,6.692a25.4,25.4,0,0,0,.226,2.969l0,.1a18.317,18.317,0,0,0,4.365.565c3.188.323,6.37.72,9.554,1.083a34.618,34.618,0,0,1,5.2.673,34.159,34.159,0,0,0,3.8.439l-.012,1.452a50.664,50.664,0,0,1,6.1.063l.055.169c.071,2.359.284,4.7.5,7.047.106,1.129.149,2.328.361,3.438a2.126,2.126,0,0,1-.058,1.037,41.947,41.947,0,0,1-6.145.492l-.241.091a2.16,2.16,0,0,0-.1.815c-.05.053-.084.128-.15.16a27.874,27.874,0,0,1-3.42.4,2.364,2.364,0,0,1-.336,0c-.1-.151-.2-.3-.3-.459l-.343-.063c-3.976.62-8.016.984-12.025,1.33a54.157,54.157,0,0,0-5.687.5,2.206,2.206,0,0,0-.1.784c-.035-.233-.08-.464-.124-.7a15.093,15.093,0,0,0-3.253.107c-5.589.319-11.508.6-17.046-.3-2.936-.48-5.939-1.731-7.714-4.225q-.221-.317-.417-.647t-.367-.676q-.171-.346-.315-.7t-.261-.724q-.117-.367-.207-.741t-.15-.755q-.061-.38-.093-.764t-.035-.769c0-4.566,1.965-11.38,3.205-15.862l3.792-13.249c1.578-5.4,3-10.87,4.7-16.231l2.2-6.753a23.769,23.769,0,0,0,1.055-3.635C1200.306,2694.228,1200.311,2694.18,1200.318,2694.133Z" transform="translate(-4437.001 849.336)" fill="#e7d9a3"/>
        <path id="Trazado_1174987" data-name="Trazado 1174987" d="M1362.087,3830.479c4.052-.985,6.436-.163,10.1,1.519.416.135.832.286,1.252.4-.026.168-.111.176-.253.2a22.666,22.666,0,0,0-4.526,1.05,24.13,24.13,0,0,0-9.238,6.419c1.956-4.029,4.3-6.062,8.208-8.115A27.062,27.062,0,0,0,1362.087,3830.479Z" transform="translate(-4602.258 -242.442)" fill="#b9b16b"/>
        <path id="Trazado_1174988" data-name="Trazado 1174988" d="M1611.47,3629.112c1.319-2.592,2.689-5.151,3.957-7.771.714-1.474,1.3-3.015,2.048-4.471a1.222,1.222,0,0,1,.434-.526,16.833,16.833,0,0,1,.316,3.679q.133,3.351.392,6.693a25.46,25.46,0,0,0,.226,2.968l0,.1c-2.017.112-4.107-.539-6.125-.27C1612.3,3629.4,1611.886,3629.247,1611.47,3629.112Z" transform="translate(-4841.54 -39.556)" fill="#fff"/>
        <path id="Trazado_1174989" data-name="Trazado 1174989" d="M2129.294,3927.571a34.439,34.439,0,0,0,3.8.438l-.012,1.452c-.044,3.136.191,6.19.393,9.315a11.18,11.18,0,0,0,.233,2.859l.188.073-.241.091a2.152,2.152,0,0,0-.1.814c-.05.054-.084.129-.15.161a27.891,27.891,0,0,1-3.42.4,2.371,2.371,0,0,1-.336,0c-.1-.151-.2-.3-.3-.458l-.343-.063c.14-.029.276-.067.414-.1a20.63,20.63,0,0,0-.015-3.764Z" transform="translate(-5332.867 -335.02)" fill="#b9b16b"/>
        <path id="Trazado_1174990" data-name="Trazado 1174990" d="M2209.237,3963.7a50.608,50.608,0,0,1,6.1.063l.055.169c.071,2.359.284,4.7.5,7.047.105,1.128.149,2.328.361,3.438a2.131,2.131,0,0,1-.058,1.038,41.914,41.914,0,0,1-6.145.492l-.188-.073a11.2,11.2,0,0,1-.233-2.858C2209.427,3969.891,2209.192,3966.837,2209.237,3963.7Z" transform="translate(-5409.027 -369.26)" fill="#fff"/>
        <path id="Trazado_1174991" data-name="Trazado 1174991" d="M1699.715,531.26q1.06-.184,2.126-.323t2.138-.234q1.072-.1,2.146-.145t2.15-.056q1.076-.005,2.15.034t2.147.123q1.072.084,2.14.213t2.13.3a7.8,7.8,0,0,1,3.178.882c1.035.776.768,3.48,1.351,3.936a28.475,28.475,0,0,1,4.8,2.266,33.514,33.514,0,0,1,5.617,4.49,47.6,47.6,0,0,1,3.436,3.495,39.452,39.452,0,0,1,7.423,13.29,65.918,65.918,0,0,1,2.365,9.159c1.2.313,4.258.774,4.975,1.81a3.807,3.807,0,0,1,.308,2.5c-.064.234-.154.3-.367.408a.654.654,0,0,1-.091.032c-1.668-.949-7.215-1.676-9.348-2.067q-4.051-.61-8.119-1.095a20.1,20.1,0,0,0-3.83-.347,215.274,215.274,0,0,0-24.771-.55,57.473,57.473,0,0,0-6.428.41c-4.379.332-8.738.705-13.089,1.32a28.234,28.234,0,0,0-4.273.642l-.927.127q-2.58.392-5.14.9c-1.725.284-5.711,1-7.049,1.981a18.657,18.657,0,0,0,.038-3.5c1.562-.528,3.124-1.038,4.73-1.414a45.214,45.214,0,0,1,1.593-9.477,48.43,48.43,0,0,1,3.238-8.1,32.591,32.591,0,0,1,18.869-16.173l1.363-.34C1697.391,534.328,1698.253,532.036,1699.715,531.26Z" transform="translate(-4894.129 2889.999)" fill="#f8c458"/>
        <path id="Trazado_1174992" data-name="Trazado 1174992" d="M2230.328,550c.694-1.436,1.556-3.729,3.018-4.5,3.784,3.105,6.4,17.731,6.875,22.56q.074.7.1,1.4l-1.463-.014a38.016,38.016,0,0,0-6.475-15.23,31.324,31.324,0,0,0-2.066-2.417,10.317,10.317,0,0,1-1.249-1.289c-.036-.055-.07-.111-.1-.167Z" transform="translate(-5427.761 2875.762)" fill="#f0830d"/>
        <path id="Trazado_1174993" data-name="Trazado 1174993" d="M2742.382,638.914a28.479,28.479,0,0,1,4.8,2.266,33.5,33.5,0,0,1,5.617,4.49,47.515,47.515,0,0,1,3.436,3.495,39.449,39.449,0,0,1,7.422,13.29c-1.841-.357-3.68-.947-5.513-1.375a135.949,135.949,0,0,0-14.38-2.694c.008-.791-.007-1.582-.01-2.373-.067-3.827-.418-7.706-.8-11.516C2742.777,642.755,2742.191,640.645,2742.382,638.914Z" transform="translate(-5915.139 2787.077)" fill="#dc905e"/>
        <path id="Trazado_1174994" data-name="Trazado 1174994" d="M2742.382,638.914a28.479,28.479,0,0,1,4.8,2.266c-1.538,4.293-2.118,9.1-2.717,13.6-.169,1.28-.283,2.579-.508,3.849-.135-.87-.063-1.757-.2-2.616-.067-3.827-.418-7.706-.8-11.516C2742.777,642.755,2742.191,640.645,2742.382,638.914Z" transform="translate(-5915.139 2787.077)" fill="#f0830d"/>
        <path id="Trazado_1174995" data-name="Trazado 1174995" d="M1671.632,1211.527a101.6,101.6,0,0,1,10.124-2.633c19.03-3.745,44.508-3.255,63.258,1.474,1.2.313,4.258.774,4.975,1.81a3.81,3.81,0,0,1,.308,2.5c-.064.234-.154.3-.367.408a.717.717,0,0,1-.091.032c-1.669-.95-7.215-1.677-9.348-2.067q-4.051-.61-8.119-1.095a20.08,20.08,0,0,0-3.83-.347,215.235,215.235,0,0,0-24.772-.55,57.451,57.451,0,0,0-6.428.41c-4.379.332-8.738.705-13.089,1.32a28.181,28.181,0,0,0-4.273.642l-.927.127q-2.58.392-5.14.9c-1.725.284-5.71,1-7.049,1.981a18.69,18.69,0,0,0,.038-3.5C1668.463,1212.412,1670.026,1211.9,1671.632,1211.527Z" transform="translate(-4894.128 2248.322)" fill="#dc905e"/>
        <path id="Trazado_1174996" data-name="Trazado 1174996" d="M1792.46,665.4a48.433,48.433,0,0,1,3.238-8.1,32.59,32.59,0,0,1,18.869-16.173c.035.056.069.112.105.167a10.281,10.281,0,0,0,1.25,1.289,31.4,31.4,0,0,1,2.065,2.417,38.017,38.017,0,0,1,6.475,15.23c-7.11.771-14.184,1.45-21.23,2.72q-3.135.569-6.229,1.331A28.054,28.054,0,0,1,1792.46,665.4Z" transform="translate(-5013.363 2784.973)" fill="#dc905e"/>
        <path id="Trazado_1174997" data-name="Trazado 1174997" d="M1900.232,1295.835a57.426,57.426,0,0,1,6.428-.41,215.345,215.345,0,0,1,24.772.55,20.135,20.135,0,0,1,3.83.347l-.28.054c-.168.651.472,2.1.693,2.783q.888,3.422,1.53,6.9t1.033,6.989q.2,1.817.269,3.644a21.765,21.765,0,0,0,.1,2.455,23.553,23.553,0,0,0-.368,4.872l-.079.2c-.267.687-.406,1.451-.609,2.161a21.707,21.707,0,0,1-1.129,3.107,34.68,34.68,0,0,1-16.006,16.254,12.723,12.723,0,0,1-3,.98,10.535,10.535,0,0,1-1.672.219c-5.8.24-12.6-4.454-16.723-8.231-.739-.816-1.608-1.524-2.356-2.342-3.008-3.291-5.681-7.4-6.649-11.785a7.716,7.716,0,0,1-3.089.5,6.756,6.756,0,0,1-4.615-2.5,7.823,7.823,0,0,1-1.669-6.241l.028-.3a14.031,14.031,0,0,1,.572-2.077c.2-.318.4-.647.63-.944a4.608,4.608,0,0,1,3.295-1.753,11.921,11.921,0,0,1-.029-2.467,35.9,35.9,0,0,1,2-11.628C1891.494,1296.541,1895.853,1296.168,1900.232,1295.835Z" transform="translate(-5097.018 2163.96)" fill="#dc905e"/>
        <path id="Trazado_1174998" data-name="Trazado 1174998" d="M2647.446,1810.05a2.1,2.1,0,0,1,.3.028,7.988,7.988,0,0,1,3.4,2.31,1.4,1.4,0,0,1,.122,1.148,3.682,3.682,0,0,1-2.118,1.832,1.788,1.788,0,0,1-.811-.127l-.019-.17a14.5,14.5,0,0,1,1.6-1.089.866.866,0,0,0,.377-.7c-.3-.976-1.773-1.436-2.453-2.186A1.249,1.249,0,0,1,2647.446,1810.05Z" transform="translate(-5825.045 1675.255)" fill="#8d4036"/>
        <path id="Trazado_1174999" data-name="Trazado 1174999" d="M1934.607,1672.121a3.169,3.169,0,0,1,1.275.169,4.161,4.161,0,0,1,2.166,2.279c.465,1.044,1.487,3.678,1.068,4.767a.528.528,0,0,1-.484.152c-.452-.262-.559-2.116-.742-2.684a4.947,4.947,0,0,0-.4-.845,5.305,5.305,0,0,0-1.032,4.236.784.784,0,0,1-.021.355c-.415-.186-.7-1.029-.889-1.444a6.77,6.77,0,0,1,.906-2.99,4.341,4.341,0,0,0,.551-1.039,1.11,1.11,0,0,0-.172-.8,2.923,2.923,0,0,0-1.778-1.206,1.6,1.6,0,0,0-1.275.209c-.577.457-.683,1.69-.742,2.383a1.071,1.071,0,0,1-.122-.3,3.028,3.028,0,0,1,.372-2.357A1.7,1.7,0,0,1,1934.607,1672.121Z" transform="translate(-5146.615 1806.204)" fill="#8d4036"/>
        <path id="Trazado_1175000" data-name="Trazado 1175000" d="M2434.19,1966.12c.584.326.884,1.256,1.338,1.764a12.329,12.329,0,0,0,1.914,1.708,10.159,10.159,0,0,0,7.718,1.867c2.966-.493,4.7-2.192,6.38-4.549l.117.024a1.009,1.009,0,0,1-.162.63,10.212,10.212,0,0,1-.927,1.658q-.122.167-.253.329c-.087.107-.177.213-.27.316s-.187.2-.285.3-.2.194-.3.287-.207.184-.314.271-.216.173-.327.255-.224.162-.339.239-.232.151-.351.221-.239.139-.362.2-.245.126-.371.185-.252.114-.38.166-.258.1-.388.146-.262.088-.4.127-.266.075-.4.107-.27.062-.406.087-.273.047-.41.066a9.857,9.857,0,0,1-7.337-1.766C2436.317,1969.745,2434.448,1967.874,2434.19,1966.12Z" transform="translate(-5622.592 1527.09)" fill="#8d4036"/>
        <path id="Trazado_1175001" data-name="Trazado 1175001" d="M2749.434,1444.59a9.368,9.368,0,0,1,6.231,2.138,2.041,2.041,0,0,1,.793,1.5c-.085.13-.1.228-.264.274-.882.258-1.808-.709-2.522-1.131-3.128-1.448-6.357.361-7.733-.413a1.38,1.38,0,0,1-.231-.523.9.9,0,0,1,.208-.778C2746.565,1444.831,2748.465,1444.677,2749.434,1444.59Z" transform="translate(-5918.315 2022.206)" fill="#492223"/>
        <path id="Trazado_1175002" data-name="Trazado 1175002" d="M2286.162,1590.573a2.868,2.868,0,0,1,1.707.176,3.694,3.694,0,0,1,1.793,2.155,6.251,6.251,0,0,1-.282,4.624,3.548,3.548,0,0,1-2.1,1.954,3.012,3.012,0,0,1-1.138-.141,4.032,4.032,0,0,1-2.231-2.313,5.594,5.594,0,0,1,.065-4.408A3.738,3.738,0,0,1,2286.162,1590.573Z" transform="translate(-5479.527 1883.663)" fill="#1c1411"/>
        <path id="Trazado_1175003" data-name="Trazado 1175003" d="M2343.589,1607.35a2.439,2.439,0,0,1,.537.057,2.26,2.26,0,0,1,1.279,1.1,1.613,1.613,0,0,1,.131,1.328,1.413,1.413,0,0,1-.864.778q-.149-.018-.3-.04a1.926,1.926,0,0,1-1.389-.857,1.571,1.571,0,0,1,.6-2.369Z" transform="translate(-5535.709 1867.689)" fill="#fff"/>
        <path id="Trazado_1175004" data-name="Trazado 1175004" d="M2751.276,1590.916a3.315,3.315,0,0,1,1.877.277,3.4,3.4,0,0,1,1.682,2.08,7.1,7.1,0,0,1-.5,4.909,2.429,2.429,0,0,1-3.175,1.507,3.851,3.851,0,0,1-2.252-2.177,5.583,5.583,0,0,1,.039-4.268A4.11,4.11,0,0,1,2751.276,1590.916Z" transform="translate(-5920.989 1883.314)" fill="#1c1411"/>
        <path id="Trazado_1175005" data-name="Trazado 1175005" d="M2809.521,1607.58a2.973,2.973,0,0,1,.375-.01,2.132,2.132,0,0,1,1.427.9,2.172,2.172,0,0,1,.493,1.6,1.41,1.41,0,0,1-.712,1.029c-.121-.007-.243-.017-.364-.032a2.619,2.619,0,0,1-1.71-1.043,1.69,1.69,0,0,1-.349-1.3A1.709,1.709,0,0,1,2809.521,1607.58Z" transform="translate(-5978.094 1867.483)" fill="#fff"/>
        <path id="Trazado_1175006" data-name="Trazado 1175006" d="M1984.8,1295.835a57.423,57.423,0,0,1,6.428-.41,215.343,215.343,0,0,1,24.771.55,20.128,20.128,0,0,1,3.83.347l-.279.054c-.169.651.471,2.1.693,2.783-9.768-.957-16.963.767-26.02,4.217a1.608,1.608,0,0,1-.3,1.23,2.33,2.33,0,0,1-.88.489,6.946,6.946,0,0,0-2.389,1.047,35.03,35.03,0,0,0-9.59,7.4c-1,1.165-1.924,3.189-2.846,4.042a10.146,10.146,0,0,1-1.748.852,5.145,5.145,0,0,0-.961.937l-.1-.046.009-.232a13.513,13.513,0,0,0-2.008-5.587,5.368,5.368,0,0,0-3.679-2.253,11.9,11.9,0,0,1-.029-2.467,35.887,35.887,0,0,1,2-11.628C1976.058,1296.541,1980.417,1296.168,1984.8,1295.835Z" transform="translate(-5181.582 2163.96)" fill="#b96d4b"/>
        <path id="Trazado_1175007" data-name="Trazado 1175007" d="M2224.706,1431.35a7.154,7.154,0,0,0-1.227-.689,8.247,8.247,0,0,0-6.418.784,10.667,10.667,0,0,1-2.011,1.355,1.352,1.352,0,0,1-1.072-.2.7.7,0,0,1-.3-.609,1.613,1.613,0,0,1,.449-.918c1.421-1.655,4.4-2.564,6.5-2.764a7.109,7.109,0,0,1,5.257,1.32,1.607,1.607,0,0,1-.3,1.231A2.32,2.32,0,0,1,2224.706,1431.35Z" transform="translate(-5413.244 2037.705)" fill="#492223"/>
        <path id="Trazado_1175008" data-name="Trazado 1175008" d="M1971.711,1307.69c4.35-.615,8.71-.988,13.089-1.32-3.827,5.68-8.246,11.281-9.315,18.233-.275,1.785.163,3.522-.061,5.021a13.508,13.508,0,0,0-2.008-5.587,5.367,5.367,0,0,0-3.679-2.252,11.887,11.887,0,0,1-.028-2.467A35.878,35.878,0,0,1,1971.711,1307.69Z" transform="translate(-5181.586 2153.425)" fill="#492223"/>
        <path id="Trazado_1175009" data-name="Trazado 1175009" d="M2377.04,3224.84l.274.355.182-.011-.034-.078a.892.892,0,0,1,.612.563c.112.3.211.608.3.915l.027.06.119,0-.009.089c2.938.154,5.929.047,8.874.05,3.1,0,6.188.108,9.279.122,1.341,0,8.735-.206,9.544.038a.732.732,0,0,1,.184.143,2.568,2.568,0,0,1,.225.355.9.9,0,0,0,.2.25c-1.146,2.183-2.123,4.449-3.181,6.674l-7.139,15.205c-1.343,2.878-2.57,5.935-4.146,8.688,1.013.379,2.415.7,2.93,1.744a1.321,1.321,0,0,1,.083,1.011,1.7,1.7,0,0,1-.916.968,2.094,2.094,0,0,1-.928.049l-.131.636a1.344,1.344,0,0,1,.919.684,1.171,1.171,0,0,1-.111.979,3.647,3.647,0,0,1-2.259,1.737,5.873,5.873,0,0,1-.944.216,4.87,4.87,0,0,0,1.064.859c0,.706.022,1.419-.035,2.123a13.29,13.29,0,0,1-1.731.533l-.1.256a3.084,3.084,0,0,1-.022,2.425,1.541,1.541,0,0,1-1.1.684,7.621,7.621,0,0,1-3.617-.727l-.606,1.341c-.846,1.89-1.735,3.761-2.553,5.665-.845,1.967-1.692,4.566-2.916,6.292a41.729,41.729,0,0,1-5.969.13l-11.25-.03c-1.471.092-3.011,0-4.489,0H2348.6l-6.554.031a19.057,19.057,0,0,1-4.11-.106c.965-2.326,2.109-4.576,3.042-6.914-.34-2.109-.4-4.314-.615-6.444l-.115-.242c-1,.024-2.039.292-3.035.408q-2.766.3-5.542.471c-.212-1.11-.255-2.309-.361-3.438-.22-2.349-.433-4.688-.5-7.047a1.191,1.191,0,0,0,.936.424c1.323-.069,6.827-6.53,7.85-7.93.907-.862,1.736-1.849,2.585-2.77,2.291-2.483,3.444-3.7,4.652-6.928l.153-.444.231.036.6-.584c.238-.232.407-.425.765-.408,1.094.051.718.992,2.053.96,2.222-.017,4.419-.28,6.638-.382.966-1.817,1.688-3.863,2.489-5.762,1.921-4.551,3.763-9.176,5.826-13.663.549-.335,6.563-.14,7.615-.1h.713A8.151,8.151,0,0,0,2377.04,3224.84Z" transform="translate(-5524.444 332.12)" fill="#4e6c81"/>
        <path id="Trazado_1175010" data-name="Trazado 1175010" d="M2894.909,3867.823a2.007,2.007,0,0,1,1.266.216c.128.095.1.21.128.355a4.125,4.125,0,0,1-2.363,1.7,4.461,4.461,0,0,1-.828.278l-.969.073q.112-.568.208-1.139A4.546,4.546,0,0,0,2894.909,3867.823Z" transform="translate(-6057.351 -278.287)" fill="#3d5b70"/>
        <path id="Trazado_1175011" data-name="Trazado 1175011" d="M3281.87,4072.55c.771.259,1.534.508,2.326.7a1.154,1.154,0,0,1-.44.416c-.266.12-.392.147-.526.424-.029.06-.046.126-.07.188a2.132,2.132,0,0,0,1.206,1.538,10.912,10.912,0,0,0,3.449,1.4l-.606,1.341a10.037,10.037,0,0,1-3.517-2.338,1.9,1.9,0,0,1-.632-1.676c-.336-.379-.963-.49-1.4-.749a.654.654,0,0,1-.349-.5A1.653,1.653,0,0,1,3281.87,4072.55Z" transform="translate(-6426.81 -472.656)" fill="#3d5b70"/>
        <path id="Trazado_1175012" data-name="Trazado 1175012" d="M2832.182,3957.831l.2.052c.547.137,1.538.045,1.894.52a.712.712,0,0,1-.286.6,17.241,17.241,0,0,1-5.481,2.261,1.4,1.4,0,0,0,.188-.948,1.033,1.033,0,0,0-.67-.681l-.212-.3A10.2,10.2,0,0,0,2832.182,3957.831Z" transform="translate(-5996.281 -363.747)" fill="#3d5b70"/>
        <path id="Trazado_1175013" data-name="Trazado 1175013" d="M2663.25,4031a1.722,1.722,0,0,1,.921.451.622.622,0,0,1,.014.6c-.494,1.148-8.442,3.785-10.037,4.445l.814-1.923C2657.578,4033.275,2660.787,4032.394,2663.25,4031Z" transform="translate(-5831.41 -433.211)" fill="#3d5b70"/>
        <path id="Trazado_1175014" data-name="Trazado 1175014" d="M3398.115,3855.885c-.094-.017-.189-.032-.281-.053-1.858-.427-7.842-2.46-8.706-4.035a.91.91,0,0,1-.088-.752,1.074,1.074,0,0,1,.528-.581c1.149-.483,6.183,1.023,7.376,1.648,1.014.379,2.415.7,2.931,1.744a1.322,1.322,0,0,1,.083,1.011,1.7,1.7,0,0,1-.916.968A2.088,2.088,0,0,1,3398.115,3855.885Z" transform="translate(-6529.039 -261.73)" fill="#b96d4b"/>
        <path id="Trazado_1175015" data-name="Trazado 1175015" d="M3302.73,3939.617a15.836,15.836,0,0,1-4.927-1.838,1.552,1.552,0,0,1-.812-.99.9.9,0,0,1,.356-.634c1.744-1.45,10.746,1.223,13.174,1.392l.118.006a1.342,1.342,0,0,1,.919.684,1.175,1.175,0,0,1-.11.979,3.65,3.65,0,0,1-2.26,1.737,5.892,5.892,0,0,1-.943.216c-.84.185-4.49-.632-5.628-.789Z" transform="translate(-6441.693 -342.762)" fill="#b96d4b"/>
        <path id="Trazado_1175016" data-name="Trazado 1175016" d="M3408.185,4012.56c1.167.306,5.859.881,6.458,1.335a5.753,5.753,0,0,1-.944.216c-.84.185-4.49-.632-5.628-.789Z" transform="translate(-6547.148 -415.704)" fill="url(#linear-gradient)"/>
        <path id="Trazado_1175017" data-name="Trazado 1175017" d="M2478.059,4138.871l-.189.628a8.461,8.461,0,0,0,2.862-.389c-1.568,3.493-3.133,6.979-4.631,10.5a36.535,36.535,0,0,0-1.661,3.871c2.572-.007,21-.2,21.354.093-1.471.092-3.011,0-4.489,0h-9.067l-6.554.03a19.1,19.1,0,0,1-4.11-.106c.966-2.327,2.109-4.576,3.042-6.914-.341-2.11-.4-4.313-.615-6.445a.3.3,0,0,1,.021-.068.525.525,0,0,1,.115-.169C2474.291,4139.778,2477.481,4139.093,2478.059,4138.871Z" transform="translate(-5658.081 -535.618)" fill="#638399"/>
        <path id="Trazado_1175018" data-name="Trazado 1175018" d="M2523.557,4138.871l-.189.628c-1.269,2.276-2.059,4.781-3.254,7.084-.34-2.11-.4-4.313-.615-6.445a.319.319,0,0,1,.021-.068.52.52,0,0,1,.115-.169C2519.788,4139.778,2522.979,4139.093,2523.557,4138.871Z" transform="translate(-5703.579 -535.618)" fill="#fff"/>
        <path id="Trazado_1175019" data-name="Trazado 1175019" d="M3266.782,4021.91a3.9,3.9,0,0,1-.771-.449,1.691,1.691,0,0,1-.59-1.2.857.857,0,0,1,.33-.656c1.02-.833,5.443-.116,6.894.03,1.138.157,4.789.974,5.628.789a4.884,4.884,0,0,0,1.064.859c0,.706.021,1.419-.035,2.122a13.11,13.11,0,0,1-1.732.533l-.1.255a3.082,3.082,0,0,1-.022,2.426,1.541,1.541,0,0,1-1.1.684,7.606,7.606,0,0,1-3.617-.728,10.9,10.9,0,0,1-3.449-1.4,2.131,2.131,0,0,1-1.206-1.537,1.9,1.9,0,0,1,.07-.189c.135-.276.26-.305.526-.424a1.161,1.161,0,0,0,.44-.416C3268.317,4022.418,3267.553,4022.169,3266.782,4021.91Z" transform="translate(-6411.722 -422.016)" fill="#b96d4b"/>
        <path id="Trazado_1175020" data-name="Trazado 1175020" d="M3318.823,4086.32c1.569.271,3.136.567,4.711.8a19.036,19.036,0,0,1,3.751.529l-.1.255a3.08,3.08,0,0,1-.023,2.425,1.536,1.536,0,0,1-1.1.684,7.606,7.606,0,0,1-3.617-.727,10.915,10.915,0,0,1-3.449-1.4,2.13,2.13,0,0,1-1.206-1.537c.023-.063.041-.128.07-.189.135-.276.26-.3.526-.423A1.161,1.161,0,0,0,3318.823,4086.32Z" transform="translate(-6461.437 -485.729)" fill="#b96d4b"/>
        <path id="Trazado_1175021" data-name="Trazado 1175021" d="M3329.994,4086.32c1.569.271,3.136.567,4.711.8a19.033,19.033,0,0,1,3.751.529l-.1.255c-.076.157-.019.07-.207.233-1.875.218-6.559-.931-8.593-1.4A1.151,1.151,0,0,0,3329.994,4086.32Z" transform="translate(-6472.608 -485.729)" fill="#8d4036"/>
        <path id="Trazado_1175022" data-name="Trazado 1175022" d="M3247.292,3259.29l.028.06.119,0-.009.09c2.938.154,5.929.046,8.873.05,3.095,0,6.188.109,9.28.123-.377.914-1.417,4.478-2.118,4.8a4.865,4.865,0,0,1-1.648.319c-1.616.1-14.121.149-14.985-.211a1.985,1.985,0,0,1-.749-.835c.214-1.287.869-2.5,1.061-3.8A2.556,2.556,0,0,1,3247.292,3259.29Z" transform="translate(-6393.365 299.415)" fill="#c0bdc1"/>
        <path id="Trazado_1175023" data-name="Trazado 1175023" d="M2813.243,3224.84l.274.355.182-.011-.034-.078a.891.891,0,0,1,.612.563c.113.3.211.608.3.915a2.554,2.554,0,0,0-.148.6c-.192,1.3-.847,2.514-1.061,3.8a1.288,1.288,0,0,1-.179-.281c-.288-.707.74-3.052,1.011-3.834-1.083.083-2.183.053-3.269.06-2.243.219-4.593.086-6.849.079a38.5,38.5,0,0,0-3.294,6.925c-1.277,2.99-2.622,5.957-3.869,8.959a86.894,86.894,0,0,1-3.969,8.956q-1.333.079-2.667.119c1.11-2.455,2.074-4.984,3.2-7.44.967-1.817,1.688-3.863,2.489-5.762,1.922-4.551,3.764-9.176,5.825-13.663.55-.335,6.563-.14,7.615-.1h.713A8.147,8.147,0,0,0,2813.243,3224.84Z" transform="translate(-5960.649 332.12)" fill="#638399"/>
        <path id="Trazado_1175024" data-name="Trazado 1175024" d="M3028.992,3224.84l.273.355.182-.011-.034-.078a.89.89,0,0,1,.613.563c.113.3.211.608.3.915a2.554,2.554,0,0,0-.148.6c-.192,1.3-.846,2.514-1.061,3.8a1.259,1.259,0,0,1-.179-.281c-.288-.707.74-3.052,1.01-3.834-1.083.083-2.183.053-3.269.06-2.467-.162-5.049-.038-7.525.015-.571-.578-1.037-1.258-1.613-1.841.55-.335,6.563-.14,7.615-.1h.713A8.143,8.143,0,0,0,3028.992,3224.84Z" transform="translate(-6176.396 332.12)" fill="#8599a9"/>
        <path id="Trazado_1175025" data-name="Trazado 1175025" d="M2346.987,3603.065l.231.036.6-.584c.238-.232.406-.424.765-.408,1.094.051.718.991,2.053.96,2.223-.017,4.42-.28,6.637-.383-1.121,2.457-2.085,4.986-3.2,7.441q1.335-.04,2.667-.12c1.1.031,2.9-.1,3.719.724a1.23,1.23,0,0,1,.346.976.771.771,0,0,1-.3.6,2.885,2.885,0,0,1-1.257.5,3.23,3.23,0,0,0,.521,1.066,2.812,2.812,0,0,1,2.021.5,1.024,1.024,0,0,1,.257.922,2.038,2.038,0,0,1-.05.275,4.546,4.546,0,0,1-2.557,1.486q-.1.571-.209,1.139l.969-.073a.942.942,0,0,1,.521.521,1.348,1.348,0,0,1-.078,1.047,2.334,2.334,0,0,1-.3.427,10.211,10.211,0,0,1-4.367,1.5l.212.3a1.033,1.033,0,0,1,.67.68,1.4,1.4,0,0,1-.188.948l-.388.276c-2.463,1.394-5.672,2.274-8.288,3.573-1.242.515-2.37,1.293-3.576,1.891-.577.223-3.768.908-3.922,1.03a.539.539,0,0,0-.115.168.317.317,0,0,0-.022.069l-.115-.242c-1,.024-2.038.292-3.034.408q-2.766.3-5.542.471c-.212-1.11-.255-2.309-.361-3.437-.22-2.349-.433-4.688-.5-7.047a1.188,1.188,0,0,0,.935.423c1.324-.068,6.828-6.529,7.85-7.93.907-.862,1.736-1.849,2.586-2.77,2.291-2.484,3.444-3.7,4.652-6.929Z" transform="translate(-5524.448 -26.041)" fill="#b96d4b"/>
        <path id="Trazado_1175026" data-name="Trazado 1175026" d="M2663.09,3989.477c1.5-.8,6.455-1.6,8.343-1.939l.212.3A33.337,33.337,0,0,1,2663.09,3989.477Z" transform="translate(-5839.898 -391.949)" fill="#8d4036"/>
        <path id="Trazado_1175027" data-name="Trazado 1175027" d="M2673,3898.516a43.188,43.188,0,0,1-4.427.685c-2,.311-4.02.745-6.027.981a3.878,3.878,0,0,1-1.174.01l-.064-.123c.846-.825,9.859-2.283,11.9-2.691Q2673.109,3897.949,2673,3898.516Z" transform="translate(-5838.205 -306.357)" fill="#8d4036"/>
        <path id="Trazado_1175028" data-name="Trazado 1175028" d="M2671.162,3814.492c-1.6.217-11.394,1.673-12.356,1.228,1.372-1.027,9.7-2.021,11.835-2.293A3.245,3.245,0,0,0,2671.162,3814.492Z" transform="translate(-5835.832 -226.657)" fill="#8d4036"/>
        <path id="Trazado_1175029" data-name="Trazado 1175029" d="M2659.251,3613.912c2.223-.017,4.42-.28,6.638-.382-1.121,2.457-2.085,4.985-3.195,7.44a40.954,40.954,0,0,0-6.807.974c.775-2.672,2.013-5.069,2.449-7.847A2.033,2.033,0,0,1,2659.251,3613.912Z" transform="translate(-5833.06 -36.884)" fill="#c0bdc1"/>
        <path id="Trazado_1175030" data-name="Trazado 1175030" d="M1687.06,2152.77c4.126,3.777,10.922,8.471,16.723,8.232a10.623,10.623,0,0,0,1.672-.219c.2,1.545.495,4.2,1.385,5.47a26.287,26.287,0,0,1,5.553,4.493c.528.547,1.025,1.245,1.582,1.741.847,1.328,1.779,2.6,2.618,3.932a34.878,34.878,0,0,1,4.869,12.165,36.029,36.029,0,0,0-4.468-3.069,15.516,15.516,0,0,0-.429,1.634c-.691,2.67-1.191,5.387-1.728,8.091l-2.862,14.732c-1.156,5.752-2.7,11.538-4.382,17.159l-.153.444c-1.208,3.233-2.361,4.445-4.652,6.929-.849.92-1.678,1.907-2.585,2.77-1.023,1.4-6.526,7.861-7.85,7.93a1.189,1.189,0,0,1-.936-.424l-.055-.169a50.661,50.661,0,0,0-6.1-.063l.012-1.451a34.272,34.272,0,0,1-3.8-.439,34.681,34.681,0,0,0-5.2-.674c-3.183-.363-6.366-.76-9.553-1.083a18.283,18.283,0,0,1-4.365-.565l0-.1a25.46,25.46,0,0,1-.226-2.969q-.259-3.342-.392-6.693a16.864,16.864,0,0,0-.316-3.679l-.018-.03c-.056-.37,4.839-13.917,5.29-15.609s-.414-4.065-.788-5.781c-.424-1.945-.81-3.909-1.3-5.838-.79-3.1-1.779-6.209-2.77-9.251a55.116,55.116,0,0,0-4.531-10.912c2.337-1.042,4.74-1.955,7.107-2.926,4.368-1.793,8.734-3.575,13.206-5.092a7.428,7.428,0,0,0,.949-1.306c1-1.39,3.444-4.042,4.98-4.718a6.443,6.443,0,0,1,1.5-.339,52.109,52.109,0,0,0,1.922-11.132Z" transform="translate(-4885.055 1349.893)" fill="#f0830d"/>
        <path id="Trazado_1175031" data-name="Trazado 1175031" d="M1786.032,3629.82c.466.281,3.772,0,4.528-.045-1.208,3.232-2.361,4.446-4.652,6.93-.849.92-1.678,1.907-2.585,2.769-1.023,1.4-6.526,7.862-7.85,7.93a1.188,1.188,0,0,1-.935-.423l-.055-.169a50.611,50.611,0,0,0-6.1-.062l.012-1.452a34.1,34.1,0,0,1-3.8-.438,34.554,34.554,0,0,0-5.2-.674c-3.183-.362-6.366-.76-9.553-1.083a18.32,18.32,0,0,1-4.365-.564l0-.1a25.468,25.468,0,0,1-.226-2.968q-.259-3.344-.392-6.693a84.636,84.636,0,0,0,8.756-.523l14.422-1.052C1769.961,3631.06,1785.127,3630.216,1786.032,3629.82Z" transform="translate(-4968.175 -52.306)" fill="#c0bdc1"/>
        <path id="Trazado_1175032" data-name="Trazado 1175032" d="M1757.07,3824.229a13.641,13.641,0,0,1,2.654-.216c1.981-.127,3.965-.248,5.944-.4l12.589-1.041c5.559-.41,11.108-.741,16.656-1.3-1.023,1.4-6.526,7.861-7.85,7.93a1.193,1.193,0,0,1-.936-.424l-.055-.169a50.514,50.514,0,0,0-6.1-.062l.012-1.452a34.081,34.081,0,0,1-3.795-.439,34.634,34.634,0,0,0-5.2-.673c-3.183-.362-6.366-.76-9.553-1.083a18.3,18.3,0,0,1-4.365-.564Z" transform="translate(-4979.766 -234.101)" fill="#f0830d"/>
        <path id="Trazado_1175033" data-name="Trazado 1175033" d="M2243.44,2816.609l.1,0c1.074.068,3.913,1.717,5.1,2.3,2.323,1.14,4.721,2.167,7.013,3.361a22.927,22.927,0,0,0,2.852,1.543c.364-.042,9.5-5.776,10.521-6.463a25.145,25.145,0,0,0,2.09-1.594,18.083,18.083,0,0,0,1.9.8c-.691,2.671-1.19,5.387-1.728,8.091l-2.862,14.733c-1.155,5.752-2.7,11.538-4.382,17.159l-.154.444c-.756.046-4.062.325-4.528.044q-1.237-4.429-2.67-8.8t-3.059-8.673q-1.626-4.3-3.442-8.528t-3.819-8.366C2245.4,2820.643,2244.5,2818.587,2243.44,2816.609Z" transform="translate(-5441.502 720.482)" fill="#fff"/>
        <path id="Trazado_1175034" data-name="Trazado 1175034" d="M2067.3,2152.77c4.126,3.777,10.922,8.471,16.723,8.232a10.622,10.622,0,0,0,1.672-.219c.2,1.545.494,4.2,1.385,5.47a26.279,26.279,0,0,1,5.554,4.493c.528.547,1.025,1.245,1.582,1.741.847,1.328,1.779,2.6,2.618,3.932a34.89,34.89,0,0,1,4.87,12.165,36.042,36.042,0,0,0-4.468-3.069,15.606,15.606,0,0,0-.429,1.634,18.184,18.184,0,0,1-1.9-.8,25.208,25.208,0,0,1-2.09,1.595c-1.023.686-10.157,6.42-10.522,6.462a23.011,23.011,0,0,1-2.851-1.543c-2.292-1.194-4.691-2.22-7.013-3.361-1.187-.582-4.024-2.231-5.1-2.3l-.1,0-.617-1.025c-1.274.967-3.611,3.127-5.113,3.41-.163-.054-.208-.043-.322-.184a1.994,1.994,0,0,1-.339-.815c-.633-2.9-1.1-5.853-1.644-8.768-.4-2.1-.9-4.195-1.219-6.313a7.91,7.91,0,0,1-.119-2.047,7.385,7.385,0,0,0,.949-1.306c1-1.39,3.444-4.042,4.98-4.718a6.437,6.437,0,0,1,1.5-.339,52.109,52.109,0,0,0,1.922-11.132Z" transform="translate(-5265.296 1349.893)" fill="#dc905e"/>
        <path id="Trazado_1175035" data-name="Trazado 1175035" d="M2243.17,2152.77c4.126,3.777,10.922,8.471,16.723,8.232a10.622,10.622,0,0,0,1.672-.219c.2,1.545.494,4.2,1.385,5.47.08.972.814,2.2.977,3.5l-.06.093c-.61.177-1.965-.639-2.58-.863a31.123,31.123,0,0,1-8.9-5.055,49.265,49.265,0,0,1-6.9-7.116c-.449-.56-1.842-2.642-2.4-2.853Z" transform="translate(-5441.165 1349.893)" fill="#b96d4b"/>
        <path id="Trazado_1175036" data-name="Trazado 1175036" d="M2065.289,2396.07a7.038,7.038,0,0,1-1.284,2.9,106.591,106.591,0,0,0,13.542,18.753c1.524,1.724,3.279,3.254,4.766,5a46.409,46.409,0,0,0,5.688-18.115,14.8,14.8,0,0,0,.063-3.837.3.3,0,0,0-.012-.037c-.162-1.3-.9-2.531-.977-3.5a26.285,26.285,0,0,1,5.553,4.493c.528.547,1.024,1.245,1.582,1.741.847,1.327,1.779,2.6,2.618,3.932a34.889,34.889,0,0,1,4.87,12.165,36.066,36.066,0,0,0-4.468-3.069,15.539,15.539,0,0,0-.428,1.634,17.933,17.933,0,0,1-1.9-.8,25.3,25.3,0,0,1-2.09,1.594c-1.023.686-10.158,6.42-10.522,6.463a22.983,22.983,0,0,1-2.852-1.543c-2.292-1.194-4.69-2.22-7.013-3.361-1.187-.582-4.025-2.231-5.1-2.3l-.1,0-.618-1.025c-1.274.967-3.61,3.127-5.113,3.41-.163-.054-.208-.043-.322-.184a1.994,1.994,0,0,1-.339-.815c-.633-2.9-1.1-5.853-1.644-8.768-.4-2.1-.9-4.195-1.219-6.313a7.9,7.9,0,0,1-.119-2.047,7.412,7.412,0,0,0,.949-1.306c1-1.39,3.444-4.042,4.98-4.718A6.414,6.414,0,0,1,2065.289,2396.07Z" transform="translate(-5265.292 1118.915)" fill="#fff"/>
        <path id="Trazado_1175037" data-name="Trazado 1175037" d="M2257.728,2755.26c1.358.685,2.739,1.689,4.14,2.23a15.677,15.677,0,0,0-.428,1.634,18.154,18.154,0,0,1-1.9-.8,25.46,25.46,0,0,1-2.09,1.595c-1.024.686-10.158,6.42-10.522,6.462a23.018,23.018,0,0,1-2.852-1.543c-2.292-1.194-4.69-2.22-7.013-3.361-1.186-.583-4.025-2.231-5.1-2.3-.032,0-.065,0-.1,0l-.618-1.026a8.775,8.775,0,0,1,2.118-1.106c2.423,1.7,4.885,3.3,7.39,4.88a41.475,41.475,0,0,1,5.981,4.1c.79-.647,1.52-1.377,2.287-2.053,1.613-1.421,3.254-2.826,4.75-4.371C2255.136,2758.189,2256.4,2756.694,2257.728,2755.26Z" transform="translate(-5429.928 777.917)" fill="#c0bdc1"/>
      </g>
    </g>
    <g id="bombillas" transform="matrix(0.966, 0.259, -0.259, 0.966, 292.333, 5527.944)">
      <path id="Trazado_1175688" data-name="Trazado 1175688" d="M114.9,197.322h-9.723a1.523,1.523,0,1,0,0,3.045h14.291a1.523,1.523,0,1,0,0-3.045H114.9Z" transform="translate(-55.897 -142.927)" fill="#87796f"/>
      <path id="Trazado_1175689" data-name="Trazado 1175689" d="M118.288,199.515H104a1.847,1.847,0,1,1,0-3.693h14.291a1.847,1.847,0,0,1,0,3.693ZM104,196.47a1.2,1.2,0,0,0,0,2.4h14.291a1.2,1.2,0,1,0,0-2.4Z" transform="translate(-54.72 -141.75)" fill="#3a312a"/>
      <path id="Trazado_1175690" data-name="Trazado 1175690" d="M98.342,33.806A17.276,17.276,0,1,0,68.427,45.579a23.908,23.908,0,0,1,5.479,9.965l.007.025,0,0h14.3l.057-.206a24.515,24.515,0,0,1,5.572-9.942,17.2,17.2,0,0,0,4.494-11.619Z" transform="translate(-24.644 -1.177)" fill="#ffe000"/>
      <path id="Trazado_1175691" data-name="Trazado 1175691" d="M87.043,54.719h-14.3a.324.324,0,0,1-.2-.071.34.34,0,0,1-.114-.17l-.007-.025a23.677,23.677,0,0,0-5.4-9.831A17.493,17.493,0,0,1,62.3,32.006,17.7,17.7,0,0,1,78.939,15.054,17.6,17.6,0,0,1,92.911,44.466a24.343,24.343,0,0,0-5.5,9.81l-.057.206a.324.324,0,0,1-.312.238Zm-14.06-.648H86.8A25,25,0,0,1,92.433,44.03a16.953,16.953,0,1,0-24.945.151A24.291,24.291,0,0,1,72.983,54.072Z" transform="translate(-23.468)" fill="#3a312a"/>
      <path id="Trazado_1175692" data-name="Trazado 1175692" d="M110.729,214.469h8.735a1.523,1.523,0,1,0,0-3.045H105.174a1.523,1.523,0,0,0,0,3.045h5.555Z" transform="translate(-55.897 -153.983)" fill="#87796f"/>
      <path id="Trazado_1175693" data-name="Trazado 1175693" d="M118.288,213.617h-8.736a.324.324,0,1,1,0-.648h8.736a1.2,1.2,0,0,0,0-2.4H104a1.2,1.2,0,1,0,0,2.4h2.6a.324.324,0,1,1,0,.648H104a1.847,1.847,0,1,1,0-3.693h14.291a1.847,1.847,0,0,1,0,3.693Z" transform="translate(-54.72 -152.807)" fill="#3a312a"/>
      <path id="Trazado_1175694" data-name="Trazado 1175694" d="M113.918,225.526h-2.432a3.011,3.011,0,0,0,3.011,3.011h7.93a3.011,3.011,0,0,0,3.011-3.011h-11.52Z" transform="translate(-62.04 -165.04)" fill="#87796f"/>
      <path id="Trazado_1175695" data-name="Trazado 1175695" d="M121.251,227.685h-7.93a3.339,3.339,0,0,1-3.335-3.335.324.324,0,0,1,.324-.324h2.432a.324.324,0,1,1,0,.648h-2.089a2.691,2.691,0,0,0,2.668,2.363h7.93a2.691,2.691,0,0,0,2.668-2.363H115.7a.324.324,0,1,1,0-.648h8.566a.324.324,0,0,1,.324.324A3.339,3.339,0,0,1,121.251,227.685Z" transform="translate(-60.863 -163.864)" fill="#3a312a"/>
      <path id="Trazado_1175696" data-name="Trazado 1175696" d="M130.517,141.75h-4.031a.324.324,0,0,1-.324-.324v-4.681a3.507,3.507,0,0,0-.857-2.3,4.155,4.155,0,0,1-1.015-2.721v-5.374a.324.324,0,0,1,.324-.324h2.767a.324.324,0,0,1,0,.648h-2.443v5.05a3.507,3.507,0,0,0,.857,2.3,4.155,4.155,0,0,1,1.015,2.721V141.1h3.383v-4.357a4.155,4.155,0,0,1,1.015-2.721,3.506,3.506,0,0,0,.857-2.3v-5.05h-1.035a.324.324,0,1,1,0-.648h1.359a.324.324,0,0,1,.324.324v5.374a4.155,4.155,0,0,1-1.015,2.721,3.507,3.507,0,0,0-.856,2.3v4.681A.324.324,0,0,1,130.517,141.75Z" transform="translate(-72.079 -87.03)" fill="#3a312a"/>
      <path id="Trazado_1175697" data-name="Trazado 1175697" d="M149.63,22.679a16.827,16.827,0,0,0-12.583-4.628c-.231.013-.46.028-.687.052A16.951,16.951,0,0,1,147.268,46.38a25.031,25.031,0,0,0-5.636,10.042h3.239a25.032,25.032,0,0,1,5.636-10.042,16.948,16.948,0,0,0-.877-23.7Z" transform="translate(-81.542 -2.35)" fill="#e1c200"/>
    </g>
  </g>
</svg>
