<svg xmlns="http://www.w3.org/2000/svg" xmlns:xlink="http://www.w3.org/1999/xlink" width="103" height="103" viewBox="0 0 103 103">
  <defs>
    <filter id="Trazado_978624" x="0" y="0" width="103" height="103" filterUnits="userSpaceOnUse">
      <feOffset dy="3" input="SourceAlpha"/>
      <feGaussianBlur stdDeviation="3" result="blur"/>
      <feFlood flood-opacity="0.161"/>
      <feComposite operator="in" in2="blur"/>
      <feComposite in="SourceGraphic"/>
    </filter>
  </defs>
  <g id="Grupo_1231807" data-name="Grupo 1231807" transform="translate(-193.563 -1888)">
    <g id="Grupo_1220583" data-name="Grupo 1220583" transform="translate(202.563 1894)">
      <g id="Grupo_1218068" data-name="Grupo 1218068">
        <g id="Grupo_1213565" data-name="Grupo 1213565">
          <g id="Grupo_1210098" data-name="Grupo 1210098">
            <g id="Grupo_1178144" data-name="Grupo 1178144">
              <g id="Grupo_1177896" data-name="Grupo 1177896">
                <g id="Grupo_1176881" data-name="Grupo 1176881">
                  <g id="Grupo_1175148" data-name="Grupo 1175148">
                    <g id="Grupo_1173798" data-name="Grupo 1173798">
                      <g id="Grupo_1171925" data-name="Grupo 1171925">
                        <g id="Grupo_1164524" data-name="Grupo 1164524">
                          <g id="Grupo_1144123" data-name="Grupo 1144123">
                            <g transform="matrix(1, 0, 0, 1, -9, -6)" filter="url(#Trazado_978624)">
                              <g id="Trazado_978624-2" data-name="Trazado 978624" transform="translate(9 6)" fill="#f6f6f6">
                                <path d="M 42.5 83.5 C 36.96437835693359 83.5 31.59512901306152 82.41617584228516 26.54141235351562 80.27863311767578 C 21.65934181213379 78.21369171142578 17.27447128295898 75.25723266601562 13.50862312316895 71.49137878417969 C 9.742764472961426 67.72553253173828 6.786305904388428 63.34066009521484 4.721364498138428 58.45858764648438 C 2.583823442459106 53.40486907958984 1.5 48.03562164306641 1.5 42.5 C 1.5 36.96437835693359 2.583823442459106 31.59512901306152 4.721364498138428 26.54141235351562 C 6.786305904388428 21.65934181213379 9.742764472961426 17.27447128295898 13.50862312316895 13.50862312316895 C 17.27447128295898 9.742764472961426 21.65934181213379 6.786305904388428 26.54141235351562 4.721364498138428 C 31.59512901306152 2.583823442459106 36.96437835693359 1.5 42.5 1.5 C 48.03562164306641 1.5 53.40486907958984 2.583823442459106 58.45858764648438 4.721364498138428 C 63.34066009521484 6.786305904388428 67.72553253173828 9.742764472961426 71.49137878417969 13.50862312316895 C 75.25723266601562 17.27447128295898 78.21369171142578 21.65934181213379 80.27863311767578 26.54141235351562 C 82.41617584228516 31.59512901306152 83.5 36.96437835693359 83.5 42.5 C 83.5 48.03562164306641 82.41617584228516 53.40486907958984 80.27863311767578 58.45858764648438 C 78.21369171142578 63.34066009521484 75.25723266601562 67.72553253173828 71.49137878417969 71.49137878417969 C 67.72553253173828 75.25723266601562 63.34066009521484 78.21369171142578 58.45858764648438 80.27863311767578 C 53.40486907958984 82.41617584228516 48.03562164306641 83.5 42.5 83.5 Z" stroke="none"/>
                                <path d="M 42.5 3 C 37.16621398925781 3 31.99356079101562 4.043960571289062 27.125732421875 6.102882385253906 C 22.42246627807617 8.092185974121094 18.19785308837891 10.94070434570312 14.56928253173828 14.56928253173828 C 10.94070434570312 18.19785308837891 8.092185974121094 22.42246627807617 6.102882385253906 27.125732421875 C 4.043960571289062 31.99356079101562 3 37.16621398925781 3 42.5 C 3 47.83378601074219 4.043960571289062 53.00643920898438 6.102882385253906 57.87425231933594 C 8.092185974121094 62.57753372192383 10.94070434570312 66.80213165283203 14.56928253173828 70.43071746826172 C 18.19786834716797 74.05929565429688 22.42246627807617 76.90781402587891 27.125732421875 78.89711761474609 C 31.99356079101562 80.95603942871094 37.16621398925781 82 42.5 82 C 47.83378601074219 82 53.00642395019531 80.95603942871094 57.87425231933594 78.89711761474609 C 62.57753372192383 76.90781402587891 66.80213165283203 74.05929565429688 70.43071746826172 70.43071746826172 C 74.05929565429688 66.80213165283203 76.90781402587891 62.57753372192383 78.89711761474609 57.87425231933594 C 80.95603942871094 53.00642395019531 82 47.83378601074219 82 42.5 C 82 37.16621398925781 80.95603942871094 31.99356079101562 78.89711761474609 27.125732421875 C 76.90781402587891 22.42246627807617 74.05929565429688 18.19786834716797 70.43071746826172 14.56928253173828 C 66.80213165283203 10.94070434570312 62.57753372192383 8.092185974121094 57.87425231933594 6.102882385253906 C 53.00643920898438 4.043960571289062 47.83378601074219 3 42.5 3 M 42.5 0 C 65.97209167480469 0 85 19.02789306640625 85 42.5 C 85 65.97209167480469 65.97209167480469 85 42.5 85 C 19.02789306640625 85 0 65.97209167480469 0 42.5 C 0 19.02789306640625 19.02789306640625 0 42.5 0 Z" stroke="none" fill="#605f5f"/>
                              </g>
                            </g>
                          </g>
                        </g>
                      </g>
                    </g>
                  </g>
                </g>
              </g>
            </g>
          </g>
        </g>
      </g>
    </g>
    <g id="mundo_1_" data-name="mundo (1)" transform="translate(151.29 1906.385)">
      <g id="Grupo_1231805" data-name="Grupo 1231805" transform="translate(73.026 0.882)">
        <path id="Trazado_1175643" data-name="Trazado 1175643" d="M163.578,15.045a3.772,3.772,0,1,1,3.772-3.772A3.772,3.772,0,0,1,163.578,15.045Z" transform="translate(-150.376 -7.501)" fill="#ffd18d"/>
        <path id="Trazado_1175644" data-name="Trazado 1175644" d="M164.047,100.392a4.715,4.715,0,0,0-4.715-4.715H155.56a4.715,4.715,0,0,0-4.715,4.715h-1.886a4.715,4.715,0,0,0-4.715-4.715h-3.772a4.715,4.715,0,0,0-4.715,4.715l1.265,7.3,27.025.767v-8.068Z" transform="translate(-129.156 -85.304)" fill="#b8eb7c"/>
        <g id="Grupo_1231804" data-name="Grupo 1231804" transform="translate(6.601 10.771)">
          <path id="Trazado_1175645" data-name="Trazado 1175645" d="M135.758,103.378V111.5h2.829V99.061A4.712,4.712,0,0,0,135.758,103.378Z" transform="translate(-135.758 -99.061)" fill="#98db7c"/>
        </g>
        <path id="Trazado_1175646" data-name="Trazado 1175646" d="M165.114,16.974a3.772,3.772,0,0,1-3.772-3.772,3.73,3.73,0,0,1,.462-1.774,3.76,3.76,0,1,0,5.084,5.084A3.729,3.729,0,0,1,165.114,16.974Z" transform="translate(-150.376 -10.966)" fill="#fbbd80"/>
        <circle id="Elipse_12643" data-name="Elipse 12643" cx="20.746" cy="20.746" r="20.746" transform="translate(0 16.974)" fill="#7ad7ee"/>
        <path id="Trazado_1175647" data-name="Trazado 1175647" d="M106.049,214.04a20.747,20.747,0,0,1-17.224-32.312,20.747,20.747,0,1,0,28.79,28.79A20.649,20.649,0,0,1,106.049,214.04Z" transform="translate(-79.645 -161.233)" fill="#4bc3ef"/>
        <path id="Trazado_1175648" data-name="Trazado 1175648" d="M234.781,93.32a2.829,2.829,0,1,1,2.829-2.829A2.829,2.829,0,0,1,234.781,93.32Z" transform="translate(-214.035 -78.232)" fill="#f4aa73"/>
        <path id="Trazado_1175649" data-name="Trazado 1175649" d="M236.127,94.061a2.813,2.813,0,0,1-2.551-4.033,2.823,2.823,0,1,0,3.755,3.755A2.8,2.8,0,0,1,236.127,94.061Z" transform="translate(-214.035 -80.32)" fill="#e29a6c"/>
        <path id="Trazado_1175650" data-name="Trazado 1175650" d="M291.838,15.045a3.772,3.772,0,1,0-3.772-3.772A3.772,3.772,0,0,0,291.838,15.045Z" transform="translate(-263.548 -7.501)" fill="#d48c64"/>
        <path id="Trazado_1175651" data-name="Trazado 1175651" d="M293.372,16.974A3.772,3.772,0,0,1,289.6,13.2a3.73,3.73,0,0,1,.462-1.774,3.76,3.76,0,1,0,5.084,5.084,3.729,3.729,0,0,1-1.774.462Z" transform="translate(-263.546 -10.966)" fill="#c6805d"/>
        <path id="Trazado_1175652" data-name="Trazado 1175652" d="M221.544,159.806h-1.886a3.772,3.772,0,0,0-3.772,3.772l2.833,1.886h6.6v-1.886A3.772,3.772,0,0,0,221.544,159.806Z" transform="translate(-199.859 -141.889)" fill="#98db7c"/>
        <path id="Trazado_1175653" data-name="Trazado 1175653" d="M218.719,160.93a3.763,3.763,0,0,0-2.833,3.64v1.886h2.833Z" transform="translate(-199.859 -142.881)" fill="#77cc7d"/>
      </g>
      <g id="Grupo_1231806" data-name="Grupo 1231806" transform="translate(72.144)">
        <path id="Trazado_1175654" data-name="Trazado 1175654" d="M228.129,87.584a3.711,3.711,0,1,0-3.711-3.711A3.715,3.715,0,0,0,228.129,87.584Zm0-5.658a1.947,1.947,0,1,1-1.947,1.947A1.949,1.949,0,0,1,228.129,81.926Z" transform="translate(-206.505 -70.731)"/>
        <path id="Trazado_1175655" data-name="Trazado 1175655" d="M218.7,159.729a.882.882,0,0,0,.882-.882v-1.886a4.659,4.659,0,0,0-4.654-4.654H213.04a4.659,4.659,0,0,0-4.654,4.654v1.886a.882.882,0,1,0,1.765,0v-1.886a2.893,2.893,0,0,1,2.89-2.89h1.886a2.893,2.893,0,0,1,2.89,2.89v1.886A.882.882,0,0,0,218.7,159.729Z" transform="translate(-192.359 -134.39)"/>
        <path id="Trazado_1175656" data-name="Trazado 1175656" d="M285.185,9.308a4.654,4.654,0,1,0-4.654-4.654A4.66,4.66,0,0,0,285.185,9.308Zm0-7.544a2.89,2.89,0,1,1-2.89,2.89A2.893,2.893,0,0,1,285.185,1.765Z" transform="translate(-256.017)"/>
        <path id="Trazado_1175657" data-name="Trazado 1175657" d="M297.445,88.177a.882.882,0,0,0,0,1.765h3.772a3.837,3.837,0,0,1,3.833,3.833V96.6a.882.882,0,1,0,1.765,0V93.774a5.6,5.6,0,0,0-5.6-5.6Z" transform="translate(-270.163 -77.804)"/>
        <path id="Trazado_1175658" data-name="Trazado 1175658" d="M156.927,9.308a4.654,4.654,0,1,0-4.654-4.654A4.659,4.659,0,0,0,156.927,9.308Zm0-7.544a2.89,2.89,0,1,1-2.89,2.89A2.893,2.893,0,0,1,156.927,1.765Z" transform="translate(-142.847)"/>
        <path id="Trazado_1175659" data-name="Trazado 1175659" d="M129.107,97.486a.882.882,0,0,0,.882-.882V93.775a3.837,3.837,0,0,1,3.833-3.833h3.772a.882.882,0,0,0,0-1.765h-3.772a5.6,5.6,0,0,0-5.6,5.6V96.6A.882.882,0,0,0,129.107,97.486Z" transform="translate(-121.628 -77.805)"/>
        <path id="Trazado_1175660" data-name="Trazado 1175660" d="M111.539,164.242a21.609,21.609,0,0,0-9.9-7.814.882.882,0,1,0-.642,1.643,19.849,19.849,0,0,1,9.1,7.178l.047.07h-4.326a22.594,22.594,0,0,0-2.251-4.327.882.882,0,1,0-1.463.987,20.381,20.381,0,0,1,1.805,3.339H94.655v-2.89a.882.882,0,1,0-1.765,0v2.89H83.645a20.224,20.224,0,0,1,1.8-3.339.882.882,0,1,0-1.463-.987,22.679,22.679,0,0,0-2.259,4.327H77.407l.047-.07a19.849,19.849,0,0,1,9.1-7.178.882.882,0,0,0-.642-1.643,21.629,21.629,0,1,0,25.631,7.814Zm-.321,21.823h-4.774a31.337,31.337,0,0,0,1.4-8.608h5.771A19.725,19.725,0,0,1,111.218,186.065ZM94.655,196.387V187.83h9.255a20.883,20.883,0,0,1-1.547,2.941C100.251,194.089,97.541,196.054,94.655,196.387Zm0-10.322v-8.608h11.425a29.271,29.271,0,0,1-1.49,8.608Zm-20.725-8.608H79.7a31.239,31.239,0,0,0,1.4,8.608H76.327A19.728,19.728,0,0,1,73.929,177.457Zm7.536,0H92.89v8.608H82.961A29.185,29.185,0,0,1,81.465,177.457Zm23.116-10.373a27.467,27.467,0,0,1,1.027,3.989.882.882,0,0,0,.867.726.9.9,0,0,0,.157-.014.882.882,0,0,0,.712-1.025,29.482,29.482,0,0,0-.907-3.676h4.786a19.7,19.7,0,0,1,2.392,8.608h-5.771c-.009-.353-.023-.705-.043-1.054a.882.882,0,0,0-1.762.1c.018.316.031.634.04.953H94.655v-8.608Zm-11.691,0v8.608H81.466a29.546,29.546,0,0,1,1.5-8.608Zm-11.793,0a31.263,31.263,0,0,0-1.4,8.608H73.929a19.7,19.7,0,0,1,2.392-8.608ZM77.415,187.83h4.314q.278.7.592,1.377a.882.882,0,0,0,1.6-.747q-.146-.312-.282-.631H92.89v8.555a10.458,10.458,0,0,1-6.9-4.452A.882.882,0,0,0,84.582,193a16.157,16.157,0,0,0,1.8,2.012A19.977,19.977,0,0,1,77.415,187.83ZM101.182,195a17.351,17.351,0,0,0,2.67-3.286,23.024,23.024,0,0,0,1.966-3.888h4.312A19.975,19.975,0,0,1,101.182,195Z" transform="translate(-72.144 -137.973)"/>
      </g>
    </g>
  </g>
</svg>
