<svg xmlns="http://www.w3.org/2000/svg" xmlns:xlink="http://www.w3.org/1999/xlink" width="103" height="103" viewBox="0 0 103 103">
  <defs>
    <filter id="Trazado_978624" x="0" y="0" width="103" height="103" filterUnits="userSpaceOnUse">
      <feOffset dy="3" input="SourceAlpha"/>
      <feGaussianBlur stdDeviation="3" result="blur"/>
      <feFlood flood-opacity="0.161"/>
      <feComposite operator="in" in2="blur"/>
      <feComposite in="SourceGraphic"/>
    </filter>
  </defs>
  <g id="Grupo_1231451" data-name="Grupo 1231451" transform="translate(-615.125 -1680)">
    <g id="Grupo_1220054" data-name="Grupo 1220054" transform="translate(624.125 1686)">
      <g id="Grupo_1218068" data-name="Grupo 1218068">
        <g id="Grupo_1213565" data-name="Grupo 1213565">
          <g id="Grupo_1210098" data-name="Grupo 1210098">
            <g id="Grupo_1178144" data-name="Grupo 1178144">
              <g id="Grupo_1177896" data-name="Grupo 1177896">
                <g id="Grupo_1176881" data-name="Grupo 1176881">
                  <g id="Grupo_1175148" data-name="Grupo 1175148">
                    <g id="Grupo_1173798" data-name="Grupo 1173798">
                      <g id="Grupo_1171925" data-name="Grupo 1171925">
                        <g id="Grupo_1164524" data-name="Grupo 1164524">
                          <g id="Grupo_1144123" data-name="Grupo 1144123">
                            <g transform="matrix(1, 0, 0, 1, -9, -6)" filter="url(#Trazado_978624)">
                              <g id="Trazado_978624-2" data-name="Trazado 978624" transform="translate(9 6)" fill="#f6f6f6">
                                <path d="M 42.5 83.5 C 36.96437835693359 83.5 31.59512901306152 82.41617584228516 26.54141235351562 80.27863311767578 C 21.65934181213379 78.21369171142578 17.27447128295898 75.25723266601562 13.50862312316895 71.49137878417969 C 9.742764472961426 67.72553253173828 6.786305904388428 63.34066009521484 4.721364498138428 58.45858764648438 C 2.583823442459106 53.40486907958984 1.5 48.03562164306641 1.5 42.5 C 1.5 36.96437835693359 2.583823442459106 31.59512901306152 4.721364498138428 26.54141235351562 C 6.786305904388428 21.65934181213379 9.742764472961426 17.27447128295898 13.50862312316895 13.50862312316895 C 17.27447128295898 9.742764472961426 21.65934181213379 6.786305904388428 26.54141235351562 4.721364498138428 C 31.59512901306152 2.583823442459106 36.96437835693359 1.5 42.5 1.5 C 48.03562164306641 1.5 53.40486907958984 2.583823442459106 58.45858764648438 4.721364498138428 C 63.34066009521484 6.786305904388428 67.72553253173828 9.742764472961426 71.49137878417969 13.50862312316895 C 75.25723266601562 17.27447128295898 78.21369171142578 21.65934181213379 80.27863311767578 26.54141235351562 C 82.41617584228516 31.59512901306152 83.5 36.96437835693359 83.5 42.5 C 83.5 48.03562164306641 82.41617584228516 53.40486907958984 80.27863311767578 58.45858764648438 C 78.21369171142578 63.34066009521484 75.25723266601562 67.72553253173828 71.49137878417969 71.49137878417969 C 67.72553253173828 75.25723266601562 63.34066009521484 78.21369171142578 58.45858764648438 80.27863311767578 C 53.40486907958984 82.41617584228516 48.03562164306641 83.5 42.5 83.5 Z" stroke="none"/>
                                <path d="M 42.5 3 C 37.16621398925781 3 31.99356079101562 4.043960571289062 27.125732421875 6.102882385253906 C 22.42246627807617 8.092185974121094 18.19785308837891 10.94070434570312 14.56928253173828 14.56928253173828 C 10.94070434570312 18.19785308837891 8.092185974121094 22.42246627807617 6.102882385253906 27.125732421875 C 4.043960571289062 31.99356079101562 3 37.16621398925781 3 42.5 C 3 47.83378601074219 4.043960571289062 53.00643920898438 6.102882385253906 57.87425231933594 C 8.092185974121094 62.57753372192383 10.94070434570312 66.80213165283203 14.56928253173828 70.43071746826172 C 18.19786834716797 74.05929565429688 22.42246627807617 76.90781402587891 27.125732421875 78.89711761474609 C 31.99356079101562 80.95603942871094 37.16621398925781 82 42.5 82 C 47.83378601074219 82 53.00642395019531 80.95603942871094 57.87425231933594 78.89711761474609 C 62.57753372192383 76.90781402587891 66.80213165283203 74.05929565429688 70.43071746826172 70.43071746826172 C 74.05929565429688 66.80213165283203 76.90781402587891 62.57753372192383 78.89711761474609 57.87425231933594 C 80.95603942871094 53.00642395019531 82 47.83378601074219 82 42.5 C 82 37.16621398925781 80.95603942871094 31.99356079101562 78.89711761474609 27.125732421875 C 76.90781402587891 22.42246627807617 74.05929565429688 18.19786834716797 70.43071746826172 14.56928253173828 C 66.80213165283203 10.94070434570312 62.57753372192383 8.092185974121094 57.87425231933594 6.102882385253906 C 53.00643920898438 4.043960571289062 47.83378601074219 3 42.5 3 M 42.5 0 C 65.97209167480469 0 85 19.02789306640625 85 42.5 C 85 65.97209167480469 65.97209167480469 85 42.5 85 C 19.02789306640625 85 0 65.97209167480469 0 42.5 C 0 19.02789306640625 19.02789306640625 0 42.5 0 Z" stroke="none" fill="#b0aeae"/>
                              </g>
                            </g>
                          </g>
                        </g>
                      </g>
                    </g>
                  </g>
                </g>
              </g>
            </g>
          </g>
        </g>
      </g>
    </g>
    <g id="rueda-dentada" transform="translate(640.376 1701)">
      <g id="Grupo_1231449" data-name="Grupo 1231449" transform="translate(0.847 0.847)">
        <g id="Grupo_1231437" data-name="Grupo 1231437" transform="translate(13.548 42.337)">
          <path id="Trazado_1175038" data-name="Trazado 1175038" d="M173.257,408v3.387c0,2.806-8.34,5.08-18.628,5.08S136,414.193,136,411.387V408c0,2.806,8.34,5.08,18.628,5.08S173.257,410.806,173.257,408Z" transform="translate(-136 -408)" fill="#aab2bd"/>
        </g>
        <g id="Grupo_1231438" data-name="Grupo 1231438" transform="translate(13.548 38.709)">
          <path id="Trazado_1175039" data-name="Trazado 1175039" d="M167.666,373.72c3.45.922,5.591,2.207,5.591,3.628,0,2.806-8.34,5.08-18.628,5.08S136,380.154,136,377.348c0-1.421,2.14-2.706,5.591-3.628l2.261,2.261,1.8-1.2a16.817,16.817,0,0,0,5.161,2.14l.424,2.124h6.774l.424-2.124a16.818,16.818,0,0,0,5.161-2.14l1.8,1.2Z" transform="translate(-136 -373.72)" fill="#ccd1d9"/>
        </g>
        <g id="Grupo_1231439" data-name="Grupo 1231439" transform="translate(16.609 6.774)">
          <path id="Trazado_1175040" data-name="Trazado 1175040" d="M199.116,87.241v6.774l-2.124.424a16.817,16.817,0,0,1-2.14,5.161l1.2,1.8-2.53,2.53-2.261,2.261-1.8-1.2a16.817,16.817,0,0,1-5.161,2.14l-.424,2.124H177.1l-.424-2.124a16.817,16.817,0,0,1-5.161-2.14l-1.8,1.2-2.261-2.261-2.53-2.53,1.2-1.8a16.888,16.888,0,0,1-1.167-2.213,5.782,5.782,0,0,0,3.677-1.679h1.141a11.858,11.858,0,0,0,21.426,0h0a11.881,11.881,0,0,0,0-10.161h0a11.858,11.858,0,0,0-21.426,0h-1.141l-3.4-2.27a16.742,16.742,0,0,1,.9-1.622l-1.2-1.8,4.79-4.79,1.8,1.2a16.817,16.817,0,0,1,5.161-2.14L177.1,72h6.774l.424,2.124a16.817,16.817,0,0,1,5.161,2.14l1.8-1.2,4.79,4.79-1.2,1.8a16.817,16.817,0,0,1,2.14,5.161Z" transform="translate(-164.92 -72)" fill="#fcd770"/>
        </g>
        <g id="Grupo_1231440" data-name="Grupo 1231440" transform="translate(20.322 20.322)">
          <path id="Trazado_1175041" data-name="Trazado 1175041" d="M222.568,200a11.881,11.881,0,0,1,0,10.161H200V200h22.567Z" transform="translate(-200 -200)" fill="#b4dd7f"/>
        </g>
        <g id="Grupo_1231441" data-name="Grupo 1231441" transform="translate(5.08 20.322)">
          <path id="Trazado_1175042" data-name="Trazado 1175042" d="M62.774,211.854v1.694a1.693,1.693,0,0,1-1.693,1.693H57.693A1.693,1.693,0,0,1,56,213.548v-1.694h1.693a1.693,1.693,0,1,0,0-3.387,1.693,1.693,0,0,0,0-3.387,1.693,1.693,0,1,0,0-3.387A1.693,1.693,0,0,0,59.387,200h3.387Z" transform="translate(-56 -200)" fill="#ccd1d9"/>
        </g>
        <g id="Grupo_1231442" data-name="Grupo 1231442">
          <path id="Trazado_1175043" data-name="Trazado 1175043" d="M24.935,13.08v3.387a5.08,5.08,0,0,1-5.08,5.08H13.08A5.08,5.08,0,0,1,8,16.467V13.08A5.08,5.08,0,0,1,13.08,8v5.08h6.774V8a5.081,5.081,0,0,1,5.08,5.08Z" transform="translate(-8 -8)" fill="#ccd1d9"/>
        </g>
        <g id="Grupo_1231443" data-name="Grupo 1231443" transform="translate(5.08 13.548)">
          <path id="Trazado_1175044" data-name="Trazado 1175044" d="M62.774,136v3.387H56.847a.846.846,0,0,0-.847.847V136Z" transform="translate(-56 -136)" fill="#ccd1d9"/>
        </g>
        <g id="Grupo_1231444" data-name="Grupo 1231444" transform="translate(5.08 16.935)">
          <path id="Trazado_1175045" data-name="Trazado 1175045" d="M62.774,171.387H58.54a2.539,2.539,0,0,1-2.54-2.54.846.846,0,0,1,.847-.847h8.289a3.388,3.388,0,0,1,1.879.568l.822.548,3.4,2.27v10.161a5.782,5.782,0,0,1-3.677,1.679c-.137.01-.274.015-.412.015H62.774Z" transform="translate(-56 -168)" fill="#f0d0b4"/>
        </g>
        <g id="Grupo_1231445" data-name="Grupo 1231445" transform="translate(1.693 25.402)">
          <path id="Trazado_1175046" data-name="Trazado 1175046" d="M29.08,248a1.693,1.693,0,1,1,0,3.387H25.693a1.693,1.693,0,1,1,0-3.387Z" transform="translate(-24 -248)" fill="#f0d0b4"/>
        </g>
        <g id="Grupo_1231446" data-name="Grupo 1231446" transform="translate(1.693 28.789)">
          <path id="Trazado_1175047" data-name="Trazado 1175047" d="M29.08,280a1.693,1.693,0,1,1,0,3.387H25.693a1.693,1.693,0,1,1,0-3.387Z" transform="translate(-24 -280)" fill="#f0d0b4"/>
        </g>
        <g id="Grupo_1231447" data-name="Grupo 1231447" transform="translate(1.693 22.015)">
          <path id="Trazado_1175048" data-name="Trazado 1175048" d="M29.08,216a1.693,1.693,0,1,1,0,3.387H25.693a1.693,1.693,0,1,1,0-3.387Z" transform="translate(-24 -216)" fill="#f0d0b4"/>
        </g>
        <g id="Grupo_1231448" data-name="Grupo 1231448" transform="translate(1.693 18.628)">
          <path id="Trazado_1175049" data-name="Trazado 1175049" d="M29.927,185.693h.847a1.693,1.693,0,0,1-1.693,1.693H25.693a1.693,1.693,0,1,1,0-3.387h1.838A2.542,2.542,0,0,0,29.927,185.693Z" transform="translate(-24 -184)" fill="#f0d0b4"/>
        </g>
      </g>
      <g id="Grupo_1231450" data-name="Grupo 1231450" transform="translate(0 0)">
        <ellipse id="Elipse_12634" data-name="Elipse 12634" cx="0.5" cy="1.5" rx="0.5" ry="1.5" transform="translate(32 10)"/>
        <path id="Trazado_1175050" data-name="Trazado 1175050" d="M203.024,138.177a.847.847,0,1,0,.6.248A.844.844,0,0,0,203.024,138.177Z" transform="translate(-180.778 -123.552)"/>
        <path id="Trazado_1175051" data-name="Trazado 1175051" d="M203.024,341.823a.847.847,0,1,0,.6.248A.844.844,0,0,0,203.024,341.823Z" transform="translate(-180.778 -305.643)"/>
        <ellipse id="Elipse_12635" data-name="Elipse 12635" cx="0.5" cy="1.5" rx="0.5" ry="1.5" transform="translate(32 40)"/>
        <path id="Trazado_1175052" data-name="Trazado 1175052" d="M406.67,341.823a.847.847,0,1,0,.6.248A.844.844,0,0,0,406.67,341.823Z" transform="translate(-362.87 -305.643)"/>
        <ellipse id="Elipse_12636" data-name="Elipse 12636" cx="1" cy="0.5" rx="1" ry="0.5" transform="translate(47 26)"/>
        <path id="Trazado_1175053" data-name="Trazado 1175053" d="M406.67,138.177a.847.847,0,1,0,.6.248A.844.844,0,0,0,406.67,138.177Z" transform="translate(-362.87 -123.552)"/>
        <path id="Trazado_1175054" data-name="Trazado 1175054" d="M52.5,30.33V22.168l-2.278-.456A17.638,17.638,0,0,0,48.39,17.3l1.29-1.935L43.908,9.592l-1.935,1.29a17.634,17.634,0,0,0-4.414-1.83L37.1,6.774H28.942l-.456,2.278a17.642,17.642,0,0,0-4.414,1.83l-1.935-1.29-5.772,5.772,1.29,1.935c-.072.123-.141.246-.21.371l-.035-.024a4.22,4.22,0,0,0-2.348-.711H13.548V15.18a5.936,5.936,0,0,0,5.08-5.866V5.927A5.934,5.934,0,0,0,12.7,0h-.847V5.08H6.774V0H5.927A5.934,5.934,0,0,0,0,5.927V9.314A5.935,5.935,0,0,0,5.08,15.18v3.448H4.234a2.539,2.539,0,0,0-1.891,4.234,2.534,2.534,0,0,0,0,3.387,2.534,2.534,0,0,0,0,3.387A2.539,2.539,0,0,0,4.234,33.87H5.08v.847a2.543,2.543,0,0,0,2.54,2.54h3.387a2.543,2.543,0,0,0,2.54-2.54V33.87h3.407c.215.452.449.9.7,1.329l-1.29,1.935,2.015,2.015c-3.169,1.05-4.834,2.432-4.834,4.035v3.387c0,3.891,9.8,5.927,19.475,5.927S52.5,50.462,52.5,46.571V43.184c0-1.6-1.664-2.985-4.834-4.035l2.015-2.015L48.39,35.2a17.638,17.638,0,0,0,1.831-4.414ZM6.774,16.935V15.241h5.08v1.693ZM1.693,9.314V5.927A4.241,4.241,0,0,1,5.08,1.779v5h8.467v-5a4.241,4.241,0,0,1,3.387,4.149V9.314A4.239,4.239,0,0,1,12.7,13.548H5.927A4.239,4.239,0,0,1,1.693,9.314Zm2.54,11.008h1.3A3.4,3.4,0,0,0,7.9,21.967a.841.841,0,0,1-.28.048H4.234a.847.847,0,1,1,0-1.693Zm-.847,7.621a.848.848,0,0,1,.847-.847H7.621a.847.847,0,0,1,0,1.693H4.234A.848.848,0,0,1,3.387,27.943Zm0-3.387a.848.848,0,0,1,.847-.847H7.621a.847.847,0,1,1,0,1.693H4.234A.848.848,0,0,1,3.387,24.556Zm0,6.774a.848.848,0,0,1,.847-.847H7.621a.847.847,0,1,1,0,1.693H4.234A.848.848,0,0,1,3.387,31.329Zm7.621,4.234H7.621a.848.848,0,0,1-.847-.847V33.87h.847a2.539,2.539,0,0,0,1.891-4.234,2.534,2.534,0,0,0,0-3.387,2.534,2.534,0,0,0,0-3.387,2.542,2.542,0,0,0,.5-.847h1.839v12.7A.848.848,0,0,1,11.008,35.563Zm2.54-10.939a4.372,4.372,0,0,0,1.3.691l.13.043.536-1.607-.131-.043a2.674,2.674,0,0,1-1.831-2.54v-.847H8.467a1.7,1.7,0,0,1-1.693-1.693h8.289a2.532,2.532,0,0,1,1.409.427l3.85,2.567v9.339a4.9,4.9,0,0,1-3.242,1.215H13.548Zm29.635,5.858H22.015V22.015H43.183a11,11,0,0,1,0,8.467Zm-.888,1.693a11,11,0,0,1-18.546,0ZM23.749,20.322a11,11,0,0,1,18.546,0ZM15.241,46.571v-.812a10.167,10.167,0,0,0,1.693.915v1.513C15.781,47.592,15.241,47.007,15.241,46.571ZM18.628,48.9V47.3c.534.17,1.1.329,1.693.475v1.633l-.248-.066q-.791-.216-1.445-.446Zm11.854.164v1.693q-.857-.032-1.693-.086V48.98q.841.052,1.693.084ZM27.1,50.54q-.864-.08-1.693-.183V48.675q.834.1,1.693.177Zm-3.387-.424q-.875-.141-1.693-.309V48.15q.823.16,1.693.294Zm8.467.683V49.106q.423.005.847.005t.847-.005V50.8q-.422.005-.847.005T32.176,50.8ZM44.031,48.15v1.656q-.818.168-1.693.309V48.444Q43.207,48.311,44.031,48.15Zm-3.387,2.206q-.829.1-1.693.183V48.852q.859-.077,1.693-.177Zm-3.387.315q-.836.053-1.693.086V49.064q.852-.031,1.693-.084Zm8.467-1.259V47.779c.594-.147,1.16-.305,1.693-.475v1.6q-.655.229-1.445.446Zm3.387-1.226V46.674a10.166,10.166,0,0,0,1.693-.915v.812C50.8,47.007,50.265,47.592,49.111,48.187Zm1.693-5c0,.726-1.494,1.865-4.832,2.776a51.492,51.492,0,0,1-12.949,1.458,51.492,51.492,0,0,1-12.949-1.458c-3.338-.91-4.832-2.05-4.832-2.776,0-.7,1.4-1.787,4.494-2.68l2.4,2.4,1.935-1.29a17.639,17.639,0,0,0,4.414,1.83l.455,2.278H37.1l.456-2.278a17.638,17.638,0,0,0,4.414-1.83l1.935,1.29,2.4-2.4c3.1.893,4.494,1.976,4.494,2.68ZM48.7,29.871a15.959,15.959,0,0,1-2.033,4.9l-.29.464L47.5,36.918l-3.808,3.808L42.01,39.6l-.464.29a15.962,15.962,0,0,1-4.9,2.033l-.533.123-.4,1.98H30.33l-.4-1.98-.533-.123A15.961,15.961,0,0,1,24.5,39.9l-.464-.29-1.682,1.122-3.808-3.808,1.122-1.682-.29-.464c-.226-.361-.438-.734-.635-1.113a6.572,6.572,0,0,0,2.764-1.483h.283a12.7,12.7,0,1,0,0-11.854h-.363l-2.563-1.709c.163-.3.334-.6.515-.887l.29-.464L18.545,15.58l3.808-3.808,1.682,1.122.464-.29a15.961,15.961,0,0,1,4.9-2.033l.533-.123.4-1.98h5.386l.4,1.98.533.123a15.964,15.964,0,0,1,4.9,2.033l.464.29,1.682-1.122L47.5,15.58l-1.122,1.682.29.464a15.96,15.96,0,0,1,2.033,4.9l.123.533,1.98.4v5.386l-1.98.4Z" transform="translate(0 0)"/>
      </g>
    </g>
  </g>
</svg>
