<svg xmlns="http://www.w3.org/2000/svg" xmlns:xlink="http://www.w3.org/1999/xlink" width="295" height="316" viewBox="0 0 295 316">
  <defs>
    <clipPath id="clip-path">
      <rect id="Rectángulo_423358" data-name="Rectángulo 423358" width="295" height="316" transform="translate(180 287)" fill="#fff" stroke="#707070" stroke-width="1"/>
    </clipPath>
    <clipPath id="clip-path-2">
      <rect id="Rectángulo_423386" data-name="Rectángulo 423386" width="383" height="383" transform="translate(0)" fill="none"/>
    </clipPath>
    <clipPath id="clip-path-3">
      <rect id="Rectángulo_423360" data-name="Rectángulo 423360" width="97.931" height="34.294" fill="none"/>
    </clipPath>
    <clipPath id="clip-path-4">
      <rect id="Rectángulo_423361" data-name="Rectángulo 423361" width="96.168" height="56.628" fill="none"/>
    </clipPath>
    <clipPath id="clip-path-5">
      <rect id="Rectángulo_423362" data-name="Rectángulo 423362" width="57.177" height="53.509" fill="none"/>
    </clipPath>
    <clipPath id="clip-path-6">
      <rect id="Rectángulo_423363" data-name="Rectángulo 423363" width="24.093" height="8.895" fill="none"/>
    </clipPath>
    <clipPath id="clip-path-7">
      <rect id="Rectángulo_423364" data-name="Rectángulo 423364" width="34.47" height="24.638" fill="none"/>
    </clipPath>
    <clipPath id="clip-path-8">
      <rect id="Rectángulo_423365" data-name="Rectángulo 423365" width="17.947" height="8.159" fill="none"/>
    </clipPath>
    <clipPath id="clip-path-9">
      <rect id="Rectángulo_423366" data-name="Rectángulo 423366" width="6.024" height="3.701" fill="none"/>
    </clipPath>
    <clipPath id="clip-path-10">
      <rect id="Rectángulo_423368" data-name="Rectángulo 423368" width="19.29" height="16.99" fill="none"/>
    </clipPath>
    <clipPath id="clip-path-11">
      <rect id="Rectángulo_423371" data-name="Rectángulo 423371" width="82.643" height="61.024" fill="none"/>
    </clipPath>
    <clipPath id="clip-path-12">
      <rect id="Rectángulo_423372" data-name="Rectángulo 423372" width="37.438" height="25.221" fill="none"/>
    </clipPath>
    <clipPath id="clip-path-13">
      <rect id="Rectángulo_423373" data-name="Rectángulo 423373" width="51.946" height="16.525" fill="none"/>
    </clipPath>
    <clipPath id="clip-path-14">
      <rect id="Rectángulo_423374" data-name="Rectángulo 423374" width="62.301" height="7.877" fill="none"/>
    </clipPath>
    <clipPath id="clip-path-15">
      <rect id="Rectángulo_423375" data-name="Rectángulo 423375" width="61.968" height="13.89" fill="none"/>
    </clipPath>
    <clipPath id="clip-path-16">
      <rect id="Rectángulo_423376" data-name="Rectángulo 423376" width="24.8" height="23.742" fill="none"/>
    </clipPath>
    <clipPath id="clip-path-17">
      <rect id="Rectángulo_423377" data-name="Rectángulo 423377" width="26.939" height="15.703" fill="none"/>
    </clipPath>
    <clipPath id="clip-path-18">
      <rect id="Rectángulo_423378" data-name="Rectángulo 423378" width="39.922" height="19.75" fill="none"/>
    </clipPath>
    <clipPath id="clip-path-19">
      <rect id="Rectángulo_423379" data-name="Rectángulo 423379" width="15.29" height="38.051" fill="none"/>
    </clipPath>
    <clipPath id="clip-path-20">
      <rect id="Rectángulo_423380" data-name="Rectángulo 423380" width="79.343" height="68.893" fill="none"/>
    </clipPath>
    <clipPath id="clip-path-21">
      <rect id="Rectángulo_423382" data-name="Rectángulo 423382" width="80.691" height="84.208" fill="none"/>
    </clipPath>
    <clipPath id="clip-path-22">
      <rect id="Rectángulo_423383" data-name="Rectángulo 423383" width="17.225" height="7.454" fill="none"/>
    </clipPath>
    <clipPath id="clip-path-23">
      <rect id="Rectángulo_423384" data-name="Rectángulo 423384" width="14.801" height="13.851" fill="none"/>
    </clipPath>
    <clipPath id="clip-path-24">
      <rect id="Rectángulo_423385" data-name="Rectángulo 423385" width="30.718" height="24.116" fill="none"/>
    </clipPath>
  </defs>
  <g id="Enmascarar_grupo_1211489" data-name="Enmascarar grupo 1211489" transform="translate(-180 -287)" clip-path="url(#clip-path)">
    <g id="Grupo_1231803" data-name="Grupo 1231803" transform="translate(112.087 255.087)">
      <g id="Grupo_1231802" data-name="Grupo 1231802" transform="translate(-0.087 -0.087)" clip-path="url(#clip-path-2)">
        <path id="Trazado_1175511" data-name="Trazado 1175511" d="M1318.816,1237.3c-.987,3.082-6.564,5.3-9.307,4.448-2.349-.733-2.551-4.071-1.741-5.24.611,3.72,7.394,2.348,11.048.792" transform="translate(-1182.111 -1118.062)" fill="#912f14"/>
        <path id="Trazado_1175512" data-name="Trazado 1175512" d="M1323.866,1222.659c-1.08,12.277,7.317,20.186,16.942,21.033s22.4-7.9,23.479-20.181-9.081-21.578-18.706-22.424-20.635,9.3-21.715,21.573" transform="translate(-1196.972 -1085.987)" fill="#912f14"/>
        <path id="Trazado_1175513" data-name="Trazado 1175513" d="M1286.809,1269.316c-5.489-1.265-11.767,3.155-14.282,7.65-4.262,7.62-3,15.971-.191,18.779-4.757-11.935,8.146-25.169,14.473-26.43" transform="translate(-1148.135 -1147.531)" fill="#912f14"/>
        <g id="Grupo_1231735" data-name="Grupo 1231735" transform="translate(114.407 290.523)" opacity="0.11">
          <g id="Grupo_1231734" data-name="Grupo 1231734">
            <g id="Grupo_1231733" data-name="Grupo 1231733" clip-path="url(#clip-path-3)">
              <path id="Trazado_1175514" data-name="Trazado 1175514" d="M1194.323,3041.564c0-4.176,21.922-7.561,48.965-7.561s48.965,3.385,48.965,7.561c0,3.462-15.082,6.374-35.64,7.271,13.021,2.948,27.771,15.049,27.771,18.707,0,4.176-35.052-10.334-38.188-10.411-2.909-.071-37.619,7.622-41.375,3.586-4.751-5.105,16.858-9.741,33.486-11.63-24.7-.386-43.984-3.606-43.984-7.523" transform="translate(-1194.323 -3034.003)"/>
            </g>
          </g>
        </g>
        <path id="Trazado_1175515" data-name="Trazado 1175515" d="M1120.4,2538.015c-2.855-.3-31.3-48.359-31.227-52.1,3.521-2.952,22.527,5.646,28.479,6.26,4.642-.187,44.129-10.647,61.675-11.818,2.159.684-1.267,16.3,2.791,15.6,6.891-1.193,28.967-4.6,32.188-5.382-.237,17.484-15.162,42.307-28.845,45.264-17.843,3.857-25.766,6.354-65.061,2.184" transform="translate(-984.833 -2242.833)" fill="#56223c"/>
        <path id="Trazado_1175516" data-name="Trazado 1175516" d="M1282.948,3029.084c-2.073,2.334-5.928,10.062-5.492,13.223.314,2.276,2.859,8.453,8.818,12.405,3.6,2.386,22.114-4.223,32.481-7.5,6.8-2.151,6.33-19.667-3.069-20.026-16.381-.624-30.209-.946-32.737,1.9" transform="translate(-1155.059 -2736.931)" fill="#c92f11"/>
        <path id="Trazado_1175517" data-name="Trazado 1175517" d="M1312.879,3026.54c-1.924,2.311-5.472,9.993-5.036,13.155a16.433,16.433,0,0,0,8.374,12.471c3.6,2.005,20.7-4.01,30.388-7.188,6.356-2.085,5.766-19.583-3.05-20.029-15.364-.777-28.331-1.228-30.677,1.591" transform="translate(-1182.535 -2734.76)" fill="#ff4817"/>
        <path id="Trazado_1175518" data-name="Trazado 1175518" d="M1443.045,3030.308c-9.743,4.408-6.045,21.165,2.54,21.707,4.428.279,12.343-1.832,28.768-6.465,1.85-4.01-.169-14.229-2.218-16.979-20.269,1.237-25.48.1-29.09,1.737" transform="translate(-1299.585 -2738.567)" fill="#ffc19f"/>
        <g id="Grupo_1231738" data-name="Grupo 1231738" transform="translate(119.47 253.57)" opacity="0.6">
          <g id="Grupo_1231737" data-name="Grupo 1231737">
            <g id="Grupo_1231736" data-name="Grupo 1231736" clip-path="url(#clip-path-4)">
              <path id="Trazado_1175519" data-name="Trazado 1175519" d="M1292.488,2704.619c-2.582-1.536-31.539-16.482-32.5-18.751,9-3.782-20.984-33.537-10.543-37.873.857-.355,42.242,24.628,43.1,24.274,2.137-.885,36.838-15.09,43.87-17.6,5.025,5.62,6.4,22.013,6.965,24.7-12.935,7.837-42.839,23.345-50.892,25.256" transform="translate(-1247.211 -2647.991)" fill="#300808"/>
            </g>
          </g>
        </g>
        <path id="Trazado_1175520" data-name="Trazado 1175520" d="M1748.3,2641.764c-1.4-2.423-9.131-19.5-9.675-21.309,22.186-12.628,56.63-33.613,63.6-37.4,15.395-1.853,24.672,22.878,10.366,30.53-10.406,5.566-41.433,19.492-64.287,28.178" transform="translate(-1572.114 -2335.613)" fill="#56223c"/>
        <g id="Grupo_1231741" data-name="Grupo 1231741" transform="translate(116.302 255.187)" opacity="0.36">
          <g id="Grupo_1231740" data-name="Grupo 1231740">
            <g id="Grupo_1231739" data-name="Grupo 1231739" clip-path="url(#clip-path-5)">
              <path id="Trazado_1175521" data-name="Trazado 1175521" d="M1260.861,2718.384c1.345-2.5,9.554-19.618,10.421-21.928-19.786-10.817-41.228-25.758-50.915-31.581-4.8,5.844-5.8,25.8-6.262,28.5,13.241,7.226,40.323,22.459,46.756,25.006" transform="translate(-1214.105 -2664.875)" fill="#300808"/>
            </g>
          </g>
        </g>
        <path id="Trazado_1175522" data-name="Trazado 1175522" d="M1912.54,3127.987c2.8-1.256,9.333-6.689,10.164-9.763.6-2.213.674-8.936-3.235-15.069-2.361-3.7-21.855-5.5-32.606-6.884-7.052-.91-13.437,15.3-4.985,19.6,14.73,7.5,27.244,13.646,30.661,12.114" transform="translate(-1698.004 -2799.753)" fill="#c92f11"/>
        <path id="Trazado_1175523" data-name="Trazado 1175523" d="M1909.849,3126.418c2.657-1.3,8.889-6.819,9.72-9.894a16.947,16.947,0,0,0-2.8-14.941c-2.511-3.355-20.478-5.09-30.572-6.285-6.621-.784-12.888,15.459-5,19.6,13.741,7.21,25.418,13.107,28.658,11.524" transform="translate(-1697.702 -2798.882)" fill="#ff4817"/>
        <path id="Trazado_1175524" data-name="Trazado 1175524" d="M1830.765,3106.342c10.62.093,13.759-16.788,6.121-20.915-3.938-2.128-11.994-3.548-28.809-6.261-3.251,2.883-5.38,13.077-4.577,16.458,19.007,7.444,23.33,10.684,27.264,10.719" transform="translate(-1630.622 -2784.318)" fill="#ffc19f"/>
        <path id="Trazado_1175525" data-name="Trazado 1175525" d="M1039.229,2604.758c1.8-2.184,9.925-19.276,10.693-21.035-24.649-18.647-59.139-44.822-66.894-50.49-15.688-5.179-29.3,16.26-13.836,28.339,12.62,9.859,43.866,29.484,70.037,43.186" transform="translate(-870.185 -2289.933)" fill="#56223c"/>
        <path id="Trazado_1175526" data-name="Trazado 1175526" d="M2339.988,2216.468c1.333.011.508-13.423-.822-13.607-18.921-2.624-52.391-7.939-58.389-8.839-.828,10.7-.23,15.2,5.926,17.94,8.028,3.578,34.925,4.362,53.285,4.506" transform="translate(-2062.094 -1983.912)" fill="#f4b18c"/>
        <path id="Trazado_1175527" data-name="Trazado 1175527" d="M2100.367,1775.948c.682,1.154,17.125-4.053,16.6-5.3-7.235-17.276-17-46.311-18.806-51.764,0,0-15.557-.051-15.766,10.876,3.6,11.75,8.844,28.353,17.968,46.183" transform="translate(-1882.974 -1554.264)" fill="#f4b18c"/>
        <path id="Trazado_1175528" data-name="Trazado 1175528" d="M1461.8,1656.467a43.353,43.353,0,0,1-31.864,14.181c-14.027-.122-32.376-8.71-43.22-15.457-.484-3.044,2.117-1.876,1.083-4.179-.951-2.119,2.077-1.808,2.166-2.465,1.107-8.2,6.21-22.371,5.4-33.826-1.617-22.916-2-46.859,1.142-56.772,9.568-1.164,24.215-4.893,34.547-4.21,10,.661,23.142,4.011,30.344,5.7,3.124,13.317,6.157,32.686,6.157,38.548,0,2.179-8.446,15.958-8.765,18.088-1,6.663-1.338,22.171.035,33.443.1.788,2.475,1.844,1.376,3.709-1.68,2.851,1.984.077,1.6,3.241" transform="translate(-1253.837 -1404.848)" fill="#ff6a36"/>
        <path id="Trazado_1175529" data-name="Trazado 1175529" d="M1368.166,1777.6c.841,1.131,18.2-5.976,17.522-7.216-9.361-17.243-22.5-46.466-24.938-51.958,0,0-16.859,1.543-16.122,12.94,4.933,11.863,12.082,28.609,23.538,46.234" transform="translate(-1215.81 -1553.846)" fill="#ffc19f"/>
        <path id="Trazado_1175530" data-name="Trazado 1175530" d="M1322.682,1638.361c-2.11-8.5-3.51-20.377-2.985-23.634.8-4.978,3.348-8.273,9.837-13.969,1.032-.313,4.685-.953,6.637-1.249,6.383,5.79,15.819,24.892,17.077,28.138-2.388,1.592-28.715,11.082-30.567,10.714" transform="translate(-1193.188 -1446.313)" fill="#ff6a36"/>
        <g id="Grupo_1231744" data-name="Grupo 1231744" transform="translate(168.9 204.363)" opacity="0.2">
          <g id="Grupo_1231743" data-name="Grupo 1231743">
            <g id="Grupo_1231742" data-name="Grupo 1231742" clip-path="url(#clip-path-6)">
              <path id="Trazado_1175531" data-name="Trazado 1175531" d="M1787.631,2140.188c.178,2.9-5.42-.1-12.07.341s-11.836,4.161-12.013,1.264,4.965-7.32,11.615-7.764,12.291,3.262,12.468,6.159" transform="translate(-1763.542 -2133.992)" fill="#510606"/>
            </g>
          </g>
        </g>
        <path id="Trazado_1175532" data-name="Trazado 1175532" d="M1638.974,2197.983c1.42.209,1.144-13.26-.24-13.649-19.687-5.532-54.385-16.019-60.613-17.844-2.861,11.009-3.056,15.78,3,19.547,7.9,4.912,38.307,9.078,57.853,11.946" transform="translate(-1425.229 -1959.015)" fill="#ffc19f"/>
        <path id="Trazado_1175533" data-name="Trazado 1175533" d="M1687.116,1557.511a9.605,9.605,0,0,1,.553-2.5,66.52,66.52,0,0,1,14.232-1.141c1.717.111,3.392.265,5.051.43,2.388.292,4.867.689,7.345,1.144,5.1,14.05-1.616,20.4-7.8,19.745-7.474-.8-19.832-10.994-19.384-17.678" transform="translate(-1525.522 -1404.999)" fill="#ffc19f"/>
        <path id="Trazado_1175534" data-name="Trazado 1175534" d="M1699.57,1376.5l-.864,19.221c-.185,4.133,8.191,8.212,14.537,9.318,3.667-1.393,9.806-3.926,9.992-8.059l.863-19.221Z" transform="translate(-1536.011 -1244.652)" fill="#ffc19f"/>
        <g id="Grupo_1231747" data-name="Grupo 1231747" transform="translate(161.233 124.929)" opacity="0.18">
          <g id="Grupo_1231746" data-name="Grupo 1231746">
            <g id="Grupo_1231745" data-name="Grupo 1231745" clip-path="url(#clip-path-7)">
              <path id="Trazado_1175535" data-name="Trazado 1175535" d="M1717.232,1321.588a10.665,10.665,0,0,0,.694-3.771A181.514,181.514,0,0,0,1686,1304.233a10.265,10.265,0,0,0-1.769,2.8c-2.824,6.963,2.274,15.865,11.386,19.884s18.788,1.633,21.612-5.33" transform="translate(-1683.456 -1304.233)" fill="#a50c0c"/>
            </g>
          </g>
        </g>
        <path id="Trazado_1175536" data-name="Trazado 1175536" d="M2033.93,1645.913c6.059.621,24.305-6.475,28.181-8.922-2.19-5.257-5.323-12.962-8.936-20.138-.766-.621-4.84-1.987-6.555-2.781-4.472,3.759-13.85,30.693-12.69,31.841" transform="translate(-1839.057 -1459.481)" fill="#ff6a36"/>
        <path id="Trazado_1175537" data-name="Trazado 1175537" d="M1699.2,3043.326l11.788-23.463-8.347-4.561-11.789,23.463Z" transform="translate(-1528.916 -2726.57)" fill="#8e496b"/>
        <g id="Grupo_1231750" data-name="Grupo 1231750" transform="translate(136.53 248.013)" opacity="0.13">
          <g id="Grupo_1231749" data-name="Grupo 1231749">
            <g id="Grupo_1231748" data-name="Grupo 1231748" clip-path="url(#clip-path-8)">
              <path id="Trazado_1175538" data-name="Trazado 1175538" d="M1443.343,2598.1c-1.521.231-12.4-2.471-17.172-6.2-1.377-1.076-.711-2.681.556-1.565,4.217,3.713,17.053,7.7,16.615,7.767" transform="translate(-1425.407 -2589.954)" fill="#510606"/>
            </g>
          </g>
        </g>
        <g id="Grupo_1231753" data-name="Grupo 1231753" transform="translate(138.588 244.312)" opacity="0.13">
          <g id="Grupo_1231752" data-name="Grupo 1231752">
            <g id="Grupo_1231751" data-name="Grupo 1231751" clip-path="url(#clip-path-9)">
              <path id="Trazado_1175539" data-name="Trazado 1175539" d="M1452.88,2554.979c-1.338.159-3.987-1.01-5.522-2.185-.963-.737-.215-1.955.625-1.328,2.844,2.12,5.336,3.461,4.9,3.513" transform="translate(-1446.906 -2551.292)" fill="#510606"/>
            </g>
          </g>
        </g>
        <path id="Trazado_1175540" data-name="Trazado 1175540" d="M2215.3,1057.3c-1.535,8.762-8.685,14.816-14.322,14.473s-7.082-7.293-6.535-15.653,5.561-14.881,11.2-14.519c7.7.5,11.1,7.462,9.661,15.7" transform="translate(-1984.193 -941.802)" fill="#f4b18c"/>
        <path id="Trazado_1175541" data-name="Trazado 1175541" d="M2231.319,1156.523c-1.812,3.549-5.518,5.44-8.277,4.22s-3.529-5.088-1.715-8.638,5.517-5.44,8.276-4.22,3.528,5.085,1.716,8.637" transform="translate(-2007.714 -1037.589)" fill="#e0956c"/>
        <path id="Trazado_1175542" data-name="Trazado 1175542" d="M1442.1,430.866c-1.938,34.456-24.036,48.76-53.762,47.089s-50.726-20.347-48.788-54.8,24.26-39.281,53.985-37.609,50.5,10.867,48.565,45.323" transform="translate(-1211.129 -348.304)" fill="#912f14"/>
        <path id="Trazado_1175543" data-name="Trazado 1175543" d="M1545.219,505.966c3.331,3.649.134,11.859-.752,18.449-3.194,23.77-3.03,30.206-4.861,42.955-1.862,12.961-21.964,22.89-30.791,22.905-11.773.021-38.674-10.245-43.135-22.781-4.925-22.225-8.74-55.712-6.342-61.5,8.1-19.531,17.6-16.985,41.1-15.663,21.985,1.237,32.8,2.511,44.778,15.63" transform="translate(-1318.894 -442.517)" fill="#ffc19f"/>
        <path id="Trazado_1175544" data-name="Trazado 1175544" d="M1551.615,406.556c-1.424,5.568-5.584,10.692-12.235,14.608-12.633,7.438-29.6,6.862-34.019,5.652,11.807-4.486,20.6-19.2,18.784-19.417-11.3,13.15-27.372,17.274-30.032,16.718,2.5-1.411,5.729-5.568,4.012-5.845-1.961,1.838-10.828,5.944-14.389,5.84,2.466-.952,8.693-9.871,8.106-11.72-8.318,9.181-26.216,6.869-30.775,32.821-4.63-11.919-2.964-48.425,6.854-53.871,27.651-15.339,87.188,1.549,83.693,15.216" transform="translate(-1318.892 -348.303)" fill="#912f14"/>
        <path id="Trazado_1175545" data-name="Trazado 1175545" d="M1375.8,464.086c-.043,10.695-.849,28.821-8.475,34.272-8.895,6.36-15.567-17.713-14.634-34.3.408-7.247,6.164-25.059,20.17-31.073,18.059-7.755,11.454,31.83,2.939,31.1" transform="translate(-1223.042 -390.548)" fill="#912f14"/>
        <path id="Trazado_1175546" data-name="Trazado 1175546" d="M1341.821,978.857c2.64,10.043,11.363,15.288,15.974,15.57,6.98.428,8.655-8.786,7.872-18.37s-7.059-16.8-14.012-16.066c-9.5,1.006-12.27,9.6-9.834,18.867" transform="translate(-1212.536 -867.97)" fill="#ffc19f"/>
        <path id="Trazado_1175547" data-name="Trazado 1175547" d="M1437.13,1092.433c1.309,4.475,5.785,6.609,7.862,5.6,2.335-1.134,2.535-3.7,2.018-8.027-.606-5.055-2.511-7.972-5.857-7.13-3.478.875-5.566,4.29-4.024,9.555" transform="translate(-1299.012 -979.009)" fill="#e0956c"/>
        <path id="Trazado_1175548" data-name="Trazado 1175548" d="M2096.552,1011.716s10.907,4.982,15.56-1.96c5.669-8.459-1.869-15.815-7.083-14.755-4.826.982-9.428,5.78-8.477,16.715" transform="translate(-1895.658 -899.583)" fill="#f9feff"/>
        <path id="Trazado_1175549" data-name="Trazado 1175549" d="M2133.408,993.561a7.72,7.72,0,0,0-7.644-4.251,9.262,9.262,0,0,0-7.408,5.406,9.67,9.67,0,0,1,6.555-4.354,7.665,7.665,0,0,1,7.992,4.4,10.926,10.926,0,0,1-1.113,10.14c2.367-2.057,3.585-7.907,1.617-11.34" transform="translate(-1915.489 -894.509)" fill="#7f342a"/>
        <path id="Trazado_1175550" data-name="Trazado 1175550" d="M2147.6,1058.451c-1.2,3.088-.146,6.722,2.355,8.118s5.5.025,6.7-3.061.146-6.722-2.355-8.118-5.5-.026-6.7,3.061" transform="translate(-1941.49 -953.788)" fill="#631b0a"/>
        <path id="Trazado_1175551" data-name="Trazado 1175551" d="M2155.8,1073.138a1.846,1.846,0,0,0,.654,2.252,1.324,1.324,0,0,0,1.859-.849,1.848,1.848,0,0,0-.653-2.252,1.324,1.324,0,0,0-1.86.849" transform="translate(-1949.224 -969.427)" fill="#fefffe"/>
        <path id="Trazado_1175552" data-name="Trazado 1175552" d="M1681.574,988.5s-13.478,3.61-18.116-3.854c-5.651-9.1,4.143-15.477,10.166-13.785,5.573,1.566,10.414,6.9,7.951,17.639" transform="translate(-1502.607 -877.598)" fill="#f9feff"/>
        <path id="Trazado_1175553" data-name="Trazado 1175553" d="M1659.128,967.557a9.826,9.826,0,0,1,9.539-3.285c3.634.582,7.186,3.462,8.077,6.277-1.791-3.215-5.116-4.542-7.2-5.127a9.746,9.746,0,0,0-9.969,3.388,9.434,9.434,0,0,0,.07,10.206c-2.541-2.333-3.26-8.291-.519-11.459" transform="translate(-1498.643 -871.735)" fill="#7f342a"/>
        <path id="Trazado_1175554" data-name="Trazado 1175554" d="M1739.606,1038.042a6.2,6.2,0,0,0,2.879,8.147,5.9,5.9,0,0,0,7.918-2.993,6.2,6.2,0,0,0-2.879-8.148,5.9,5.9,0,0,0-7.918,2.993" transform="translate(-1572.491 -935.375)" fill="#631b0a"/>
        <path id="Trazado_1175555" data-name="Trazado 1175555" d="M1749.552,1052.467a1.72,1.72,0,0,0,.8,2.26,1.637,1.637,0,0,0,2.2-.83,1.72,1.72,0,0,0-.8-2.26,1.636,1.636,0,0,0-2.2.83" transform="translate(-1581.85 -950.746)" fill="#fefffe"/>
        <path id="Trazado_1175556" data-name="Trazado 1175556" d="M1878.666,1312.189l.123.009c4.261.367,8.03-.553,10.083-2.465a.685.685,0,0,0-.933-1c-1.748,1.629-5.208,2.435-9.031,2.106l-.115-.008c-3.8-.349-7.054-1.745-8.5-3.657a.685.685,0,0,0-1.09.828c1.7,2.238,5.231,3.8,9.465,4.19" transform="translate(-1690.062 -1181.718)" fill="#934341"/>
        <path id="Trazado_1175557" data-name="Trazado 1175557" d="M1961.374,1175.734a.424.424,0,0,1-.393-.384,2.986,2.986,0,0,0-5.873-.34.423.423,0,0,1-.495.34.431.431,0,0,1-.328-.509,3.822,3.822,0,0,1,7.532.414.433.433,0,0,1-.373.478Z" transform="translate(-1767.118 -1059.583)" fill="#c4735b"/>
        <path id="Trazado_1175558" data-name="Trazado 1175558" d="M2176.24,878.472a1.358,1.358,0,0,1-.781-.446c-2.533-2.924-7.839-4.236-12.333-3.066a1.359,1.359,0,0,1-.687-2.63c5.522-1.437,11.857.209,15.074,3.915a1.359,1.359,0,0,1-1.272,2.227" transform="translate(-1954.433 -788.281)" fill="#773220"/>
        <path id="Trazado_1175559" data-name="Trazado 1175559" d="M1650.612,835.609a1.762,1.762,0,0,1-1.059-.565,1.357,1.357,0,0,1,.243-2.063c4.628-3.2,12.54-3.513,18.824-.74a1.449,1.449,0,0,1,.811,1.979,1.692,1.692,0,0,1-2.184.655c-5.115-2.264-11.725-2.066-15.375.46a1.756,1.756,0,0,1-1.259.275" transform="translate(-1491.233 -750.789)" fill="#773220"/>
        <path id="Trazado_1175561" data-name="Trazado 1175561" d="M253.761,2662.037h77.219a2.7,2.7,0,0,1,2.016.921l10.807,9.268H333.718V2722.3a2.737,2.737,0,0,1-2.737,2.736h-68.4v8.417l-10.59-9.083a2.752,2.752,0,0,1-.963-2.071v-57.526a2.736,2.736,0,0,1,2.735-2.737" transform="translate(-182.523 -2388.329)" fill="#6ed5dd"/>
        <g id="Grupo_1231759" data-name="Grupo 1231759" transform="translate(24.178 254.947)" opacity="0.5">
          <g id="Grupo_1231758" data-name="Grupo 1231758">
            <g id="Grupo_1231757" data-name="Grupo 1231757" clip-path="url(#clip-path-10)">
              <path id="Trazado_1175562" data-name="Trazado 1175562" d="M254.3,2662.382l16.793,14.417-2.215,2.573L251.8,2664.714a2.688,2.688,0,0,1,2.5-2.332" transform="translate(-251.805 -2662.382)" fill="#fff"/>
            </g>
          </g>
        </g>
        <path id="Trazado_1175563" data-name="Trazado 1175563" d="M365.757,2821.97h77.76a2.465,2.465,0,0,0,2.466-2.465v-58.068a2.466,2.466,0,0,0-2.466-2.466h-77.76a2.465,2.465,0,0,0-2.465,2.466v58.068a2.465,2.465,0,0,0,2.465,2.465" transform="translate(-284.042 -2475.985)" fill="#7fe7ec"/>
        <path id="Trazado_1175564" data-name="Trazado 1175564" d="M575.989,2889.8a20.984,20.984,0,1,0,20.984-20.984,20.984,20.984,0,0,0-20.984,20.984" transform="translate(-476.377 -2575.316)" fill="#fff"/>
        <rect id="Rectángulo_423369" data-name="Rectángulo 423369" width="24.837" height="7.47" transform="translate(108.177 310.752)" fill="#ff1f1f"/>
        <rect id="Rectángulo_423370" data-name="Rectángulo 423370" width="7.47" height="24.837" transform="translate(116.861 302.068)" fill="#ff1f1f"/>
        <g id="Grupo_1231762" data-name="Grupo 1231762" transform="translate(73.405 278.861)" opacity="0.35">
          <g id="Grupo_1231761" data-name="Grupo 1231761">
            <g id="Grupo_1231760" data-name="Grupo 1231760" clip-path="url(#clip-path-11)">
              <path id="Trazado_1175565" data-name="Trazado 1175565" d="M302.236,2776.431v-57.55a3.008,3.008,0,0,1,3-3.007h79.006l.633.544H305.24a2.462,2.462,0,0,0-2.46,2.464V2776.9Z" transform="translate(-302.236 -2715.873)" fill="#004a4c"/>
            </g>
          </g>
        </g>
        <path id="Trazado_1175566" data-name="Trazado 1175566" d="M959.752,2699.565h10.971a.645.645,0,0,1,.418.155l2.442,2.11a.629.629,0,0,1-.419,1.112H962.194a.644.644,0,0,1-.419-.155l-2.442-2.087a.645.645,0,0,1,.419-1.135" transform="translate(-822.818 -2422.265)" fill="#771808"/>
        <path id="Trazado_1175567" data-name="Trazado 1175567" d="M978.439,2701.83H967.433a.807.807,0,0,1-.538-.176l-2.419-2.068.132-.021h10.971a.643.643,0,0,1,.418.155Z" transform="translate(-827.474 -2422.957)" fill="#a53a28"/>
        <path id="Trazado_1175568" data-name="Trazado 1175568" d="M371.306,2699.565h10.971a.645.645,0,0,1,.418.155l2.442,2.11a.629.629,0,0,1-.418,1.112H373.748a.643.643,0,0,1-.419-.155l-2.442-2.087a.645.645,0,0,1,.418-1.135" transform="translate(-290.507 -2422.956)" fill="#771808"/>
        <path id="Trazado_1175569" data-name="Trazado 1175569" d="M389.992,2701.83H378.987a.809.809,0,0,1-.539-.176l-2.419-2.068.132-.021h10.971a.644.644,0,0,1,.418.155Z" transform="translate(-295.56 -2422.266)" fill="#a53a28"/>
        <path id="Trazado_1175570" data-name="Trazado 1175570" d="M544.323,2567.212h5.093v-9.672c0-.395.928-1.154,2.38-1.154h22.446c1.453,0,2.374.759,2.374,1.154v9.672h5.092v-9.672c0-3.5-3.282-6.246-7.467-6.246H551.8c-4.191,0-7.473,2.745-7.473,6.246Z" transform="translate(-447.743 -2288.188)" fill="#490b05"/>
        <g id="Grupo_1231765" data-name="Grupo 1231765" transform="translate(214.099 206.017)" opacity="0.25">
          <g id="Grupo_1231764" data-name="Grupo 1231764">
            <g id="Grupo_1231763" data-name="Grupo 1231763" clip-path="url(#clip-path-12)">
              <path id="Trazado_1175571" data-name="Trazado 1175571" d="M2273.127,2160.429c-6.858-1.045-13.605-2.089-19.241-2.965-.793-1.98-1.606-4.067-2.425-6.2-6.287,1.431-12.12,5.634-15.771,8.937q1.558,3.329,3.293,6.731c.116.2.711.2,1.575.077.783,2.965,2.462,4.872,5.642,6.289,3.376,1.5,10.107,2.51,18.119,3.187,4.417-4.955,7.993-11.251,8.809-16.052" transform="translate(-2235.689 -2151.259)" fill="#721401"/>
            </g>
          </g>
        </g>
        <path id="Trazado_1175572" data-name="Trazado 1175572" d="M2335.427,2220.275c1.428,1.641-3.2,4.467-7.671,4.622s-11.953-1.093-11.971-3.175c2.08-1.637,16.708-4.82,19.642-1.446" transform="translate(-2094.018 -2006.304)" fill="#ffc19f"/>
        <path id="Trazado_1175573" data-name="Trazado 1175573" d="M2395.285,2195.3l22.537-4.063a4.1,4.1,0,0,0-1.455-8.069l-22.536,4.064a4.1,4.1,0,0,0,1.455,8.068" transform="translate(-2161.542 -1974.038)" fill="#ff9166"/>
        <path id="Trazado_1175574" data-name="Trazado 1175574" d="M2499.778,2215.924l7.724-1.393a.813.813,0,0,0,.656-.945l-.788-4.372a.814.814,0,0,0-.945-.657l-7.724,1.393a.814.814,0,0,0-.656.946l.788,4.372a.813.813,0,0,0,.945.656" transform="translate(-2258.818 -1997.043)" fill="#d86c41"/>
        <path id="Trazado_1175575" data-name="Trazado 1175575" d="M2502.916,2218.274l7.189-1.3a.814.814,0,0,0,.657-.945l-.706-3.913a.813.813,0,0,0-.945-.656l-7.189,1.3a.815.815,0,0,0-.657.945l.706,3.913a.814.814,0,0,0,.946.656" transform="translate(-2261.729 -1999.671)" fill="#fcaa81"/>
        <path id="Trazado_1175576" data-name="Trazado 1175576" d="M2188.14,2261.306c2.575-.1,8.392-.71,8.9,2.1.211,1.158-5.055,1.676-10.071,2.233-1.677.186-2.213-.28-7.01-.749-.163.376,2.185,1.849,5.267,2.127,1.678.151,6.99-2.044,8.176,1.374.2.585-6.681,2.26-8.3,2.634-2.577.6-17.3-.375-18.069-.731-3.248-1.494-3.747-5.371-2.546-9.6,1.381-3.227,7.5-10.01,14.219-13.44a86.993,86.993,0,0,1,12.229.321c9.514,2.482,14.158,3.286,13.349,4.849-1.936,3.741-9.55,1.613-13.592.927a48.175,48.175,0,0,0-8.75.106c-.382.656,5.41.613,8.59.917,2.589.395,11.487,2.324,10.87,3.768-1.658,3.881-5.243,1.777-12.124,1.338-2.742-.019-7.891.385-8.241.709.453.617,2.014.655,7.1,1.114" transform="translate(-1956.673 -2031.96)" fill="#ffc19f"/>
        <path id="Trazado_1175577" data-name="Trazado 1175577" d="M2543.163,2488.829a.771.771,0,0,0-.6-.82l-.1-.016a.773.773,0,0,0-.834.7l-.6,6.937a.782.782,0,0,0,.7.836.773.773,0,0,0,.834-.7Zm-6-1.3a.774.774,0,0,0-.041-1.092.761.761,0,0,0-.358-.187.774.774,0,0,0-.731.228l-4.734,5.1a.771.771,0,1,0,1.128,1.05Zm15.708,3.863-5.283-4.533a.786.786,0,0,0-.336-.166.771.771,0,0,0-.668,1.338l5.282,4.533a.772.772,0,0,0,1-1.173" transform="translate(-2288.712 -2248.151)" fill="#b5b5b5"/>
        <g id="Grupo_1231768" data-name="Grupo 1231768" transform="translate(285.001 310.382)" opacity="0.11">
          <g id="Grupo_1231767" data-name="Grupo 1231767">
            <g id="Grupo_1231766" data-name="Grupo 1231766" clip-path="url(#clip-path-13)">
              <path id="Trazado_1175578" data-name="Trazado 1175578" d="M2996.641,3251.255c.515-.326,11.782,5.238,16.534,6.3,5.878,1.321,17.281-.773,14.725-3.294-5.43-5.357-26.56-14.269-29.97-12.624-6.361,3.069-21.352,6.874-21.607,11.957-.127,2.535,7.8,4.694,11.472,2.953a64.743,64.743,0,0,0,8.846-5.3" transform="translate(-2976.321 -3241.442)"/>
            </g>
          </g>
        </g>
        <g id="Grupo_1231771" data-name="Grupo 1231771" transform="translate(278.263 306.07)" opacity="0.11">
          <g id="Grupo_1231770" data-name="Grupo 1231770">
            <g id="Grupo_1231769" data-name="Grupo 1231769" clip-path="url(#clip-path-14)">
              <path id="Trazado_1175579" data-name="Trazado 1175579" d="M2968.229,3200.336c0,2.175-13.947,3.938-31.151,3.938s-31.151-1.763-31.151-3.938,13.947-3.939,31.151-3.939,31.151,1.763,31.151,3.939" transform="translate(-2905.927 -3196.397)"/>
            </g>
          </g>
        </g>
        <path id="Trazado_1175580" data-name="Trazado 1175580" d="M2829.758,2911.555c-2.722-1.524-8.007-2.527-14.039,1.615-3.666.213-49.779,1.7-53.445,1.49-6.031-4.143-11.378-3.244-14.039-1.616a10.747,10.747,0,0,0-3.865,13.439c2.566,5.715,19.318,15.613,24.522,15.839,5,.218,34.754.218,39.758,0,5.2-.226,22.5-10.83,25.069-16.545,2.792-6.219-.639-12.364-3.961-14.223" transform="translate(-2480.674 -2631.557)" fill="#60514a"/>
        <path id="Trazado_1175581" data-name="Trazado 1175581" d="M3418.889,2340.668c-4.425,2.644-13.332,9.707-18.288,11.191-2.115-4.629-13.3-35.415-13.3-36.238,5.829.368,12.6,1.136,14.477,2.152,3.323,4.374,12.344,15.764,17.107,22.9" transform="translate(-3062.959 -2093.87)" fill="#28afc6"/>
        <g id="Grupo_1231774" data-name="Grupo 1231774" transform="translate(278.17 276.874)" opacity="0.22">
          <g id="Grupo_1231773" data-name="Grupo 1231773">
            <g id="Grupo_1231772" data-name="Grupo 1231772" clip-path="url(#clip-path-15)">
              <path id="Trazado_1175582" data-name="Trazado 1175582" d="M2966.93,2893.726c-.318-.5-1-1.749-1.319-2.3-10.243.191-49.073,1.252-60.071,1.519a24.371,24.371,0,0,1-.578,2.866c12.37,8.953,36.3,16.8,61.968-2.083" transform="translate(-2904.962 -2891.423)"/>
            </g>
          </g>
        </g>
        <path id="Trazado_1175583" data-name="Trazado 1175583" d="M2631.66,2042.788c-.2-.816,10.22-3.346,10.494-2.551,4.1,11.875,11.427,30.209,12.6,33.926,0,0-7.776,2.394-13.613-1.477-4.648-3.083-6.8-19.122-9.479-29.9" transform="translate(-2379.651 -1844.711)" fill="#ffc19f"/>
        <path id="Trazado_1175584" data-name="Trazado 1175584" d="M2524.554,1893.245c-.687-.489-1.612-1.5-6.807-3.968-1.609-.764-7.263,1.528-10.151,2.9.986,3.121,4.387,1.541,8.529.885l8.9,6.017c1.443-.46.3-5.283-.471-5.835" transform="translate(-2267.467 -1708.203)" fill="#e0956c"/>
        <path id="Trazado_1175585" data-name="Trazado 1175585" d="M2512.091,1865.261c-.686-.489-1.611-1.5-6.806-3.968-1.609-.764-7.263,1.528-10.151,2.9.986,3.121,4.387,1.541,8.529.885l8.9,6.017c1.444-.46.3-5.283-.472-5.835" transform="translate(-2256.197 -1682.898)" fill="#e0956c"/>
        <path id="Trazado_1175586" data-name="Trazado 1175586" d="M2525.9,1839.975c-.6-.592-1.352-1.738-6.088-5-1.466-1.011-7.414.352-10.484,1.247.477,3.239,4.086,2.22,8.279,2.232l7.829,7.357c1.5-.224,1.139-5.167.464-5.835" transform="translate(-2269.029 -1658.912)" fill="#e0956c"/>
        <path id="Trazado_1175587" data-name="Trazado 1175587" d="M2536.892,1819.6c3.2-.112,9.295.028,10.468,1.368,1.443,1.649,3.735,3.436,5.234,5.42,1.01,1.338,2.151,6.518,3.8,14.545.192.93-4.652,4.711-6.151,4.493-6.641-.963-8.939-6.042-11.246-9.6a85.533,85.533,0,0,1-1.249-8.713c5.418-1.114,4.057,6.423,7.068,5.6,2.226-.61,2.168-3.422,1.48-4.8-.753-1.512-2.519-4.052-3.091-4.2-4.062-1.042-6.653-.85-6.318-4.107" transform="translate(-2293.932 -1645.303)" fill="#ffc19f"/>
        <path id="Trazado_1175588" data-name="Trazado 1175588" d="M2705.079,2316.519c-.159.089,6.872.083,6.872-.249-1.6-1-4.651-1-6.872.249" transform="translate(-2446.042 -2093.801)" fill="#f44040"/>
        <path id="Trazado_1175589" data-name="Trazado 1175589" d="M2711.525,2342.44c-.121.066,5.257.061,5.257-.182a5.908,5.908,0,0,0-5.257.182" transform="translate(-2451.871 -2117.476)" fill="#f44040"/>
        <path id="Trazado_1175590" data-name="Trazado 1175590" d="M2782.481,2260.416c-1.439,4.642-3.271,15.078-4.448,19.981,10.264,3.176,18.746,5.223,19.5,5.012,7.878-2.194,11.152-18.684,11.634-19.625a233.3,233.3,0,0,1-26.688-5.368" transform="translate(-2512.014 -2043.95)" fill="#28afc6"/>
        <path id="Trazado_1175591" data-name="Trazado 1175591" d="M2904.962,2367.115c15.185,8.962,43.462,10.537,61.968-2.083,0,0-4.933-44.144-7.3-55.924-12.765-3.522-36.559-2.549-48.248-.56-1.7,15.028-4.437,36.37-6.421,58.567" transform="translate(-2626.792 -2085.855)" fill="#28afc6"/>
        <g id="Grupo_1231777" data-name="Grupo 1231777" transform="translate(297.275 243.202)" opacity="0.34">
          <g id="Grupo_1231776" data-name="Grupo 1231776">
            <g id="Grupo_1231775" data-name="Grupo 1231775" clip-path="url(#clip-path-16)">
              <path id="Trazado_1175592" data-name="Trazado 1175592" d="M3118.359,2540.572l2.6,5.271a1.588,1.588,0,0,0,1.2.869l5.816.846a1.588,1.588,0,0,1,.88,2.709l-4.209,4.1a1.588,1.588,0,0,0-.457,1.406l.994,5.793a1.589,1.589,0,0,1-2.3,1.675l-5.2-2.735a1.589,1.589,0,0,0-1.479,0l-5.2,2.735a1.589,1.589,0,0,1-2.3-1.675l.994-5.793a1.589,1.589,0,0,0-.457-1.406l-4.209-4.1a1.588,1.588,0,0,1,.88-2.709l5.816-.846a1.587,1.587,0,0,0,1.2-.869l2.6-5.271a1.589,1.589,0,0,1,2.849,0" transform="translate(-3104.534 -2539.687)" fill="#fff"/>
            </g>
          </g>
        </g>
        <path id="Trazado_1175593" data-name="Trazado 1175593" d="M3106.982,2311.411a7.592,7.592,0,0,0-.277-2.215,217.437,217.437,0,0,0-27.913-.03,6.59,6.59,0,0,0-.219.976c-.263,5.885,5.883,10.939,13.728,11.289s14.418-4.135,14.681-10.02" transform="translate(-2783.776 -2087.638)" fill="#0a8da3"/>
        <path id="Trazado_1175594" data-name="Trazado 1175594" d="M3138.52,2164.349l-.18,16.62c-.039,3.574-4.612,6.423-10.216,6.362s-10.114-3.008-10.075-6.582l.181-16.621Z" transform="translate(-2819.479 -1956.88)" fill="#ffc19f"/>
        <g id="Grupo_1231780" data-name="Grupo 1231780" transform="translate(299.881 212.363)" opacity="0.19">
          <g id="Grupo_1231779" data-name="Grupo 1231779">
            <g id="Grupo_1231778" data-name="Grupo 1231778" clip-path="url(#clip-path-17)">
              <path id="Trazado_1175595" data-name="Trazado 1175595" d="M3158.4,2226.7a7.341,7.341,0,0,0,.3-2.144,210.739,210.739,0,0,0-26.123-7.014,6.37,6.37,0,0,0-.449.858c-1.719,5.443,2.77,11.712,10.025,14s14.532-.262,16.251-5.7" transform="translate(-3131.753 -2217.546)" fill="#601805"/>
            </g>
          </g>
        </g>
        <path id="Trazado_1175596" data-name="Trazado 1175596" d="M3118.872,2940.473c-.386.21,5.709,13.1,6.207,12.909,3.22-1.238,28.5-12.1,42.266-17.991a9.345,9.345,0,1,0-8.169-16.788c-13.7,7.475-38.2,20.729-40.3,21.87" transform="translate(-2820.208 -2638.093)" fill="#ffc19f"/>
        <path id="Trazado_1175597" data-name="Trazado 1175597" d="M3037.722,3078.412l8.643,16.266c2.781-1.775,19.227-11.542,21.885-12.817l-8.865-14.563c-1.257.826-4.748,3.031-6.431,4.121-1.184.767-14.631,6.329-15.232,6.992" transform="translate(-2746.843 -2773.587)" fill="#9dcecc"/>
        <path id="Trazado_1175598" data-name="Trazado 1175598" d="M2972.365,3211.688c-8.374-.894-13.008-10.542-10.046-15.374.733-1.2,2.871-2.594,3.884-3.27,4.018,1.129,11.138,13.81,10.069,16.936a15.362,15.362,0,0,1-3.906,1.708" transform="translate(-2677.846 -2887.295)" fill="#19555b"/>
        <path id="Trazado_1175599" data-name="Trazado 1175599" d="M3000.085,3125.486c-8.494-.19-15.286-10.691-9.434-17.19,2.43-1.581,5.924-2.836,13.9-6.144.724-.351,3.9-2.308,4.741-2.828,4.769,1.58,10.341,11.444,8.384,15.087-.91.523-2.26,1.284-3.756,2.265-7.774,5.1-12.256,8.846-13.835,8.811" transform="translate(-2702.295 -2802.548)" fill="#2d8f91"/>
        <path id="Trazado_1175600" data-name="Trazado 1175600" d="M3093.4,3168.532a7,7,0,0,1,3.455,3.048c.038.049.073.1.107.16a7.3,7.3,0,0,1,1.325,4.544.535.535,0,0,0,.078.351.5.5,0,0,0,.288.216.4.4,0,0,0,.5-.343,8.16,8.16,0,0,0-1.481-5.238l-.116-.184a7.888,7.888,0,0,0-4.037-3.469.4.4,0,0,0-.489.356.526.526,0,0,0,.373.558m-2.979,1.11a.494.494,0,0,0,.286.214c2.256.591,5.472,5.211,5.11,8.106a.513.513,0,0,0,.373.559.4.4,0,0,0,.49-.356c.439-3.458-3.168-8.521-5.836-9.213a.4.4,0,0,0-.5.34.527.527,0,0,0,.077.351m3.5,10.372c.376-3.546-3.373-8.845-6.1-9.625a.392.392,0,0,0-.5.328.509.509,0,0,0,.35.574c2.306.669,5.693,5.551,5.383,8.538a.535.535,0,0,0,.079.332.482.482,0,0,0,.308.217.394.394,0,0,0,.479-.364" transform="translate(-2791.695 -2864.293)" fill="#fff"/>
        <path id="Trazado_1175601" data-name="Trazado 1175601" d="M2807.443,2959.136c.38.223-6.122,12.913-6.613,12.706-3.179-1.339-28.107-12.994-41.675-19.322a9.345,9.345,0,1,1,8.7-16.521c13.457,7.906,37.525,21.929,39.59,23.136" transform="translate(-2490.075 -2653.692)" fill="#ffc19f"/>
        <path id="Trazado_1175602" data-name="Trazado 1175602" d="M3158.021,3123.78l-5.832,17.373c-3.018-1.289-20.748-8.2-23.564-9.014l6.327-15.738c1.368.606,5.153,2.2,6.982,3,1.287.56,15.389,3.829,16.087,4.382" transform="translate(-2829.043 -2817.99)" fill="#9dcecc"/>
        <path id="Trazado_1175603" data-name="Trazado 1175603" d="M3390.049,3217.966c8.072-2.242,11.047-12.466,7.354-16.727-.915-1.054-3.24-2.078-4.344-2.576-3.759,1.763-8.68,15.37-7.122,18.263a15.274,15.274,0,0,0,4.112,1.04" transform="translate(-3061.454 -2892.376)" fill="#19555b"/>
        <path id="Trazado_1175604" data-name="Trazado 1175604" d="M3208.055,3162.581c8.3-1.57,13.258-12.984,6.457-18.41-2.642-1.156-6.275-1.819-14.642-3.765-.767-.227-4.208-1.63-5.113-2-4.422,2.328-8.284,12.917-5.769,16.173.978.365,2.426.892,4.055,1.611,8.459,3.735,13.468,6.686,15.012,6.394" transform="translate(-2882.908 -2837.885)" fill="#2d8f91"/>
        <path id="Trazado_1175605" data-name="Trazado 1175605" d="M3280.728,3196.7a.4.4,0,0,0-.539-.271,7.856,7.856,0,0,0-3.4,4.063l-.084.2a8.123,8.123,0,0,0-.6,5.383.4.4,0,0,0,.545.256.5.5,0,0,0,.247-.259.533.533,0,0,0,.019-.357,7.27,7.27,0,0,1,.559-4.677c.025-.06.05-.119.079-.174a6.958,6.958,0,0,1,2.894-3.555.524.524,0,0,0,.275-.609m2.848.856a.394.394,0,0,0-.546-.253c-2.506,1.115-5.22,6.671-4.226,9.994a.4.4,0,0,0,.538.27.51.51,0,0,0,.275-.609c-.826-2.782,1.576-7.841,3.694-8.789a.488.488,0,0,0,.246-.256.528.528,0,0,0,.019-.357m-1.24,11.387a.477.477,0,0,0,.267-.264.529.529,0,0,0,.023-.338c-.791-2.881,1.738-8.225,3.892-9.257a.506.506,0,0,0,.25-.62.389.389,0,0,0-.546-.24c-2.545,1.209-5.362,7.02-4.414,10.44a.392.392,0,0,0,.529.279" transform="translate(-2962.197 -2890.327)" fill="#fff"/>
        <path id="Trazado_1175606" data-name="Trazado 1175606" d="M2727.905,2603.426s17.107.366,23.352,6.718c7.884-6.459,16.57-12.27,16.57-12.27s-10.385-8.99-15.926-9.6c-4.989-.547-24,15.149-24,15.149" transform="translate(-2466.685 -2340.411)" fill="#ef2525"/>
        <g id="Grupo_1231783" data-name="Grupo 1231783" transform="translate(261.22 249.983)" opacity="0.5">
          <g id="Grupo_1231782" data-name="Grupo 1231782">
            <g id="Grupo_1231781" data-name="Grupo 1231781" clip-path="url(#clip-path-18)">
              <path id="Trazado_1175607" data-name="Trazado 1175607" d="M2727.905,2623.556s17.107.366,23.352,6.718c7.884-6.459,16.57-12.27,16.57-12.27s-7.8-9.726-11.719-7c-1.992,1.387-7.833,9.482-12.465,11.13-3.551,1.263-8.355-.613-10.292-2.886-3.177,2.43-5.446,4.3-5.446,4.3" transform="translate(-2727.906 -2610.524)" fill="#bf0606"/>
            </g>
          </g>
        </g>
        <path id="Trazado_1175608" data-name="Trazado 1175608" d="M3059.964,2815.511s3.006-16.845-1.994-24.218c7.885-6.459,15.291-13.834,15.291-13.834s6.772,11.951,6.277,17.5c-.446,5-19.573,20.547-19.573,20.547" transform="translate(-2765.152 -2511.496)" fill="#ef2525"/>
        <g id="Grupo_1231786" data-name="Grupo 1231786" transform="translate(292.818 265.964)" opacity="0.5">
          <g id="Grupo_1231785" data-name="Grupo 1231785">
            <g id="Grupo_1231784" data-name="Grupo 1231784" clip-path="url(#clip-path-19)">
              <path id="Trazado_1175609" data-name="Trazado 1175609" d="M3059.964,2815.511s3.006-16.845-1.994-24.218c7.885-6.459,15.291-13.834,15.291-13.834s-9.45,10.256-9.946,15.808c-.22,2.475,1.263,16.577,6.411,13.71-4.886,4.569-9.762,8.533-9.762,8.533" transform="translate(-3057.97 -2777.46)" fill="#bf0606"/>
            </g>
          </g>
        </g>
        <g id="Grupo_1231789" data-name="Grupo 1231789" transform="translate(276.45 218.534)" opacity="0.13">
          <g id="Grupo_1231788" data-name="Grupo 1231788">
            <g id="Grupo_1231787" data-name="Grupo 1231787" clip-path="url(#clip-path-20)">
              <path id="Trazado_1175610" data-name="Trazado 1175610" d="M2899.6,2350.865c12.292-1.747,27.045-8.863,39.461-19.034,21.707-17.787,29.771-44.178,26.627-48.022-3.624-4.419-30.352-1.337-52.324,16.663-10.035,8.223-18.436,18.52-23.45,28.546a56.591,56.591,0,0,0-2.814,6.6l-.1.281,12.305,15.011Z" transform="translate(-2887.005 -2282.013)" fill="#100"/>
            </g>
          </g>
        </g>
        <path id="Trazado_1175611" data-name="Trazado 1175611" d="M2905.14,2355.79c10.392-1.477,25.323-7.552,39.2-18.923,22.093-18.1,29.339-43.883,26.554-47.283-3.147-3.842-29.489-1.367-51.582,16.735-13.879,11.371-22.628,24.991-26.1,34.911Z" transform="translate(-2616.166 -2068.922)" fill="#f4f4f4"/>
        <path id="Trazado_1175612" data-name="Trazado 1175612" d="M2974.95,2694.779a130.5,130.5,0,0,0,11.477,12.322c.672-.277,1.346-.558,2.029-.86a129.706,129.706,0,0,1-20.744-24.882q-.628.91-1.217,1.813a130.849,130.849,0,0,0,8.455,11.608" transform="translate(-2682.435 -2424.594)" fill="#911d1d"/>
        <path id="Trazado_1175613" data-name="Trazado 1175613" d="M3493.539,2331.771a53.427,53.427,0,0,1-15.75-19.9c-.295.082-.593.17-.892.257a54.311,54.311,0,0,0,16.216,20.475c.146-.281.284-.557.426-.835" transform="translate(-3143.974 -2090.482)" fill="#ef2525"/>
        <path id="Trazado_1175614" data-name="Trazado 1175614" d="M2953.358,2735.985a132.151,132.151,0,0,0,10.416,11.318c.359-.128.707-.238,1.069-.373a130.227,130.227,0,0,1-18.817-22.659c-.2.326-.371.643-.56.966a130.733,130.733,0,0,0,7.892,10.748" transform="translate(-2663.418 -2463.399)" fill="#911d1d"/>
        <path id="Trazado_1175615" data-name="Trazado 1175615" d="M3519.569,2300.451a33.659,33.659,0,0,0,8.339,7.357c4.25-9.164,5.376-16.492,3.979-18.2-1.552-1.895-8.751-2.247-18.295.048a33.229,33.229,0,0,0,5.976,10.791" transform="translate(-3177.157 -2068.95)" fill="#ef2525"/>
        <path id="Trazado_1175616" data-name="Trazado 1175616" d="M2896.356,2848.09l-12.47-15.222.85-1.323,13.144,16.072Z" transform="translate(-2607.733 -2560.403)" fill="#ef2525"/>
        <rect id="Rectángulo_423381" data-name="Rectángulo 423381" width="3.474" height="21.152" transform="translate(273.232 273.905) rotate(-39.328)" fill="#911d1d"/>
        <path id="Trazado_1175617" data-name="Trazado 1175617" d="M2889.314,2747.569c-8.342,6.834-15.764,10.958-16.375,10.213-.565-.689,4.893-7.212,13.234-14.046s15.925-10.65,16.321-10.168c.349.427-4.838,7.167-13.18,14" transform="translate(-2597.798 -2471.769)" fill="#ef2525"/>
        <g id="Grupo_1231792" data-name="Grupo 1231792" transform="translate(275.102 219.807)" opacity="0.13">
          <g id="Grupo_1231791" data-name="Grupo 1231791">
            <g id="Grupo_1231790" data-name="Grupo 1231790" clip-path="url(#clip-path-21)">
              <path id="Trazado_1175618" data-name="Trazado 1175618" d="M2952.279,2295.313c-.268,12.137-14.008,30.355-35.079,44.964-15.027,10.418-30.441,16.667-42.22,17.964-1.5,1.786-2.256,3-2.031,3.278.324.4,2.59-.608,5.86-2.625l5.636,6.878,2.688-2.2-.467-.571.12-.1.073-.01a54.157,54.157,0,0,0,6.071-1.284c1.455,7.956-.31,17.914-.31,17.914s5.792-4.934,6.115-5.219c.259-.228,3.647-3.314,3.647-3.314,4.792-4.481,9.591-9.54,9.812-12.015a14.412,14.412,0,0,0-.749-4.993,101.777,101.777,0,0,0,14.876-10.122c21.707-17.788,29.771-44.179,26.627-48.023a3.1,3.1,0,0,0-.667-.522" transform="translate(-2872.909 -2295.313)" fill="#100"/>
            </g>
          </g>
        </g>
        <g id="Grupo_1231795" data-name="Grupo 1231795" transform="translate(329.175 220.333)" opacity="0.29">
          <g id="Grupo_1231794" data-name="Grupo 1231794">
            <g id="Grupo_1231793" data-name="Grupo 1231793" clip-path="url(#clip-path-22)">
              <path id="Trazado_1175619" data-name="Trazado 1175619" d="M3454.942,2301.458c.417,1.163-3.086,3.483-7.824,5.181s-8.917,2.132-9.333.969,3.085-3.483,7.824-5.181,8.917-2.131,9.333-.969" transform="translate(-3437.75 -2300.806)" fill="#fff"/>
            </g>
          </g>
        </g>
        <path id="Trazado_1175620" data-name="Trazado 1175620" d="M3351.389,2447a9.395,9.395,0,1,1,1.306-13.184,9.369,9.369,0,0,1-1.306,13.184" transform="translate(-3016.648 -2197.61)" fill="#ef2525"/>
        <path id="Trazado_1175621" data-name="Trazado 1175621" d="M3368.633,2463.984a7.431,7.431,0,1,1,1.033-10.428,7.411,7.411,0,0,1-1.033,10.428" transform="translate(-3035.132 -2216.116)" fill="#84a6ce"/>
        <g id="Grupo_1231798" data-name="Grupo 1231798" transform="translate(321.406 235.514)" opacity="0.36">
          <g id="Grupo_1231797" data-name="Grupo 1231797">
            <g id="Grupo_1231796" data-name="Grupo 1231796" clip-path="url(#clip-path-23)">
              <path id="Trazado_1175622" data-name="Trazado 1175622" d="M3367.345,2459.378l-10.546,4.865a7.426,7.426,0,0,0-.18,2.188l12.514-5.772a7.4,7.4,0,0,0-1.788-1.281m3.716,8.864-9.894,4.564a7.407,7.407,0,0,0,1.364.424l7.973-3.678a7.324,7.324,0,0,0,.556-1.309m-.618-5.881-13.373,6.169a7.335,7.335,0,0,0,2.654,3.463l11.654-5.376a7.415,7.415,0,0,0-.935-4.256" transform="translate(-3356.602 -2459.378)" fill="#fff"/>
            </g>
          </g>
        </g>
        <g id="Grupo_1231801" data-name="Grupo 1231801" transform="translate(294.79 260.872)" opacity="0.23">
          <g id="Grupo_1231800" data-name="Grupo 1231800">
            <g id="Grupo_1231799" data-name="Grupo 1231799" clip-path="url(#clip-path-24)">
              <path id="Trazado_1175623" data-name="Trazado 1175623" d="M3078.583,2738.4c.332-1.457,3.875-2.527,5.976-3.059,1.091-.276,2.448-.432,2.363-.7-.13-.419-6.548-.535-6.195-2.271.143-.7,5.822-3.292,8.017-3.126,2.748.21,4.688.529,4.656.046-.031-.465-4.563-2.713-2.885-4.639.684-.785,4.825-.161,6.755.2s8.275,3.815,10.854,4.939c0,0,.919,10.766,1.163,11.363-7.537,2.875-15.894,6.469-19.677,7.194-1.8.345-6.637-1.57-6.72-2.07-.225-1.354.8-1.626.644-1.824-.231-.293-3.036-.589-3.261-1.307-.619-1.968,1.255-2.784,1.25-3.04-.006-.361-3.214-.5-2.939-1.7" transform="translate(-3078.566 -2724.272)" fill="#a31708"/>
            </g>
          </g>
        </g>
        <path id="Trazado_1175624" data-name="Trazado 1175624" d="M3091.742,2750.095c3.783-.725,7.99-1.96,15.528-4.835,5.455-2.082,5.374-6.715,3.881-9.422-.858-1.555-8.788-8.153-11.713-8.7-1.929-.361-5.87-.935-6.187-.6-1.53,1.616.876,3.535,4.061,4.266a4.637,4.637,0,0,1,2.588,2.012c-.025.747-6.2-.952-8.95-1.161-2.195-.167-7.852,1.967-7.995,2.672-.353,1.736,4.73,1.258,6.808,1.246a15.453,15.453,0,0,1,4.128,1.151c-1.581.538-4.6.848-5.695,1.124-2.1.532-6.847,1.076-7.153,2.538-.24,1.143,2.867,1.472,6.641,1.229.915-.059,4.32-.178,6.544-.191a45.5,45.5,0,0,1-5.7,1.505c-2.178.084-5.151-.074-5.962,1.958-.221.555,4.679,1.649,6.915,1.369,1-.125,3.211-.312,5.823-.82a50.287,50.287,0,0,1-4.771,1.692c-3.308-.373-4.643-.407-5.279,1.105-.2.467,4.686,2.209,6.488,1.863" transform="translate(-2786.005 -2465.356)" fill="#ffc19f"/>
        <path id="Trazado_1175625" data-name="Trazado 1175625" d="M3335.964,2642.351c-.766.346-5.892-9.108-5.159-9.52,10.948-6.163,27.669-16.661,31.116-18.48,0,0,3.75,7.22.989,13.657-2.2,5.126-16.826,9.774-26.946,14.343" transform="translate(-3011.804 -2364.001)" fill="#ffc19f"/>
        <path id="Trazado_1175626" data-name="Trazado 1175626" d="M3552.158,1864.663c-1.474,8.3-8.215,13.983-13.508,13.619s-6.627-6.964-6.08-14.886,5.282-14.068,10.573-13.682c7.232.527,10.4,7.151,9.015,14.949" transform="translate(-3194.216 -1672.549)" fill="#f4b18c"/>
        <path id="Trazado_1175627" data-name="Trazado 1175627" d="M2891.893,1413.216c-1.313,28.284-20.6,40.137-46.791,38.922s-44.8-14.828-43.49-43.112,20.823-33.961,47.011-32.746,44.582,8.652,43.269,36.936" transform="translate(-2533.277 -1244.317)" fill="#752912"/>
        <path id="Trazado_1175628" data-name="Trazado 1175628" d="M2933.4,1548.756c-2.906,11.969-17.768,20.283-29.051,19.61-23.713-1.412-47.658-16.409-46.12-49.555s18.636-33.228,41.892-32.149c15.529.721,28.475,1.631,34.414,12.2,3.665,6.519.652,42.544-1.135,49.9" transform="translate(-2584.468 -1343.998)" fill="#ffc19f"/>
        <path id="Trazado_1175629" data-name="Trazado 1175629" d="M3012.649,2005.134c-.211,1.9,2.417,3.749,5.87,4.133s6.423-.844,6.634-2.743-2.418-3.749-5.87-4.133-6.423.844-6.634,2.742" transform="translate(-2724.159 -1810.563)" fill="#ff9797"/>
        <path id="Trazado_1175630" data-name="Trazado 1175630" d="M3545.082,2023.465c.049,1.694,2.443,3,5.348,2.913s5.217-1.527,5.168-3.221-2.445-3-5.348-2.913-5.218,1.527-5.168,3.221" transform="translate(-3205.631 -1826.766)" fill="#ff9797"/>
        <path id="Trazado_1175631" data-name="Trazado 1175631" d="M3001.951,1221.566c.561,3.914-1.5,7.088-4.991,9.708,2.486-4.657,2.878-10.782-1.912-18.59-3.663,2.665-7.554,5.481-11.442,8.276a16.346,16.346,0,0,0,.056-6.552c-6.335,7.5-12.525,6.918-33.181,10.705-14.132,2.592-17.379,11.671-15.9,16.973,9.573-1.7,23.1,3.938,33.386,4.415,12.893.6,22.817-1.2,28.093-4.593,6.4-4.117,11.689-12.578,5.888-20.343" transform="translate(-2653.281 -1096.519)" fill="#752912"/>
        <path id="Trazado_1175632" data-name="Trazado 1175632" d="M3451.765,1716.576a1.705,1.705,0,0,1,1.059.6c2.174,2.626,6.88,3.958,10.957,3.1a1.7,1.7,0,1,1,.7,3.337c-5.3,1.12-11.31-.68-14.283-4.261a1.7,1.7,0,0,1,1.567-2.774" transform="translate(-3119.478 -1552.155)" fill="#752912"/>
        <path id="Trazado_1175633" data-name="Trazado 1175633" d="M3100.518,1714.771a1.7,1.7,0,0,1,1.535,2.791c-3.01,3.546-11.769,5.372-17.07,4.194a1.705,1.705,0,0,1,.739-3.329c4.07.909,11.528-.474,13.73-3.072a1.7,1.7,0,0,1,1.066-.585" transform="translate(-2788.371 -1550.526)" fill="#752912"/>
        <path id="Trazado_1175634" data-name="Trazado 1175634" d="M3325.184,2000.846a.392.392,0,0,1-.37-.344,2.792,2.792,0,0,0-5.465-.262.391.391,0,0,1-.768-.147,3.573,3.573,0,0,1,7.009.316.392.392,0,0,1-.342.435Z" transform="translate(-3000.809 -1806.072)" fill="#c4735b"/>
        <path id="Trazado_1175635" data-name="Trazado 1175635" d="M2799.557,1463.132c-1.019,13.867-6.579,22.458-12.47,22.167s-9.451-17.173-8.768-31.06c.784-15.9,9.489-21.884,15.448-22.553,5.862-.658,6.948,15.684,5.79,31.446" transform="translate(-2512.198 -1294.538)" fill="#752912"/>
        <path id="Trazado_1175636" data-name="Trazado 1175636" d="M2744.151,1862.777c2.321,9.084,11.119,14.819,17.756,13.961s5.961-27.821-5.989-30.219c-9.952-2-13.948,7.72-11.767,16.259" transform="translate(-2480.852 -1669.436)" fill="#ffc19f"/>
        <path id="Trazado_1175637" data-name="Trazado 1175637" d="M2825.962,1942.181c.5,3.835,4.776,7.1,8.024,6.058,1.267-.4-.781-13.782-2.8-13.8-3.41-.023-5.722,3.9-5.226,7.737" transform="translate(-2555.295 -1749.183)" fill="#e0956c"/>
        <path id="Trazado_1175638" data-name="Trazado 1175638" d="M3460.417,1898.63a13.727,13.727,0,0,1,14.561-3.3,1.131,1.131,0,0,1,.646,1.477,1.163,1.163,0,0,1-.675.66,1.279,1.279,0,0,1-.824,0c-3.724-1.13-6.763-.862-9.513.774a13.668,13.668,0,0,1,7.719,3.082,1.092,1.092,0,0,1-.186,1.608,1.17,1.17,0,0,1-.912.243,2.132,2.132,0,0,1-.709-.408c-3.418-2.094-6.518-2.678-9.042-2.224a1.267,1.267,0,0,1-1.19-.295c-.694-.748.125-1.615.125-1.615" transform="translate(-3128.707 -1713.043)" fill="#72221a"/>
        <path id="Trazado_1175639" data-name="Trazado 1175639" d="M3095.428,1880.748a16.471,16.471,0,0,0-16.472-4.027,1.187,1.187,0,0,0-.812,1.537,1.259,1.259,0,0,0,.738.722,1.569,1.569,0,0,0,.941.029c4.312-1.057,7.771-.662,10.832,1.169-3.044.2-6.616,1.071-8.977,2.974a1.1,1.1,0,0,0,.131,1.707,1.4,1.4,0,0,0,1.03.291,2.533,2.533,0,0,0,.831-.4c4.011-2.088,7.583-2.59,10.445-2.017a1.551,1.551,0,0,0,1.375-.268c.83-.765-.025-1.672-.062-1.712" transform="translate(-2783.327 -1696.319)" fill="#72221a"/>
        <path id="Trazado_1175640" data-name="Trazado 1175640" d="M3223.039,2094.632c.51-4.767,5.929-8.956,11.79-8.329s9.965,4.979,9.69,9.766c-.3,5.2-4.335,2.474-10.23,2.165s-11.76,1.165-11.25-3.6" transform="translate(-2914.391 -1886.448)" fill="#5b0000"/>
        <path id="Trazado_1175641" data-name="Trazado 1175641" d="M3282.567,2087.715c-1.606.624-4.456.767-7.89.4a21.076,21.076,0,0,1-6.184-1.375,11.357,11.357,0,0,1,14.074.976" transform="translate(-2955.522 -1885.087)" fill="#fff"/>
        <path id="Trazado_1175642" data-name="Trazado 1175642" d="M3249.342,2176.748c-5.477-.327-7.894.645-9.687-.549,1.725-1.948,4.963-3.467,9.49-3.066,4.894.433,7.734,2.222,8.889,4.416-1.689.761-4.576-.554-8.692-.8" transform="translate(-2929.444 -1964.964)" fill="#d36553"/>
      </g>
    </g>
  </g>
</svg>
