<svg xmlns="http://www.w3.org/2000/svg" xmlns:xlink="http://www.w3.org/1999/xlink" width="103" height="103" viewBox="0 0 103 103">
  <defs>
    <filter id="Trazado_978624" x="0" y="0" width="103" height="103" filterUnits="userSpaceOnUse">
      <feOffset dy="3" input="SourceAlpha"/>
      <feGaussianBlur stdDeviation="3" result="blur"/>
      <feFlood flood-opacity="0.161"/>
      <feComposite operator="in" in2="blur"/>
      <feComposite in="SourceGraphic"/>
    </filter>
  </defs>
  <g id="Grupo_1231812" data-name="Grupo 1231812" transform="translate(-169 -4041)">
    <g id="Grupo_1218031" data-name="Grupo 1218031" transform="translate(-26 3300.127)">
      <g id="Grupo_1217138" data-name="Grupo 1217138" transform="translate(204 746.873)">
        <g id="Grupo_1210955" data-name="Grupo 1210955">
          <g id="Grupo_1209912" data-name="Grupo 1209912">
            <g id="Grupo_1178144" data-name="Grupo 1178144">
              <g id="Grupo_1177896" data-name="Grupo 1177896">
                <g id="Grupo_1176881" data-name="Grupo 1176881">
                  <g id="Grupo_1175148" data-name="Grupo 1175148">
                    <g id="Grupo_1173798" data-name="Grupo 1173798">
                      <g id="Grupo_1171925" data-name="Grupo 1171925">
                        <g id="Grupo_1164524" data-name="Grupo 1164524">
                          <g id="Grupo_1144123" data-name="Grupo 1144123">
                            <g transform="matrix(1, 0, 0, 1, -9, -6)" filter="url(#Trazado_978624)">
                              <g id="Trazado_978624-2" data-name="Trazado 978624" transform="translate(9 6)" fill="#f6f6f6">
                                <path d="M 42.5 83.5 C 36.96437835693359 83.5 31.59512901306152 82.41617584228516 26.54141235351562 80.27863311767578 C 21.65934181213379 78.21369171142578 17.27447128295898 75.25723266601562 13.50862312316895 71.49137878417969 C 9.742764472961426 67.72553253173828 6.786305904388428 63.34066009521484 4.721364498138428 58.45858764648438 C 2.583823442459106 53.40486907958984 1.5 48.03562164306641 1.5 42.5 C 1.5 36.96437835693359 2.583823442459106 31.59512901306152 4.721364498138428 26.54141235351562 C 6.786305904388428 21.65934181213379 9.742764472961426 17.27447128295898 13.50862312316895 13.50862312316895 C 17.27447128295898 9.742764472961426 21.65934181213379 6.786305904388428 26.54141235351562 4.721364498138428 C 31.59512901306152 2.583823442459106 36.96437835693359 1.5 42.5 1.5 C 48.03562164306641 1.5 53.40486907958984 2.583823442459106 58.45858764648438 4.721364498138428 C 63.34066009521484 6.786305904388428 67.72553253173828 9.742764472961426 71.49137878417969 13.50862312316895 C 75.25723266601562 17.27447128295898 78.21369171142578 21.65934181213379 80.27863311767578 26.54141235351562 C 82.41617584228516 31.59512901306152 83.5 36.96437835693359 83.5 42.5 C 83.5 48.03562164306641 82.41617584228516 53.40486907958984 80.27863311767578 58.45858764648438 C 78.21369171142578 63.34066009521484 75.25723266601562 67.72553253173828 71.49137878417969 71.49137878417969 C 67.72553253173828 75.25723266601562 63.34066009521484 78.21369171142578 58.45858764648438 80.27863311767578 C 53.40486907958984 82.41617584228516 48.03562164306641 83.5 42.5 83.5 Z" stroke="none"/>
                                <path d="M 42.5 3 C 37.16621398925781 3 31.99356079101562 4.043960571289062 27.125732421875 6.102882385253906 C 22.42246627807617 8.092185974121094 18.19785308837891 10.94070434570312 14.56928253173828 14.56928253173828 C 10.94070434570312 18.19785308837891 8.092185974121094 22.42246627807617 6.102882385253906 27.125732421875 C 4.043960571289062 31.99356079101562 3 37.16621398925781 3 42.5 C 3 47.83378601074219 4.043960571289062 53.00643920898438 6.102882385253906 57.87425231933594 C 8.092185974121094 62.57753372192383 10.94070434570312 66.80213165283203 14.56928253173828 70.43071746826172 C 18.19786834716797 74.05929565429688 22.42246627807617 76.90781402587891 27.125732421875 78.89711761474609 C 31.99356079101562 80.95603942871094 37.16621398925781 82 42.5 82 C 47.83378601074219 82 53.00642395019531 80.95603942871094 57.87425231933594 78.89711761474609 C 62.57753372192383 76.90781402587891 66.80213165283203 74.05929565429688 70.43071746826172 70.43071746826172 C 74.05929565429688 66.80213165283203 76.90781402587891 62.57753372192383 78.89711761474609 57.87425231933594 C 80.95603942871094 53.00642395019531 82 47.83378601074219 82 42.5 C 82 37.16621398925781 80.95603942871094 31.99356079101562 78.89711761474609 27.125732421875 C 76.90781402587891 22.42246627807617 74.05929565429688 18.19786834716797 70.43071746826172 14.56928253173828 C 66.80213165283203 10.94070434570312 62.57753372192383 8.092185974121094 57.87425231933594 6.102882385253906 C 53.00643920898438 4.043960571289062 47.83378601074219 3 42.5 3 M 42.5 0 C 65.97209167480469 0 85 19.02789306640625 85 42.5 C 85 65.97209167480469 65.97209167480469 85 42.5 85 C 19.02789306640625 85 0 65.97209167480469 0 42.5 C 0 19.02789306640625 19.02789306640625 0 42.5 0 Z" stroke="none" fill="#b0aeae"/>
                              </g>
                            </g>
                          </g>
                        </g>
                      </g>
                    </g>
                  </g>
                </g>
              </g>
            </g>
          </g>
        </g>
      </g>
    </g>
    <g id="higiene" transform="translate(179.929 4061.989)">
      <g id="Grupo_1231809" data-name="Grupo 1231809" transform="translate(14.923 0.821)">
        <path id="Trazado_1175661" data-name="Trazado 1175661" d="M114.565,26.729a19.184,19.184,0,1,1-2.053-8.653,19.229,19.229,0,0,1,2.053,8.653Z" transform="translate(-70.142 -7.5)" fill="#5de1c4"/>
        <g id="Grupo_1231808" data-name="Grupo 1231808" transform="translate(23.552)">
          <path id="Trazado_1175662" data-name="Trazado 1175662" d="M257.717,26.729A19.229,19.229,0,0,1,238.487,45.96c-.553,0-1.1-.023-1.641-.07a19.23,19.23,0,0,0,0-38.32c.541-.047,1.089-.07,1.641-.07a19.229,19.229,0,0,1,19.229,19.229Z" transform="translate(-236.846 -7.5)" fill="#0ed2b3"/>
          <circle id="Elipse_12644" data-name="Elipse 12644" cx="2.456" cy="2.456" r="2.456" transform="translate(6.121 25.364)" fill="#0ed2b3"/>
          <path id="Trazado_1175663" data-name="Trazado 1175663" d="M338.372,62.891a4.357,4.357,0,1,1-4.3-5.071,4.407,4.407,0,0,1,.64.047A19.263,19.263,0,0,1,338.372,62.891Z" transform="translate(-319.554 -52.314)" fill="#0ed2b3"/>
        </g>
        <circle id="Elipse_12645" data-name="Elipse 12645" cx="4.357" cy="4.357" r="4.357" transform="translate(36.996 5.506)" fill="#99e6fc"/>
        <path id="Trazado_1175664" data-name="Trazado 1175664" d="M390.534,62.177a4.36,4.36,0,0,1-6,4.038,4.359,4.359,0,0,0,0-8.075,4.36,4.36,0,0,1,6,4.038Z" transform="translate(-344.824 -52.314)" fill="#62dbfb"/>
        <circle id="Elipse_12646" data-name="Elipse 12646" cx="2.456" cy="2.456" r="2.456" transform="translate(32.129 25.364)" fill="#99e6fc"/>
        <path id="Trazado_1175665" data-name="Trazado 1175665" d="M330.139,241.765a2.455,2.455,0,0,1-3.683,2.126,2.455,2.455,0,0,0,0-4.252,2.455,2.455,0,0,1,3.683,2.126Z" transform="translate(-293.099 -213.945)" fill="#62dbfb"/>
        <circle id="Elipse_12647" data-name="Elipse 12647" cx="4.357" cy="4.357" r="4.357" transform="translate(2.887 23.463)" fill="#99e6fc"/>
        <path id="Trazado_1175666" data-name="Trazado 1175666" d="M78.794,226.287a4.36,4.36,0,0,1-6,4.036,4.358,4.358,0,0,0,0-8.074,4.36,4.36,0,0,1,6,4.038Z" transform="translate(-67.194 -198.467)" fill="#62dbfb"/>
        <path id="Trazado_1175667" data-name="Trazado 1175667" d="M39.306,326.759l.547-1.867,18.625-3.152a8.25,8.25,0,0,0,5.7-3.886l5.043-8.395a2.24,2.24,0,0,0-3.482-2.758l-8.057,7.844-22.924-2.623A8.765,8.765,0,0,0,25.6,317.5l-3.907,8.812a1.04,1.04,0,0,0,.95,1.461h15.3a1.418,1.418,0,0,0,1.361-1.019Z" transform="translate(-21.602 -273.396)" fill="#ffdfcf"/>
        <path id="Trazado_1175668" data-name="Trazado 1175668" d="M174.885,309.452l-5.043,8.4a8.253,8.253,0,0,1-5.7,3.885l-18.625,3.152-.547,1.867a1.418,1.418,0,0,1-1.361,1.019h-3.36a2.144,2.144,0,0,0,1.647-1.366l.122-.33a1.724,1.724,0,0,1,1.409-1.392l17.433-2.951a8.253,8.253,0,0,0,5.7-3.885l5.043-8.4a2.24,2.24,0,0,0-.279-2.68l.08-.078a2.239,2.239,0,0,1,3.482,2.757Z" transform="translate(-127.271 -273.391)" fill="#ffcebf"/>
        <path id="Trazado_1175669" data-name="Trazado 1175669" d="M166.562,313.1l10.466-5.829a2.4,2.4,0,0,1,2.741,3.916l-5.395,4.665-8.455,4.417Z" transform="translate(-150.128 -274.197)" fill="#ffdfcf"/>
        <path id="Trazado_1175670" data-name="Trazado 1175670" d="M166.562,313.1l10.466-5.829a2.4,2.4,0,0,1,2.741,3.916l-5.395,4.665-8.455,4.417Z" transform="translate(-150.128 -274.197)" fill="#ffdfcf"/>
        <path id="Trazado_1175671" data-name="Trazado 1175671" d="M166.562,313.1l10.466-5.829a2.4,2.4,0,0,1,2.741,3.916l-5.395,4.665-8.455,4.417Z" transform="translate(-150.128 -274.197)" fill="#ffdfcf"/>
        <path id="Trazado_1175672" data-name="Trazado 1175672" d="M229.834,307.263a2.456,2.456,0,0,0-2.332.052l-.492.274a2.4,2.4,0,0,1-.021,3.618l-4.117,3.561a.629.629,0,0,0,.411,1.1h1.61l5.395-4.665A2.4,2.4,0,0,0,229.834,307.263Z" transform="translate(-200.654 -274.223)" fill="#ffcebf"/>
        <path id="Trazado_1175673" data-name="Trazado 1175673" d="M187.446,110.251h-2.431v-2.431a3.08,3.08,0,1,0-6.159,0v2.431h-2.431a3.08,3.08,0,0,0,0,6.159h2.431v2.431a3.08,3.08,0,1,0,6.159,0V116.41h2.431a3.08,3.08,0,1,0,0-6.159Z" transform="translate(-156.742 -94.101)" fill="#f2fbff"/>
        <path id="Trazado_1175674" data-name="Trazado 1175674" d="M247.08,113.4a3.121,3.121,0,0,1-3.141,3.013H241.57v2.43a3.079,3.079,0,0,1-4.72,2.606,3.079,3.079,0,0,0,1.438-2.606v-.995a1.435,1.435,0,0,1,1.435-1.435h.933A3.121,3.121,0,0,0,243.8,113.4a3.078,3.078,0,0,0-3.078-3.146h-1a1.435,1.435,0,0,1-1.435-1.435v-1a3.077,3.077,0,0,0-1.438-2.605,3.07,3.07,0,0,1,1.783-.471,3.122,3.122,0,0,1,2.937,3.142v2.365H244a3.078,3.078,0,0,1,3.078,3.146Z" transform="translate(-213.298 -94.101)" fill="#dff6fd"/>
      </g>
      <g id="Grupo_1231811" data-name="Grupo 1231811" transform="translate(14.103 0)">
        <path id="Trazado_1175675" data-name="Trazado 1175675" d="M61.34,177.432a3.21,3.21,0,0,0-2.857.782L50.7,185.785l-7.687-.879.478-.413a20.053,20.053,0,0,0,16.671-19.766c0-.5-.019-1.015-.056-1.516a.821.821,0,1,0-1.637.122c.034.461.052.929.052,1.393A18.418,18.418,0,0,1,45.8,182.24a3.223,3.223,0,0,0-4.381-4.388l-10.235,5.7-3.016-.345A9.588,9.588,0,0,0,18.159,189.3l-3.9,8.787a1.86,1.86,0,0,0,1.7,2.614h15.3a2.251,2.251,0,0,0,2.148-1.609l.4-1.375,9.224-1.561a.821.821,0,1,0-.274-1.618l-9.73,1.647a.821.821,0,0,0-.651.578l-.547,1.867a.6.6,0,0,1-.573.429h-15.3a.219.219,0,0,1-.2-.307l3.907-8.813q.011-.026.021-.053a7.913,7.913,0,0,1,8.277-5.049h.011l3.284.375a.833.833,0,0,0,.492-.1l10.466-5.829a1.578,1.578,0,0,1,1.5-.02,1.582,1.582,0,0,1,.3,2.6l-5.395,4.665a.821.821,0,1,0,1.074,1.241l1.625-1.405,9.574,1.095a.82.82,0,0,0,.666-.227l8.058-7.844a1.446,1.446,0,0,1,2.3.47,1.4,1.4,0,0,1-.093,1.277l-5.043,8.4a7.423,7.423,0,0,1-5.129,3.5l-5.009.848a.821.821,0,1,0,.274,1.618l5.008-.848a9.063,9.063,0,0,0,6.262-4.272l5.043-8.4a3.061,3.061,0,0,0-1.9-4.55Z" transform="translate(-14.103 -144.677)"/>
        <path id="Trazado_1175676" data-name="Trazado 1175676" d="M43.905,23.769a5.177,5.177,0,1,0,4.447,9.291,20.075,20.075,0,0,0,4.594,3.973.821.821,0,0,0,.874-1.389,18.437,18.437,0,0,1-4.22-3.651,5.153,5.153,0,0,0,1.237-3.353,5.207,5.207,0,0,0-5.319-5.174A18.417,18.417,0,0,1,63.609,1.641,18.217,18.217,0,0,1,76.372,6.782a5.16,5.16,0,1,0,1.436-.889A20.05,20.05,0,0,0,43.559,20.051a20.207,20.207,0,0,0,.346,3.719ZM49.2,28.64A3.536,3.536,0,1,1,45.659,25.1,3.54,3.54,0,0,1,49.2,28.64Zm34.11-17.956a3.536,3.536,0,1,1-3.536-3.536,3.54,3.54,0,0,1,3.536,3.536Z" transform="translate(-37.596 0)"/>
        <path id="Trazado_1175677" data-name="Trazado 1175677" d="M175.253,116.061a3.9,3.9,0,0,0,3.9-3.9v-1.61h1.61a3.9,3.9,0,0,0,0-7.8h-1.61v-1.61a3.9,3.9,0,0,0-7.8,0v1.61h-1.61a3.9,3.9,0,0,0,0,7.8h1.61v1.61A3.9,3.9,0,0,0,175.253,116.061Zm-5.51-7.152a2.259,2.259,0,0,1,0-4.518h2.431a.821.821,0,0,0,.821-.821V101.14a2.259,2.259,0,0,1,4.518,0v2.431a.821.821,0,0,0,.821.821h2.431a2.259,2.259,0,0,1,0,4.518h-2.431a.821.821,0,0,0-.821.821v2.431a2.259,2.259,0,1,1-4.518,0V109.73a.821.821,0,0,0-.821-.821Z" transform="translate(-149.24 -86.6)"/>
        <path id="Trazado_1175678" data-name="Trazado 1175678" d="M311.005,238.359a3.276,3.276,0,1,0-3.276-3.276A3.28,3.28,0,0,0,311.005,238.359Zm0-4.911a1.635,1.635,0,1,1-1.635,1.635A1.637,1.637,0,0,1,311.005,233.447Z" transform="translate(-275.601 -206.442)"/>
        <path id="Trazado_1175679" data-name="Trazado 1175679" d="M25.565,47.735h1v1a.821.821,0,1,0,1.641,0v-1h1a.821.821,0,0,0,0-1.641h-1v-1a.821.821,0,1,0-1.641,0v1h-1a.821.821,0,0,0,0,1.641Z" transform="translate(-23.58 -39.429)"/>
        <path id="Trazado_1175680" data-name="Trazado 1175680" d="M437.74,9.921h1v1a.821.821,0,1,0,1.641,0v-1h1a.821.821,0,1,0,0-1.641h-1v-1a.821.821,0,0,0-1.641,0v1h-1a.821.821,0,0,0,0,1.641Z" transform="translate(-390.655 -5.752)"/>
        <path id="Trazado_1175681" data-name="Trazado 1175681" d="M441.381,237.426h-1v-1a.821.821,0,1,0-1.641,0v1h-1a.821.821,0,0,0,0,1.641h1v1a.821.821,0,1,0,1.641,0v-1h1a.821.821,0,0,0,0-1.641Z" transform="translate(-390.655 -209.825)"/>
        <circle id="Elipse_12648" data-name="Elipse 12648" cx="0.821" cy="0.821" r="0.821" transform="translate(6.195 2.527)"/>
        <circle id="Elipse_12649" data-name="Elipse 12649" cx="0.821" cy="0.821" r="0.821" transform="translate(1.245 17.527)"/>
        <circle id="Elipse_12650" data-name="Elipse 12650" cx="0.821" cy="0.821" r="0.821" transform="translate(16.603 9.178)"/>
        <circle id="Elipse_12651" data-name="Elipse 12651" cx="0.821" cy="0.821" r="0.821" transform="translate(5.626 27.191)"/>
        <g id="Grupo_1231810" data-name="Grupo 1231810" transform="translate(16.832 28.726)">
          <circle id="Elipse_12652" data-name="Elipse 12652" cx="0.821" cy="0.821" r="0.821" transform="translate(2.2)"/>
          <circle id="Elipse_12653" data-name="Elipse 12653" cx="0.821" cy="0.821" r="0.821" transform="translate(0 3.167)"/>
        </g>
        <circle id="Elipse_12654" data-name="Elipse 12654" cx="0.821" cy="0.821" r="0.821" transform="translate(40.78 11.273)"/>
        <circle id="Elipse_12655" data-name="Elipse 12655" cx="0.821" cy="0.821" r="0.821" transform="translate(51.295 23.463)"/>
      </g>
    </g>
  </g>
</svg>
