<svg xmlns="http://www.w3.org/2000/svg" xmlns:xlink="http://www.w3.org/1999/xlink" width="103" height="103" viewBox="0 0 103 103">
  <defs>
    <filter id="Trazado_978624" x="0" y="0" width="103" height="103" filterUnits="userSpaceOnUse">
      <feOffset dy="3" input="SourceAlpha"/>
      <feGaussianBlur stdDeviation="3" result="blur"/>
      <feFlood flood-opacity="0.161"/>
      <feComposite operator="in" in2="blur"/>
      <feComposite in="SourceGraphic"/>
    </filter>
  </defs>
  <g id="Grupo_1231454" data-name="Grupo 1231454" transform="translate(-193.375 -530.157)">
    <g id="Grupo_1220055" data-name="Grupo 1220055" transform="translate(202.375 536.157)">
      <g id="Grupo_1218068" data-name="Grupo 1218068">
        <g id="Grupo_1213565" data-name="Grupo 1213565">
          <g id="Grupo_1210098" data-name="Grupo 1210098">
            <g id="Grupo_1178144" data-name="Grupo 1178144">
              <g id="Grupo_1177896" data-name="Grupo 1177896">
                <g id="Grupo_1176881" data-name="Grupo 1176881">
                  <g id="Grupo_1175148" data-name="Grupo 1175148">
                    <g id="Grupo_1173798" data-name="Grupo 1173798">
                      <g id="Grupo_1171925" data-name="Grupo 1171925">
                        <g id="Grupo_1164524" data-name="Grupo 1164524">
                          <g id="Grupo_1144123" data-name="Grupo 1144123">
                            <g transform="matrix(1, 0, 0, 1, -9, -6)" filter="url(#Trazado_978624)">
                              <g id="Trazado_978624-2" data-name="Trazado 978624" transform="translate(9 6)" fill="#f6f6f6">
                                <path d="M 42.5 83.5 C 36.96437835693359 83.5 31.59512901306152 82.41617584228516 26.54141235351562 80.27863311767578 C 21.65934181213379 78.21369171142578 17.27447128295898 75.25723266601562 13.50862312316895 71.49137878417969 C 9.742764472961426 67.72553253173828 6.786305904388428 63.34066009521484 4.721364498138428 58.45858764648438 C 2.583823442459106 53.40486907958984 1.5 48.03562164306641 1.5 42.5 C 1.5 36.96437835693359 2.583823442459106 31.59512901306152 4.721364498138428 26.54141235351562 C 6.786305904388428 21.65934181213379 9.742764472961426 17.27447128295898 13.50862312316895 13.50862312316895 C 17.27447128295898 9.742764472961426 21.65934181213379 6.786305904388428 26.54141235351562 4.721364498138428 C 31.59512901306152 2.583823442459106 36.96437835693359 1.5 42.5 1.5 C 48.03562164306641 1.5 53.40486907958984 2.583823442459106 58.45858764648438 4.721364498138428 C 63.34066009521484 6.786305904388428 67.72553253173828 9.742764472961426 71.49137878417969 13.50862312316895 C 75.25723266601562 17.27447128295898 78.21369171142578 21.65934181213379 80.27863311767578 26.54141235351562 C 82.41617584228516 31.59512901306152 83.5 36.96437835693359 83.5 42.5 C 83.5 48.03562164306641 82.41617584228516 53.40486907958984 80.27863311767578 58.45858764648438 C 78.21369171142578 63.34066009521484 75.25723266601562 67.72553253173828 71.49137878417969 71.49137878417969 C 67.72553253173828 75.25723266601562 63.34066009521484 78.21369171142578 58.45858764648438 80.27863311767578 C 53.40486907958984 82.41617584228516 48.03562164306641 83.5 42.5 83.5 Z" stroke="none"/>
                                <path d="M 42.5 3 C 37.16621398925781 3 31.99356079101562 4.043960571289062 27.125732421875 6.102882385253906 C 22.42246627807617 8.092185974121094 18.19785308837891 10.94070434570312 14.56928253173828 14.56928253173828 C 10.94070434570312 18.19785308837891 8.092185974121094 22.42246627807617 6.102882385253906 27.125732421875 C 4.043960571289062 31.99356079101562 3 37.16621398925781 3 42.5 C 3 47.83378601074219 4.043960571289062 53.00643920898438 6.102882385253906 57.87425231933594 C 8.092185974121094 62.57753372192383 10.94070434570312 66.80213165283203 14.56928253173828 70.43071746826172 C 18.19786834716797 74.05929565429688 22.42246627807617 76.90781402587891 27.125732421875 78.89711761474609 C 31.99356079101562 80.95603942871094 37.16621398925781 82 42.5 82 C 47.83378601074219 82 53.00642395019531 80.95603942871094 57.87425231933594 78.89711761474609 C 62.57753372192383 76.90781402587891 66.80213165283203 74.05929565429688 70.43071746826172 70.43071746826172 C 74.05929565429688 66.80213165283203 76.90781402587891 62.57753372192383 78.89711761474609 57.87425231933594 C 80.95603942871094 53.00642395019531 82 47.83378601074219 82 42.5 C 82 37.16621398925781 80.95603942871094 31.99356079101562 78.89711761474609 27.125732421875 C 76.90781402587891 22.42246627807617 74.05929565429688 18.19786834716797 70.43071746826172 14.56928253173828 C 66.80213165283203 10.94070434570312 62.57753372192383 8.092185974121094 57.87425231933594 6.102882385253906 C 53.00643920898438 4.043960571289062 47.83378601074219 3 42.5 3 M 42.5 0 C 65.97209167480469 0 85 19.02789306640625 85 42.5 C 85 65.97209167480469 65.97209167480469 85 42.5 85 C 19.02789306640625 85 0 65.97209167480469 0 42.5 C 0 19.02789306640625 19.02789306640625 0 42.5 0 Z" stroke="none" fill="#605f5f"/>
                              </g>
                            </g>
                          </g>
                        </g>
                      </g>
                    </g>
                  </g>
                </g>
              </g>
            </g>
          </g>
        </g>
      </g>
    </g>
    <g id="dia-internacional-del-nino" transform="translate(215.142 549.361)">
      <g id="Grupo_1231452" data-name="Grupo 1231452" transform="translate(1.351 0.858)">
        <path id="Trazado_1175055" data-name="Trazado 1175055" d="M44.242,114.5a24.914,24.914,0,0,0,18.964,41.072q.681,0,1.354-.037l5.541-5.541V138.537l-9.368-4.178V117.716Z" transform="translate(-34.825 -102.254)" fill="#696eaf"/>
        <path id="Trazado_1175056" data-name="Trazado 1175056" d="M259.314,142.541a24.934,24.934,0,0,0-3.367-26.842l-21.552,3.08v16.642l9.368,4.178Z" transform="translate(-208.486 -103.317)" fill="#696eaf"/>
        <path id="Trazado_1175057" data-name="Trazado 1175057" d="M69.894,189.834A29.085,29.085,0,0,1,40.809,160.75c0-.214,0-.428.008-.641a24.922,24.922,0,0,0,22.389,35.853q.681,0,1.354-.037l5.541-5.541v-.553l-.208,0Z" transform="translate(-34.825 -142.645)" fill="#4c5696"/>
        <path id="Trazado_1175058" data-name="Trazado 1175058" d="M131.7,73.718a24.918,24.918,0,0,1-21.092,14.056l-.647-1.571a2.34,2.34,0,0,1,.805-2.795,2.333,2.333,0,0,0,.982-1.9,3.112,3.112,0,0,0-.632-2.394l-1.22-1.3a2.337,2.337,0,0,1-.226-2.916l.327-.48a2.338,2.338,0,0,0-1.2-3.538l-3.542-1.163a1.392,1.392,0,0,1-.771-.625l-2.429-4.179a1.394,1.394,0,0,0-2.392-.031l-.581.942a1.394,1.394,0,0,1-2.536-1.084L97.8,59.921a1.394,1.394,0,0,1,.711-.888l2.563-1.319a1.393,1.393,0,0,0,.723-1.542A2.7,2.7,0,0,0,99.617,54.1a8.777,8.777,0,0,1-3.2-.852L92.7,50.987a4.3,4.3,0,0,1-1.9-2.475l-.517-1.773h0a24.914,24.914,0,0,1,38.043.138l-1.013,1.8a2.431,2.431,0,0,1-1.925,1.232,2.43,2.43,0,0,0-1.947,1.273l-.927,1.728a2.431,2.431,0,0,1-2.316,1.275c-.579-.039-.688-.057-.964-.057a4.512,4.512,0,0,0-3.324,1.461c-1.693,1.848-.879,3.81-2.273,5.661l-2.114,2.82a1.47,1.47,0,0,0,.313,2.072l1.832,1.328a1.473,1.473,0,0,0,1.233.232,16.71,16.71,0,0,1,3.277-.758,2.839,2.839,0,0,1,2.025.848c1.536,1.56,3.211.332,4.8,1.18a15.468,15.468,0,0,1,1.863,1.034Z" transform="translate(-80.87 -34.494)" fill="#71d9b8"/>
        <path id="Trazado_1175059" data-name="Trazado 1175059" d="M253.985,33.432a5.07,5.07,0,0,1-5.966-.233,1.323,1.323,0,0,1,.136-2.278,4.974,4.974,0,0,0,.638-.383,4.251,4.251,0,0,0,1.733-3.107,4.233,4.233,0,0,1,7.137-2.662Z" transform="translate(-220.031 -21.755)" fill="#fd8b9b"/>
        <path id="Trazado_1175060" data-name="Trazado 1175060" d="M304.986,17.988a11.407,11.407,0,0,1,22.739,0l-11.369,2.26Z" transform="translate(-270.999 -7.5)" fill="#fd8b9b"/>
        <path id="Trazado_1175061" data-name="Trazado 1175061" d="M314.446,8.891a11.411,11.411,0,0,0-9.46,10.328l3.307.657A13.586,13.586,0,0,1,314.446,8.891Z" transform="translate(-270.999 -8.732)" fill="#e75b70"/>
        <path id="Trazado_1175062" data-name="Trazado 1175062" d="M327.477,67.162a11.406,11.406,0,1,1-22.812,0c0-.309.013-.616.037-.919,2.759-.086,7.874-.756,11.369-4.252,3.5,3.5,8.61,4.165,11.369,4.252C327.465,66.546,327.477,66.853,327.477,67.162Z" transform="translate(-270.714 -55.756)" fill="#ffdcce"/>
        <path id="Trazado_1175063" data-name="Trazado 1175063" d="M8.188,338.557a11,11,0,0,0-.159,1.187c-.024.3-.037.61-.037.919a11.406,11.406,0,0,0,22.812,0c0-.309-.013-.616-.037-.919a11.284,11.284,0,0,0-.158-1.187L19.4,332.371Z" transform="translate(-7.993 -295.193)" fill="#da9d81"/>
        <path id="Trazado_1175064" data-name="Trazado 1175064" d="M11.576,371.1a13.6,13.6,0,0,1,.666-4.213l-4.052,2.236a10.994,10.994,0,0,0-.159,1.187c-.024.3-.037.61-.037.919a11.409,11.409,0,0,0,9.784,11.291A13.6,13.6,0,0,1,11.576,371.1Z" transform="translate(-7.994 -325.761)" fill="#c7856a"/>
        <path id="Trazado_1175065" data-name="Trazado 1175065" d="M20.911,305.158a11.409,11.409,0,0,0-11.211,9.3h5.64A2.352,2.352,0,0,0,17,313.769l2.245-2.245a2.352,2.352,0,0,1,3.326,0l2.245,2.245a2.352,2.352,0,0,0,1.663.689h5.641A11.409,11.409,0,0,0,20.911,305.158Z" transform="translate(-9.505 -271.094)" fill="#475066"/>
        <path id="Trazado_1175066" data-name="Trazado 1175066" d="M266.8,398.445a29.312,29.312,0,0,1-4.2-.3c0,.045,0,.086.007.124a2.333,2.333,0,0,1-.982,1.9,2.34,2.34,0,0,0-.805,2.795l.647,1.571a24.86,24.86,0,0,0,17.727-8.858A28.969,28.969,0,0,1,266.8,398.445Z" transform="translate(-231.726 -351.256)" fill="#30ca99"/>
        <path id="Trazado_1175067" data-name="Trazado 1175067" d="M18.789,306.894A11.416,11.416,0,0,0,9.7,316h3.53A13.607,13.607,0,0,1,18.789,306.894Z" transform="translate(-9.506 -272.632)" fill="#303646"/>
        <path id="Trazado_1175068" data-name="Trazado 1175068" d="M308,97.411A13.737,13.737,0,0,1,308.077,96a22.6,22.6,0,0,1-3.374.36c-.024.3-.037.61-.037.919a11.41,11.41,0,0,0,8.946,11.139A13.578,13.578,0,0,1,308,97.411Z" transform="translate(-270.715 -85.869)" fill="#ffcabd"/>
      </g>
      <g id="Grupo_1231453" data-name="Grupo 1231453" transform="translate(0.493 0)">
        <path id="Trazado_1175069" data-name="Trazado 1175069" d="M347.522,115.518a.858.858,0,0,0-.858.858v1.1a.858.858,0,0,0,1.717,0v-1.1A.858.858,0,0,0,347.522,115.518Z" transform="translate(-307.049 -102.298)"/>
        <path id="Trazado_1175070" data-name="Trazado 1175070" d="M447.865,115.518a.858.858,0,0,0-.858.858v1.1a.858.858,0,1,0,1.717,0v-1.1A.858.858,0,0,0,447.865,115.518Z" transform="translate(-395.909 -102.298)"/>
        <path id="Trazado_1175071" data-name="Trazado 1175071" d="M388.057,125.082a.858.858,0,0,0-1.211.083,1.148,1.148,0,0,1-1.733,0,.858.858,0,1,0-1.294,1.128,2.864,2.864,0,0,0,4.322,0A.858.858,0,0,0,388.057,125.082Z" transform="translate(-339.764 -110.581)"/>
        <path id="Trazado_1175072" data-name="Trazado 1175072" d="M50.852,413.179a.858.858,0,0,0-.858.858v1.1a.858.858,0,1,0,1.717,0v-1.1a.858.858,0,0,0-.858-.858Z" transform="translate(-44.329 -365.895)"/>
        <path id="Trazado_1175073" data-name="Trazado 1175073" d="M151.2,413.179a.858.858,0,0,0-.858.858v1.1a.858.858,0,1,0,1.717,0v-1.1A.858.858,0,0,0,151.2,413.179Z" transform="translate(-133.189 -365.895)"/>
        <path id="Trazado_1175074" data-name="Trazado 1175074" d="M91.388,422.743a.858.858,0,0,0-1.211.083,1.148,1.148,0,0,1-1.733,0,.858.858,0,0,0-1.294,1.128,2.864,2.864,0,0,0,4.322,0A.858.858,0,0,0,91.388,422.743Z" transform="translate(-77.046 -374.178)"/>
        <path id="Trazado_1175075" data-name="Trazado 1175075" d="M181.681,12.264c0-.326-.013-.658-.039-.987h0a12.264,12.264,0,0,0-19.97-8.522,5.1,5.1,0,0,0-6.765.853c-.818-.078-1.645-.119-2.465-.119a25.759,25.759,0,0,0-12.957,3.491.858.858,0,1,0,.864,1.483,24.086,24.086,0,0,1,13.612-3.21,5.279,5.279,0,0,0-.261,1.2,3.36,3.36,0,0,1-1.9,2.8,2.181,2.181,0,0,0-.229,3.76,6.03,6.03,0,0,0,5.689.885,12.15,12.15,0,0,0,2.8,6.288,5.454,5.454,0,0,0-1.583,1.183c-1.886,2.059-1.111,4.111-2.327,5.727l-2.114,2.821a2.331,2.331,0,0,0,.5,3.281c1.884,1.36,1.851,1.356,2.051,1.469a2.318,2.318,0,0,0,1.725.229,17.844,17.844,0,0,1,3.069-.732,1.969,1.969,0,0,1,1.413.592c1.816,1.846,3.754.666,5.006,1.334,2.643,1.425.429.022,6.011,4.239a24.019,24.019,0,0,1-9.394,9.8.858.858,0,1,0,.855,1.488A25.8,25.8,0,0,0,177.116,21.8a12.246,12.246,0,0,0,4.565-9.539ZM169.416,1.717a10.551,10.551,0,0,1,10.389,8.716c-3.531-.265-7.246-1.409-9.782-3.946a.859.859,0,0,0-1.214,0c-2.5,2.5-6.207,3.678-9.782,3.946A10.553,10.553,0,0,1,169.416,1.717ZM157.154,12.056a4.254,4.254,0,0,1-4.63-.467.465.465,0,0,1,.044-.8,5.088,5.088,0,0,0,2.841-4.176,3.371,3.371,0,0,1,4.973-2.645,12.234,12.234,0,0,0-3.228,8.085Zm17.4,26.689c-5.476-4.108-3.067-2.609-5.952-4.164-1.849-.986-3.393.2-4.593-1.025a3.722,3.722,0,0,0-2.637-1.1,18.549,18.549,0,0,0-3.505.788.613.613,0,0,1-.5-.1l-1.832-1.328a.612.612,0,0,1-.13-.862l2.113-2.819c1.348-1.791.927-3.56,1.768-4.99a3.636,3.636,0,0,1,2.078-1.627,12.248,12.248,0,0,0,8.051,3.015h.01a12.219,12.219,0,0,0,6.205-1.688,24.066,24.066,0,0,1,.867,6.42A23.825,23.825,0,0,1,174.556,38.744Zm-5.135-15.932h-.007a10.557,10.557,0,0,1-10.543-10.647,17.713,17.713,0,0,0,10.546-3.9,17.65,17.65,0,0,0,10.547,3.9A10.56,10.56,0,0,1,169.421,22.812Z" transform="translate(-123.201 0)"/>
        <path id="Trazado_1175076" data-name="Trazado 1175076" d="M.7,112.386a11.885,11.885,0,0,0-.171,1.277,12.26,12.26,0,0,0,21.82,8.617,25.849,25.849,0,0,0,16.813-.707.858.858,0,1,0-.628-1.6,23.915,23.915,0,0,1-6.891,1.587l-.412-1a1.474,1.474,0,0,1,.508-1.768,3.178,3.178,0,0,0,1.337-2.72,3.657,3.657,0,0,0-.858-2.865l-1.22-1.3a1.488,1.488,0,0,1-.143-1.845,6.52,6.52,0,0,0,.6-.97,3.2,3.2,0,0,0-1.919-4.347c-3.629-1.24-3.657-1.09-3.838-1.4l-2.429-4.178a2.252,2.252,0,0,0-3.864-.051l-.581.942a.537.537,0,0,1-.976-.416l1.258-4.817a.535.535,0,0,1,.273-.34l2.562-1.319c2.28-1.169,1.119-4.732-1.688-5.225a8.344,8.344,0,0,1-2.911-.742l-3.719-2.257c-1.6-.974-1.594-2.565-1.905-3.306a24.3,24.3,0,0,1,3.128-2.951.858.858,0,1,0-1.063-1.348,25.979,25.979,0,0,0-3.673,3.532l-.012.016a25.8,25.8,0,0,0-5.03,24.209A12.214,12.214,0,0,0,.7,112.386ZM12.757,125.2A10.559,10.559,0,0,1,2.243,113.8q.016-.2.039-.4h4.9a3.192,3.192,0,0,0,2.27-.94l2.245-2.245a1.5,1.5,0,0,1,2.112,0l2.245,2.245a3.189,3.189,0,0,0,2.27.94h4.9c.015.134.028.252.04.4a10.56,10.56,0,0,1-10.514,11.4ZM10.408,83.255a5.175,5.175,0,0,0,2.33,3.151l3.719,2.257c1.8,1.093,3.526.557,4.457,1.445a1.794,1.794,0,0,1,.539,1.026.541.541,0,0,1-.29.5c-2.507,1.333-2.708,1.3-3.152,1.759-.626.649-.486.888-1.818,5.811a2.253,2.253,0,0,0,4.1,1.75l.581-.942a.535.535,0,0,1,.919.012L24.22,104.2a2.25,2.25,0,0,0,1.245,1.009l3.542,1.163a1.486,1.486,0,0,1,.939.929c.461,1.357-1.054,1.647-1.066,3.573-.01,1.633.979,2.257,2.09,3.5.569.607.354,1.273.4,1.842a1.479,1.479,0,0,1-.622,1.17,3.183,3.183,0,0,0-1.1,3.82l.174.423a24.062,24.062,0,0,1-6.443-.85,12.247,12.247,0,0,0,1.605-7.126h0A12.268,12.268,0,0,0,7.578,103.531c-.538.25-.961.5-1.016.534a24.1,24.1,0,0,1,3.847-20.81ZM12.757,104.1h.018a10.545,10.545,0,0,1,10.106,7.583H18.329a1.484,1.484,0,0,1-1.056-.437L15.027,109a3.215,3.215,0,0,0-4.516-.022l-.024.023c-2.152,2.077-2.221,2.361-2.735,2.572-.475.194-.438.075-5.12.111A10.557,10.557,0,0,1,12.757,104.1Z" transform="translate(-0.493 -68.321)"/>
      </g>
    </g>
  </g>
</svg>
